<svg width="1920" height="1281" viewBox="0 0 1920 1281" fill="none" xmlns="http://www.w3.org/2000/svg">
<path d="M-1.1543 1279.7C639.521 1276.99 1280.35 1275.79 1921.03 1279.7" stroke="url(#paint0_linear_229_2137)" stroke-miterlimit="10"/>
<path d="M-1.1543 1254.22C184.323 1241.86 372.646 1237.64 558.38 1247.4C634.242 1251.39 710.309 1253.36 786.196 1249.17C868.953 1244.59 947.736 1226.35 1029.39 1215.21C1174.61 1195.39 1321.84 1241.96 1466.44 1249.73C1618.76 1257.93 1768.33 1236.62 1921.03 1256.04" stroke="url(#paint1_linear_229_2137)" stroke-miterlimit="10"/>
<path d="M-1.1543 1225.76C191.499 1204.53 391.176 1200.65 584.291 1219.71C661.716 1227.35 739.782 1231.38 817.336 1223.28C908.857 1213.75 988.282 1178.65 1076.34 1157.21C1223.43 1121.42 1368.64 1208.34 1513.04 1222.47C1576.42 1228.68 1639.16 1215.11 1702.38 1211.05C1777.14 1206.22 1848.47 1213.91 1921.03 1232.38" stroke="url(#paint2_linear_229_2137)" stroke-miterlimit="10"/>
<path d="M-1.1543 1194.9C197.42 1166.21 401.581 1169.73 600.309 1196.33C678.503 1206.78 756.749 1212.53 835.122 1200.42C875.898 1194.11 915.674 1183.51 954.579 1169.84C1007.48 1151.26 1056.25 1117.13 1108.71 1100.06C1255.95 1052.16 1395.68 1174.38 1535.31 1196.23C1599.38 1206.24 1657.84 1185.47 1720.97 1178.29C1791.27 1170.3 1855.29 1183.99 1921.05 1208.75" stroke="url(#paint3_linear_229_2137)" stroke-miterlimit="10"/>
<path d="M-1.1543 1162.09C193.242 1128.14 391.842 1138.77 585.546 1173.13C669.61 1188.05 753.801 1197.89 838.377 1180.77C945.763 1159.03 1024.96 1094.67 1123.27 1053.54C1282.71 986.829 1409.67 1148.66 1558.4 1173.26C1617.12 1182.97 1665.53 1158.19 1721.73 1147.38C1793.88 1133.51 1856.21 1153.92 1921.03 1185.11" stroke="url(#paint4_linear_229_2137)" stroke-miterlimit="10"/>
<path d="M-1.1543 1127.88C193.396 1088.08 384.23 1111.64 575.91 1154.74C660.23 1173.69 744.78 1184.07 829.843 1163.09C874.002 1152.21 915.726 1134.45 956.015 1113.6C1016.32 1082.41 1069.68 1030.29 1130.19 1002.41C1292.83 927.479 1408.88 1116.44 1553.56 1147.81C1619.4 1162.09 1663.2 1130.72 1723.91 1115.31C1796.08 1097.02 1859 1126.53 1921.03 1161.46" stroke="url(#paint5_linear_229_2137)" stroke-miterlimit="10"/>
<path d="M-1.1543 1092.81C189.552 1047.66 364.47 1085.35 549.256 1135.5C635.062 1158.77 720.817 1172.85 808.186 1148.71C854.421 1135.93 897.452 1114.88 938.766 1090.89C1003.51 1053.31 1059.35 993.395 1124.53 959.313C1295.7 869.815 1397.22 1089.26 1545.15 1124.21C1614.68 1140.63 1655.41 1102.97 1717.33 1083.53C1792.27 1060 1858.88 1099.09 1921 1137.8" stroke="url(#paint6_linear_229_2137)" stroke-miterlimit="10"/>
<path d="M-1.1543 1057.34C180.966 1007.32 335.637 1056.73 508.224 1113.3C593.825 1141.35 679.195 1162.35 768.41 1139.36C904.141 1104.38 992.613 997.943 1106.69 926.227C1291.93 809.8 1374.49 1069.07 1536.1 1102.08C1606.07 1116.39 1645.64 1071.91 1707.48 1050.42C1785.81 1023.21 1858.11 1072.21 1921.03 1114.09" stroke="url(#paint7_linear_229_2137)" stroke-miterlimit="10"/>
<path d="M-1.1543 1022.06C175.558 965.163 311.238 1029.11 473.522 1092.5C561.148 1126.71 649.773 1154.46 743.14 1126.17C881.562 1084.25 971.777 970.043 1086.21 890.611C1280.76 755.585 1344.63 1044.11 1511.73 1078.04C1582.85 1092.47 1626.75 1043.11 1687.65 1019.02C1773.66 984.989 1852.62 1042.91 1921.03 1090.51" stroke="url(#paint8_linear_229_2137)" stroke-miterlimit="10"/>
<path d="M-1.1543 987.417C78.0139 957.346 155.286 950.422 237.17 974.694C312.776 997.1 377.695 1042.35 449.046 1074.36C533.314 1112.17 619.889 1145.34 712.103 1115.21C858.573 1067.36 946.737 937.418 1066.27 851.216C1259.82 711.616 1316.13 1009.18 1475.03 1049.32C1555.48 1069.63 1602.1 1010.74 1670.5 983.815C1762.95 947.407 1849.32 1015.37 1921.03 1066.85" stroke="url(#paint9_linear_229_2137)" stroke-miterlimit="10"/>
<path d="M-1.1543 953.974C70.0945 921.807 141.087 911.792 216.334 936.932C290.453 961.689 350.656 1013.81 418.932 1049.88C498.356 1091.86 580.087 1133.99 671.481 1107.11C824.717 1062.1 920.903 916.161 1039.82 821.732C1242.6 660.697 1276.25 984.53 1442.38 1021.81C1527.62 1040.94 1580.7 972.65 1653.89 946.028C1752.36 910.234 1846.8 988.439 1921 1043.17" stroke="url(#paint10_linear_229_2137)" stroke-miterlimit="10"/>
<path d="M-1.1543 922.215C163.512 834.071 262.415 938.337 396.532 1022.6C472.702 1070.45 554.715 1125.82 648.056 1095C799.216 1045.11 898.657 895.082 1013.24 795.314C1087.21 730.93 1158.02 715.984 1221.38 797.434C1276.33 868.052 1311.62 969.762 1409.39 990.227C1494.53 1008.03 1554.66 938.132 1627.7 909.645C1735.19 867.694 1841.6 959.415 1921.03 1019.53" stroke="url(#paint11_linear_229_2137)" stroke-miterlimit="10"/>
<path d="M-1.1543 892.681C158.335 792.759 257.725 896.514 383.512 990.687C450.609 1040.92 526.574 1110.49 617.224 1086.9C672.403 1072.55 721.329 1031.74 763.464 995.72C844.451 926.508 911.676 844.854 988.564 771.732C1062.27 701.626 1134.93 674.033 1198.13 766.52C1245.24 835.452 1281.38 941.94 1376.08 956.988C1466.11 971.296 1532 894.291 1610.97 867.669C1724.86 829.243 1839.68 932.512 1921.03 995.823" stroke="url(#paint12_linear_229_2137)" stroke-miterlimit="10"/>
<path d="M-1.1543 865.906C61.0218 821.323 129.631 793.346 205.39 820.505C272.846 844.7 325.283 900.908 377.131 947.739C435.565 1000.52 509.377 1094.24 599.079 1075.82C649.568 1065.44 693.983 1026.92 731.709 994.11C814.978 921.679 887.969 837.776 962.832 757.067C1032.9 681.493 1110.56 627.125 1175.91 732.31C1219.92 803.106 1254.08 915.087 1353.88 919.022C1442.45 922.522 1509.01 852.007 1588.85 825.998C1711.3 786.116 1835.53 903.335 1921.05 972.189" stroke="url(#paint13_linear_229_2137)" stroke-miterlimit="10"/>
<path d="M-1.1543 841.328C62.6621 791.763 133.757 758.856 214.361 787.419C282.38 811.512 338.713 866.442 388.997 915.828C441.28 967.207 511.453 1068.13 597.054 1050.91C644.955 1041.27 687.089 1002.67 722.406 971.346C803.163 899.682 875.283 817.976 948.249 738.697C1015.06 666.113 1093.54 599.941 1159.82 704.641C1203.18 773.137 1236.11 882.462 1334.04 883.816C1421.85 885.016 1495.07 821.476 1577.06 799.708C1704.67 765.805 1829.38 876.943 1921.03 947.944" stroke="url(#paint14_linear_229_2137)" stroke-miterlimit="10"/>
<path d="M-1.1543 813.939C69.2488 758.728 144.368 729.04 230.43 767.364C301.602 799.07 363.932 859.059 419.009 912.175C468.422 959.85 529.649 1040.3 607.562 1015.24C655.104 999.936 696.443 959.058 731.914 926.202C803.009 860.362 869.081 789.055 936.152 719.204C1000.07 652.598 1077.62 587.805 1146.34 680.676C1195.21 746.746 1226.32 852.416 1323.89 857.245C1410.8 861.537 1494.84 804.384 1578.62 789.055C1705.33 765.856 1823.17 852.927 1921.05 920.019" stroke="url(#paint15_linear_229_2137)" stroke-miterlimit="10"/>
<path d="M-1.1543 783.511C74.554 725.923 151.697 700.604 240.143 746.081C307.907 780.905 370.442 836.985 426.185 888.159C478.135 935.859 541.926 1018.05 620.428 981.669C661.408 962.686 695.136 926.534 727.326 895.952C795.038 831.568 859.085 763.301 925.208 697.334C993.612 629.093 1071.11 576.181 1142.08 666.905C1190.93 729.372 1226.12 827.71 1318.74 831.798C1403.96 835.58 1488.61 794.88 1571.78 781.339C1700.15 760.44 1814.13 825.692 1921.05 888.568" stroke="url(#paint16_linear_229_2137)" stroke-miterlimit="10"/>
<path d="M-1.1543 750.603C86.1639 687.804 169.458 673.598 262.441 732.029C329.256 774.006 391.022 830.878 450.814 882.155C500.74 924.975 556.893 992.194 626.758 953.257C664.176 932.41 695.316 895.236 725.122 865.165C788.58 801.113 850.372 735.504 915.674 673.292C983.335 608.832 1060.79 562.307 1132.8 643.757C1186.57 704.564 1223.81 801.548 1316.21 810.337C1397.63 818.078 1486.36 786.346 1566.45 773.98C1694.44 754.231 1807.05 799.325 1921 854.383" stroke="url(#paint17_linear_229_2137)" stroke-miterlimit="10"/>
<path d="M-1.1543 715.831C93.4426 652.393 180.428 645.597 275.23 711.974C346.76 762.05 411.038 825.334 479.058 880.214C525.831 917.924 577.576 969.635 636.036 926.304C674.684 897.663 706.234 854.511 738.321 819.356C792.578 759.955 848.193 701.345 907.883 647.335C981.029 581.137 1060.35 549.865 1134.01 629.655C1187.93 688.06 1229.25 779.218 1317.85 789.106C1401.7 798.457 1492.38 776.51 1575.44 765.141C1697.59 748.432 1806.31 775.642 1921.03 817.976" stroke="url(#paint18_linear_229_2137)" stroke-miterlimit="10"/>
<path d="M-1.1543 679.73C106.693 612.511 198.368 619.665 297.373 698.458C372.492 758.242 436.513 827.812 514.81 884.224C568.529 922.905 607.254 944.75 656.283 890.841C739.603 799.223 807.084 694.804 904.705 615.807C976.364 557.836 1055.2 536.222 1126.6 603.697C1186.93 660.696 1227.53 748.202 1314.62 768.743C1395.01 787.675 1495.92 768.998 1576.75 758.012C1696.05 741.789 1803.72 751.319 1921.05 780.138" stroke="url(#paint19_linear_229_2137)" stroke-miterlimit="10"/>
<path d="M-1.1543 642.914C119.61 572.68 217.949 595.495 319.773 685.402C392.713 749.811 453.377 824.389 536.159 877.301C596.926 916.161 628.911 923.033 670.481 861.154C736.348 763.122 802.65 662.919 898.605 590.616C976.185 532.134 1054.79 519.002 1130.6 586.425C1193.72 642.582 1238.65 732.923 1327.92 752.8C1407.09 770.429 1499.48 762.049 1579.29 751.216C1695.16 735.478 1804 728.376 1921.05 741.38" stroke="url(#paint20_linear_229_2137)" stroke-miterlimit="10"/>
<path d="M-1.1543 605.971C130.477 533.539 233.454 569.231 337.79 668.336C411.628 738.468 472.497 824.133 563.403 873.852C630.884 910.77 654.565 891.583 686.756 828.298C737.962 727.66 802.727 625.95 897.58 560.391C977.876 504.873 1059.09 503.162 1134.52 566.957C1200.31 622.629 1248.24 710.619 1336.38 735.299C1525.42 788.237 1731.14 709.112 1921.05 702.546" stroke="url(#paint21_linear_229_2137)" stroke-miterlimit="10"/>
<path d="M-1.1543 569.461C64.328 534.689 125.889 514.045 199.163 539.364C259.775 560.314 309.419 604.284 353.885 649.071C427.236 723.01 489.95 822.498 587.674 866.442C660.973 899.4 678.324 854.996 703.056 793.04C743.37 691.968 804.239 588.418 899.349 529.247C1106.64 400.25 1181.45 661.258 1346.37 717.849C1538.97 783.945 1732.7 700.553 1921.05 664.196" stroke="url(#paint22_linear_229_2137)" stroke-miterlimit="10"/>
<path d="M-1.1543 533.974C67.1472 497.95 130.092 477.868 204.698 505.231C267.285 528.174 317.876 575.056 363.214 622.552C434.514 697.232 508.249 826.509 614.61 856.248C689.062 877.071 700.8 807.629 719.663 751.728C752.674 653.875 809.57 545.982 904.757 494.219C1102.36 386.761 1201.87 628.377 1351.06 696.67C1546.79 786.27 1736.32 694.396 1921.03 626.997" stroke="url(#paint23_linear_229_2137)" stroke-miterlimit="10"/>
<path d="M-1.1543 500.121C67.8135 462.717 129.938 442.406 205.852 468.9C268.797 490.872 320.234 539.901 364.983 587.677C437.59 665.219 515.425 812.508 628.321 834.481C705.055 849.427 715.819 773.01 732.58 715.627C761.362 617.187 813.184 508.22 912.65 462.436C1110.53 371.354 1217.25 603.313 1363.21 678.325C1439.2 717.364 1537.59 737.369 1622.24 723.777C1729.55 706.557 1827.68 643.17 1921.05 591.74" stroke="url(#paint24_linear_229_2137)" stroke-miterlimit="10"/>
<path d="M-1.1543 468.441C72.2986 426.106 143.291 401.707 224.612 438.293C285.635 465.758 334.048 516.243 377.797 565.246C443.356 638.673 525.984 793.373 636.266 804.972C719.279 813.709 729.761 723.343 747.548 662.332C775.048 568.031 824.563 466.933 924.235 430.552C1120.63 358.836 1234.19 573.881 1375.9 657.912C1447.5 700.374 1541.1 729.449 1624.86 719.051C1737.06 705.101 1834.17 624.162 1921 558.884" stroke="url(#paint25_linear_229_2137)" stroke-miterlimit="10"/>
<path d="M-1.1543 439.544C68.198 395.498 136.474 364.839 218.41 397.823C284.072 424.266 336.355 480.397 381.462 532.849C445.945 607.835 527.035 761.794 641.597 764.502C723.277 766.418 738.398 674.748 757.671 613.533C787.478 518.951 834.61 427.204 939.151 400.454C1139.34 349.203 1250.49 545.828 1393.73 640.155C1463.85 686.347 1557.38 724.441 1642.8 712.152C1754.51 696.056 1844.27 603.492 1921.03 529.247" stroke="url(#paint26_linear_229_2137)" stroke-miterlimit="10"/>
<path d="M-1.1543 414.021C62.5083 368.007 128.631 329.454 209.594 356.484C272.692 377.537 322.387 429.095 364.854 477.995C434.412 558.066 504.379 700.501 624.118 709.597C715.153 716.495 738.808 628.3 765.001 558.526C800.728 463.33 850.525 382.723 959.936 367.982C1153.9 341.845 1265.67 508.092 1400.42 612.741C1467.98 665.193 1559.45 715.422 1647.85 706.838C1765.1 695.443 1851.39 586.757 1921.03 503.442" stroke="url(#paint27_linear_229_2137)" stroke-miterlimit="10"/>
<path d="M-1.1543 393.888C62.2008 349.817 127.529 313.537 206.877 339.29C268.669 359.346 317.851 408.63 359.806 456.049C427.389 532.389 498.92 678.938 615.225 682.95C705.157 686.041 735.938 606.635 768.179 536.835C809.519 447.388 865.467 365.504 971.572 351.222C1158.74 326.03 1275.66 481.343 1408.5 580.677C1473.67 629.399 1565.6 678.964 1649.31 677.329C1766.33 675.029 1853.01 564.07 1921.03 483.08" stroke="url(#paint28_linear_229_2137)" stroke-miterlimit="10"/>
<path d="M-1.1543 380.118C61.2012 337.578 125.581 302.295 203.366 325.749C263.466 343.864 311.93 390.005 353.219 435.176C419.726 507.965 490.949 652.981 603.487 653.67C691.728 654.207 729.3 584.203 767.82 516.013C814.875 432.723 876.641 352.806 978.978 338.805C1159.38 314.15 1281.25 453.443 1414.16 546.16C1478.69 591.178 1569.63 641.407 1649.49 648.51C1765.92 658.857 1854.01 546.799 1921 468.721" stroke="url(#paint29_linear_229_2137)" stroke-miterlimit="10"/>
<path d="M-1.1543 371.584C58.664 330.834 122.608 295.601 197.317 314.508C261.005 330.604 311.597 378.61 354.962 425.084C420.88 495.727 486.977 626.946 597.105 622.066C680.425 618.387 722.893 555.332 766.411 493.274C819.847 417.036 884.356 345.55 982.208 331.702C1159.89 306.536 1284.37 426.949 1422.62 512.844C1486.49 552.547 1567.52 599.634 1641.11 618.617C1760.38 649.378 1851.21 537.959 1921.03 459.268" stroke="url(#paint30_linear_229_2137)" stroke-miterlimit="10"/>
<path d="M-1.1543 367.19C57.0237 327.052 119.61 291.054 193.088 305.949C254.265 318.366 303.985 361.083 346.607 403.98C413.447 471.225 475.675 591.995 582.368 587.269C663.305 583.692 711.975 530.601 761.49 473.397C820.821 404.874 889.302 339.776 983.386 326.132C1153.56 301.452 1283.96 397.721 1423.82 474.316C1493.23 512.333 1566.22 558.807 1639.08 589.568C1756.38 639.107 1848.6 531.904 1921 453.698" stroke="url(#paint31_linear_229_2137)" stroke-miterlimit="10"/>
<path d="M-1.1543 365.836C121.25 279.327 227.124 279.762 338.277 382.341C406.527 445.319 464.526 553.417 567.478 549.738C645.775 546.927 700.211 503.903 755.39 453.393C820.411 393.889 892.044 336.327 982.387 322.939C1144.54 298.898 1281.84 368.519 1422.95 434.563C1500.63 470.919 1563.47 516.524 1635.83 560.749C1750.08 630.575 1843.34 530.883 1921.05 451.042" stroke="url(#paint32_linear_229_2137)" stroke-miterlimit="10"/>
<path d="M-1.1543 366.423C112.767 283.236 217.615 267.089 330.435 359.678C400.479 417.164 454.428 511.337 553.203 509.395C717.664 506.176 818.95 345.601 979.696 321.381C1133.68 298.182 1278.33 339.316 1419.95 393.812C1506.53 427.128 1561.04 474.317 1631.26 531.878C1741.42 622.169 1835.04 533.846 1921.03 450.122" stroke="url(#paint33_linear_229_2137)" stroke-miterlimit="10"/>
<path d="M-1.1543 367.855C103.028 288.704 207.056 255.184 320.849 333.593C391.201 382.06 442.792 463.05 533.699 466.167C697.161 471.813 818.797 344.171 975.672 319.771C1118.81 297.518 1271.79 309.858 1409.88 351.146C1508.19 380.552 1558.4 434.026 1627.7 505.41C1653.59 532.083 1682.7 559.855 1721.58 564.045C1798.93 572.349 1871.28 495.932 1921.03 450.046" stroke="url(#paint34_linear_229_2137)" stroke-miterlimit="10"/>
<path d="M-1.1543 369.03C95.7748 292.434 199.316 243.763 315.647 307.891C387.613 347.568 437.667 414.916 523.498 419.898C683.193 429.172 817.72 343.864 971.341 320.078C1109.15 298.744 1265.31 280.962 1402.93 310.395C1508.81 333.031 1556.43 396.163 1620.6 476.846C1645.18 507.761 1673.01 543.325 1713.64 553.033C1792.11 571.786 1869.54 494.705 1921 449.764" stroke="url(#paint35_linear_229_2137)" stroke-miterlimit="10"/>
<path d="M-1.1543 368.825C93.4426 291.156 198.573 231.039 320.362 282.852C386.767 311.109 436.18 362.897 510.069 370.102C668.867 385.61 813.261 343.531 968.317 320.844C1050.02 308.887 1130.52 297.032 1211.54 280.757C1274.51 268.111 1335.71 261.544 1399.73 270.691C1510.35 286.48 1557.07 365.273 1614.43 451.118C1637.39 485.481 1664.99 528.148 1706.72 541.817C1786.68 568.03 1866.44 493.427 1921.03 448.129" stroke="url(#paint36_linear_229_2137)" stroke-miterlimit="10"/>
<path d="M-1.1543 366.168C89.957 288.959 195.139 217.422 319.67 250.508C385.691 268.06 438.974 308.887 507.583 317.523C664.099 337.195 809.109 341.666 965.497 319.95C1048.3 308.453 1125.94 291.514 1204.92 264.228C1265.74 243.226 1324.1 226.006 1389.3 230.605C1505.4 238.781 1552.56 331.856 1604.97 422.248C1627.29 460.75 1654.25 510.29 1697.51 529.017C1779.02 564.3 1863 490.157 1921.08 444.246" stroke="url(#paint37_linear_229_2137)" stroke-miterlimit="10"/>
<path d="M-1.1543 359.96C88.6756 282.035 193.447 202.45 319.465 214.509C387.126 220.973 449.046 252.858 516.22 262.72C669.764 285.28 804.829 336.761 962.55 317.574C1046 307.406 1120.99 285.689 1196.18 248.541C1252.83 220.565 1306.8 192.256 1371.69 191.439C1497.84 189.906 1545.48 299.741 1596.28 396.623C1618.22 438.472 1644.59 492.917 1689.29 515.349C1772.22 556.993 1859.67 483.642 1921.03 436.964" stroke="url(#paint38_linear_229_2137)" stroke-miterlimit="10"/>
<path d="M-1.1543 349.101C90.5209 268.647 195.574 183.876 322.823 175.496C391.432 170.974 463.655 191.311 530.418 205.107C680.579 236.124 805.598 330.476 965.062 313.307C1047.05 304.493 1119.45 277.896 1188.19 233.032C1243.65 196.829 1294.47 158.02 1363.34 154.009C1492.23 146.523 1539.43 274.089 1586.46 370.894C1608.81 416.857 1634.47 472.452 1680.55 499.661C1763.3 548.511 1858.72 471.327 1921.03 425.339" stroke="url(#paint39_linear_229_2137)" stroke-miterlimit="10"/>
<path d="M-1.1543 332.443C155.721 195.092 321.054 89.191 534.621 140.647C686.653 177.284 803.752 319.771 968.701 306.332C1052.28 299.51 1122.68 266.067 1186.27 213.104C1236.06 171.638 1280.43 126.16 1348.37 118.828C1477.95 104.853 1525.44 235.51 1569.86 332.187C1594.1 384.946 1620.35 450.939 1672.96 482.364C1757.79 533.028 1856.31 455.18 1921 408.272" stroke="url(#paint40_linear_229_2137)" stroke-miterlimit="10"/>
<path d="M-1.1543 309.807C149.801 181.244 343.992 39.0385 555.176 98.0055C703.414 139.395 815.414 297.006 978.338 288.677C1059.81 284.513 1129.04 245.602 1186.55 190.467C1232.17 146.753 1272.94 97.4434 1340.04 90.0342C1464.34 76.2634 1514.93 205.235 1558.73 296.93C1584.95 351.783 1612.43 418.926 1666.35 452.676C1752.69 506.712 1852.42 432.927 1921 385.304" stroke="url(#paint41_linear_229_2137)" stroke-miterlimit="10"/>
<path d="M-1.1543 286.148C150.339 163.054 349.221 27.133 557.073 78.1798C709.847 115.686 830.868 272.097 996.278 261.391C1071.24 256.537 1134.06 220.232 1186.7 169.032C1228.71 128.179 1265.54 81.6289 1326.87 71.6393C1449.19 51.7111 1509.63 183.927 1557.09 271.611C1584.36 321.943 1613.94 380.271 1663.43 412.744C1749.98 469.539 1847.37 406.663 1921.03 359.397" stroke="url(#paint42_linear_229_2137)" stroke-miterlimit="10"/>
<path d="M-1.1543 262.49C153.21 143.739 361.779 12.417 568.093 64.7413C718.1 102.784 846.502 245.551 1008.37 236.788C1077.39 233.058 1137.83 196.395 1186.09 149.743C1224.76 112.365 1259.18 67.8327 1314.74 56.1057C1435.15 30.71 1504.4 163.948 1556.84 247.135C1588.36 297.135 1621.32 352.167 1675.45 380.45C1761.1 425.186 1846.29 375.8 1921.03 331.575" stroke="url(#paint43_linear_229_2137)" stroke-miterlimit="10"/>
<path d="M-1.1543 238.832C158.156 123.785 371.8 2.964 577.909 53.8576C726.481 90.5459 860.341 222.736 1019.73 211.878C1083.93 207.509 1138.8 175.343 1184.68 132.344C1223.25 96.1922 1257.9 52.1202 1313 41.9773C1427.49 20.8738 1502.07 145.987 1557.94 223.503C1590 267.983 1623.99 313.358 1672.86 340.313C1757.9 387.169 1843.6 344.273 1921.03 302.168" stroke="url(#paint44_linear_229_2137)" stroke-miterlimit="10"/>
<path d="M-1.1543 215.174C159.258 107.485 366.238 3.52585 567.375 41.3128C723.046 70.5664 863.724 200.253 1027.21 188.833C1089.21 184.489 1142 152.962 1187.16 112.441C1224.09 79.2786 1257.64 41.0573 1308.82 31.4253C1414.77 11.4716 1493.66 119.237 1551.89 189.65C1590 235.766 1631.65 286.379 1688.67 309.96C1769.3 343.302 1848.68 307.686 1921.05 271.56" stroke="url(#paint45_linear_229_2137)" stroke-miterlimit="10"/>
<path d="M-1.1543 191.515C163.256 90.1879 374.517 -2.78479 573.783 35.2065C725.686 64.1791 873.284 179.252 1032.16 167.576C1147.54 159.093 1197.9 46.3459 1301.9 23.5051C1406.47 0.562129 1491.61 102.094 1555.89 167.806C1594.54 207.33 1634.88 248.847 1687.06 270.308C1767.84 303.522 1846.24 274.064 1921 240.084" stroke="url(#paint46_linear_229_2137)" stroke-miterlimit="10"/>
<path d="M-1.1543 167.857C167.587 73.8108 374.85 -2.52951 572.245 29.1257C725.379 53.6782 875.693 157.995 1034.26 146.166C1143.18 138.041 1201.41 36.7393 1301.96 17.0921C1399.99 -2.04407 1484.33 78.5629 1551.66 137.453C1593.23 173.835 1636 212.005 1688.37 232.214C1768.56 263.18 1845.27 239.419 1921.05 208.173" stroke="url(#paint47_linear_229_2137)" stroke-miterlimit="10"/>
<path d="M-1.1543 144.198C170.125 59.5798 375.08 -2.91294 568.913 24.6289C722.149 46.3966 876.026 136.636 1033.29 125.266C1137.8 117.704 1205.41 29.8153 1304.11 11.931C1401.47 -5.72333 1490.15 67.1168 1562.96 120.335C1602.51 149.231 1643.72 178.459 1690.36 194.913C1770.76 223.272 1844.14 204.57 1921.03 176.16" stroke="url(#paint48_linear_229_2137)" stroke-miterlimit="10"/>
<path d="M-1.1543 120.54C171.944 46.7542 374.03 -2.65748 564.044 20.7454C717.536 39.6516 872.848 115.098 1029.26 104.776C1131.91 98.0055 1210.38 24.5011 1309.41 8.48187C1400.81 -6.28543 1486.97 48.696 1561.76 93.4578C1683.32 166.221 1783.63 189.19 1921.03 144.351" stroke="url(#paint49_linear_229_2137)" stroke-miterlimit="10"/>
<path d="M-1.1543 96.8818C172.97 35.2321 364.649 1.27756 550.076 16.888C706.772 30.0968 862.597 91.772 1020.91 83.8519C1127.09 78.5377 1218.07 15.8405 1322.59 5.2121C1408.93 -3.57674 1490.43 35.5387 1566.4 71.3073C1688.24 128.716 1788.68 150.381 1921.03 113.208" stroke="url(#paint50_linear_229_2137)" stroke-miterlimit="10"/>
<path d="M-1.1543 73.2233C176.096 24.2204 365.341 1.40516 549.384 14.4096C702.979 25.2679 857.163 70.8728 1011.78 64.2556C1120.37 59.6057 1221.71 13.5665 1329.46 4.11335C1420.13 -3.83238 1505.27 27.6951 1589.59 56.7698C1702.85 95.8342 1802.65 110.372 1921.03 83.0852" stroke="url(#paint51_linear_229_2137)" stroke-miterlimit="10"/>
<path d="M-1.1543 49.5909C173.508 15.8663 354.449 2.55529 532.34 10.4755C687.243 17.3737 841.965 47.6237 997.303 43.5358C1116.22 40.4189 1232.24 8.81479 1350.91 2.65749C1435.59 -1.73693 1517.45 17.7058 1599.38 36.5865C1708.51 61.7267 1809.67 73.4281 1921.03 54.292" stroke="url(#paint52_linear_229_2137)" stroke-miterlimit="10"/>
<path d="M-1.1543 25.9324C172.124 8.04811 347.17 2.55508 521.346 6.46407C674.479 9.91319 827.536 25.1148 980.798 23.0709C1111.15 21.3336 1240.83 5.08443 1371.13 1.86526C1555.94 -2.70801 1735.65 45.835 1921.03 27.2354" stroke="url(#paint53_linear_229_2137)" stroke-miterlimit="10"/>
<path d="M-1.1543 2.27384C639.547 -1.25192 1280.32 6.13174 1921.03 2.27384" stroke="url(#paint54_linear_229_2137)" stroke-miterlimit="10"/>
<defs>
<linearGradient id="paint0_linear_229_2137" x1="959.936" y1="1277.2" x2="959.936" y2="1279.7" gradientUnits="userSpaceOnUse">
<stop stop-color="#333333"/>
<stop offset="1" stop-color="#333333" stop-opacity="0"/>
</linearGradient>
<linearGradient id="paint1_linear_229_2137" x1="959.936" y1="1210.34" x2="959.936" y2="1256.04" gradientUnits="userSpaceOnUse">
<stop stop-color="#333333"/>
<stop offset="1" stop-color="#333333" stop-opacity="0"/>
</linearGradient>
<linearGradient id="paint2_linear_229_2137" x1="959.936" y1="1148.64" x2="959.936" y2="1232.38" gradientUnits="userSpaceOnUse">
<stop stop-color="#333333"/>
<stop offset="1" stop-color="#333333" stop-opacity="0"/>
</linearGradient>
<linearGradient id="paint3_linear_229_2137" x1="959.949" y1="1089.03" x2="959.949" y2="1208.75" gradientUnits="userSpaceOnUse">
<stop stop-color="#333333"/>
<stop offset="1" stop-color="#333333" stop-opacity="0"/>
</linearGradient>
<linearGradient id="paint4_linear_229_2137" x1="959.936" y1="1037.53" x2="959.936" y2="1189.81" gradientUnits="userSpaceOnUse">
<stop stop-color="#333333"/>
<stop offset="1" stop-color="#333333" stop-opacity="0"/>
</linearGradient>
<linearGradient id="paint5_linear_229_2137" x1="959.936" y1="984.979" x2="959.936" y2="1174.68" gradientUnits="userSpaceOnUse">
<stop stop-color="#333333"/>
<stop offset="1" stop-color="#333333" stop-opacity="0"/>
</linearGradient>
<linearGradient id="paint6_linear_229_2137" x1="959.923" y1="938.024" x2="959.923" y2="1161.28" gradientUnits="userSpaceOnUse">
<stop stop-color="#333333"/>
<stop offset="1" stop-color="#333333" stop-opacity="0"/>
</linearGradient>
<linearGradient id="paint7_linear_229_2137" x1="959.936" y1="896.362" x2="959.936" y2="1149.17" gradientUnits="userSpaceOnUse">
<stop stop-color="#333333"/>
<stop offset="1" stop-color="#333333" stop-opacity="0"/>
</linearGradient>
<linearGradient id="paint8_linear_229_2137" x1="959.936" y1="854.86" x2="959.936" y2="1137.85" gradientUnits="userSpaceOnUse">
<stop stop-color="#333333"/>
<stop offset="1" stop-color="#333333" stop-opacity="0"/>
</linearGradient>
<linearGradient id="paint9_linear_229_2137" x1="959.936" y1="814.22" x2="959.936" y2="1126.93" gradientUnits="userSpaceOnUse">
<stop stop-color="#333333"/>
<stop offset="1" stop-color="#333333" stop-opacity="0"/>
</linearGradient>
<linearGradient id="paint10_linear_229_2137" x1="959.923" y1="777.114" x2="959.923" y2="1115.57" gradientUnits="userSpaceOnUse">
<stop stop-color="#333333"/>
<stop offset="1" stop-color="#333333" stop-opacity="0"/>
</linearGradient>
<linearGradient id="paint11_linear_229_2137" x1="959.936" y1="741.581" x2="959.936" y2="1103.9" gradientUnits="userSpaceOnUse">
<stop stop-color="#333333"/>
<stop offset="1" stop-color="#333333" stop-opacity="0"/>
</linearGradient>
<linearGradient id="paint12_linear_229_2137" x1="959.936" y1="707.543" x2="959.936" y2="1091.64" gradientUnits="userSpaceOnUse">
<stop stop-color="#333333"/>
<stop offset="1" stop-color="#333333" stop-opacity="0"/>
</linearGradient>
<linearGradient id="paint13_linear_229_2137" x1="959.949" y1="673.818" x2="959.949" y2="1078.18" gradientUnits="userSpaceOnUse">
<stop stop-color="#333333"/>
<stop offset="1" stop-color="#333333" stop-opacity="0"/>
</linearGradient>
<linearGradient id="paint14_linear_229_2137" x1="959.936" y1="650.267" x2="959.936" y2="1052.86" gradientUnits="userSpaceOnUse">
<stop stop-color="#333333"/>
<stop offset="1" stop-color="#333333" stop-opacity="0"/>
</linearGradient>
<linearGradient id="paint15_linear_229_2137" x1="959.949" y1="634.402" x2="959.949" y2="1019.97" gradientUnits="userSpaceOnUse">
<stop stop-color="#333333"/>
<stop offset="1" stop-color="#333333" stop-opacity="0"/>
</linearGradient>
<linearGradient id="paint16_linear_229_2137" x1="959.949" y1="618.662" x2="959.949" y2="990.697" gradientUnits="userSpaceOnUse">
<stop stop-color="#333333"/>
<stop offset="1" stop-color="#333333" stop-opacity="0"/>
</linearGradient>
<linearGradient id="paint17_linear_229_2137" x1="959.923" y1="600.305" x2="959.923" y2="964.952" gradientUnits="userSpaceOnUse">
<stop stop-color="#333333"/>
<stop offset="1" stop-color="#333333" stop-opacity="0"/>
</linearGradient>
<linearGradient id="paint18_linear_229_2137" x1="959.936" y1="582.253" x2="959.936" y2="942.763" gradientUnits="userSpaceOnUse">
<stop stop-color="#333333"/>
<stop offset="1" stop-color="#333333" stop-opacity="0"/>
</linearGradient>
<linearGradient id="paint19_linear_229_2137" x1="959.949" y1="561.875" x2="959.949" y2="923.049" gradientUnits="userSpaceOnUse">
<stop stop-color="#333333"/>
<stop offset="1" stop-color="#333333" stop-opacity="0"/>
</linearGradient>
<linearGradient id="paint20_linear_229_2137" x1="959.949" y1="541.084" x2="959.949" y2="907.085" gradientUnits="userSpaceOnUse">
<stop stop-color="#333333"/>
<stop offset="1" stop-color="#333333" stop-opacity="0"/>
</linearGradient>
<linearGradient id="paint21_linear_229_2137" x1="959.949" y1="518.913" x2="959.949" y2="892.523" gradientUnits="userSpaceOnUse">
<stop stop-color="#333333"/>
<stop offset="1" stop-color="#333333" stop-opacity="0"/>
</linearGradient>
<linearGradient id="paint22_linear_229_2137" x1="959.949" y1="493.865" x2="959.949" y2="877.637" gradientUnits="userSpaceOnUse">
<stop stop-color="#333333"/>
<stop offset="1" stop-color="#333333" stop-opacity="0"/>
</linearGradient>
<linearGradient id="paint23_linear_229_2137" x1="959.936" y1="467.07" x2="959.936" y2="860.029" gradientUnits="userSpaceOnUse">
<stop stop-color="#333333"/>
<stop offset="1" stop-color="#333333" stop-opacity="0"/>
</linearGradient>
<linearGradient id="paint24_linear_229_2137" x1="959.949" y1="441.561" x2="959.949" y2="836.38" gradientUnits="userSpaceOnUse">
<stop stop-color="#333333"/>
<stop offset="1" stop-color="#333333" stop-opacity="0"/>
</linearGradient>
<linearGradient id="paint25_linear_229_2137" x1="959.923" y1="416.146" x2="959.923" y2="805.561" gradientUnits="userSpaceOnUse">
<stop stop-color="#333333"/>
<stop offset="1" stop-color="#333333" stop-opacity="0"/>
</linearGradient>
<linearGradient id="paint26_linear_229_2137" x1="959.936" y1="383.957" x2="959.936" y2="764.531" gradientUnits="userSpaceOnUse">
<stop stop-color="#333333"/>
<stop offset="1" stop-color="#333333" stop-opacity="0"/>
</linearGradient>
<linearGradient id="paint27_linear_229_2137" x1="959.936" y1="347.534" x2="959.936" y2="709.978" gradientUnits="userSpaceOnUse">
<stop stop-color="#333333"/>
<stop offset="1" stop-color="#333333" stop-opacity="0"/>
</linearGradient>
<linearGradient id="paint28_linear_229_2137" x1="959.936" y1="330.705" x2="959.936" y2="683.037" gradientUnits="userSpaceOnUse">
<stop stop-color="#333333"/>
<stop offset="1" stop-color="#333333" stop-opacity="0"/>
</linearGradient>
<linearGradient id="paint29_linear_229_2137" x1="959.923" y1="318.25" x2="959.923" y2="653.673" gradientUnits="userSpaceOnUse">
<stop stop-color="#333333"/>
<stop offset="1" stop-color="#333333" stop-opacity="0"/>
</linearGradient>
<linearGradient id="paint30_linear_229_2137" x1="959.936" y1="309.261" x2="959.936" y2="623.856" gradientUnits="userSpaceOnUse">
<stop stop-color="#333333"/>
<stop offset="1" stop-color="#333333" stop-opacity="0"/>
</linearGradient>
<linearGradient id="paint31_linear_229_2137" x1="959.923" y1="302.516" x2="959.923" y2="602.172" gradientUnits="userSpaceOnUse">
<stop stop-color="#333333"/>
<stop offset="1" stop-color="#333333" stop-opacity="0"/>
</linearGradient>
<linearGradient id="paint32_linear_229_2137" x1="959.949" y1="303.038" x2="959.949" y2="584.351" gradientUnits="userSpaceOnUse">
<stop stop-color="#333333"/>
<stop offset="1" stop-color="#333333" stop-opacity="0"/>
</linearGradient>
<linearGradient id="paint33_linear_229_2137" x1="959.936" y1="296.856" x2="959.936" y2="569.862" gradientUnits="userSpaceOnUse">
<stop stop-color="#333333"/>
<stop offset="1" stop-color="#333333" stop-opacity="0"/>
</linearGradient>
<linearGradient id="paint34_linear_229_2137" x1="959.936" y1="288.982" x2="959.936" y2="564.67" gradientUnits="userSpaceOnUse">
<stop stop-color="#333333"/>
<stop offset="1" stop-color="#333333" stop-opacity="0"/>
</linearGradient>
<linearGradient id="paint35_linear_229_2137" x1="959.923" y1="278.195" x2="959.923" y2="555.919" gradientUnits="userSpaceOnUse">
<stop stop-color="#333333"/>
<stop offset="1" stop-color="#333333" stop-opacity="0"/>
</linearGradient>
<linearGradient id="paint36_linear_229_2137" x1="959.936" y1="263.479" x2="959.936" y2="547.258" gradientUnits="userSpaceOnUse">
<stop stop-color="#333333"/>
<stop offset="1" stop-color="#333333" stop-opacity="0"/>
</linearGradient>
<linearGradient id="paint37_linear_229_2137" x1="959.961" y1="229.855" x2="959.961" y2="538.238" gradientUnits="userSpaceOnUse">
<stop stop-color="#333333"/>
<stop offset="1" stop-color="#333333" stop-opacity="0"/>
</linearGradient>
<linearGradient id="paint38_linear_229_2137" x1="959.936" y1="191.423" x2="959.936" y2="527.684" gradientUnits="userSpaceOnUse">
<stop stop-color="#333333"/>
<stop offset="1" stop-color="#333333" stop-opacity="0"/>
</linearGradient>
<linearGradient id="paint39_linear_229_2137" x1="959.936" y1="153.694" x2="959.936" y2="515.284" gradientUnits="userSpaceOnUse">
<stop stop-color="#333333"/>
<stop offset="1" stop-color="#333333" stop-opacity="0"/>
</linearGradient>
<linearGradient id="paint40_linear_229_2137" x1="959.923" y1="117.794" x2="959.923" y2="498.867" gradientUnits="userSpaceOnUse">
<stop stop-color="#333333"/>
<stop offset="1" stop-color="#333333" stop-opacity="0"/>
</linearGradient>
<linearGradient id="paint41_linear_229_2137" x1="959.923" y1="84.2715" x2="959.923" y2="471.643" gradientUnits="userSpaceOnUse">
<stop stop-color="#333333"/>
<stop offset="1" stop-color="#333333" stop-opacity="0"/>
</linearGradient>
<linearGradient id="paint42_linear_229_2137" x1="959.936" y1="67.1533" x2="959.936" y2="435.276" gradientUnits="userSpaceOnUse">
<stop stop-color="#333333"/>
<stop offset="1" stop-color="#333333" stop-opacity="0"/>
</linearGradient>
<linearGradient id="paint43_linear_229_2137" x1="959.936" y1="52.916" x2="959.936" y2="398.071" gradientUnits="userSpaceOnUse">
<stop stop-color="#333333"/>
<stop offset="1" stop-color="#333333" stop-opacity="0"/>
</linearGradient>
<linearGradient id="paint44_linear_229_2137" x1="959.936" y1="39.6143" x2="959.936" y2="360.711" gradientUnits="userSpaceOnUse">
<stop stop-color="#333333"/>
<stop offset="1" stop-color="#333333" stop-opacity="0"/>
</linearGradient>
<linearGradient id="paint45_linear_229_2137" x1="959.949" y1="29.002" x2="959.949" y2="323.251" gradientUnits="userSpaceOnUse">
<stop stop-color="#333333"/>
<stop offset="1" stop-color="#333333" stop-opacity="0"/>
</linearGradient>
<linearGradient id="paint46_linear_229_2137" x1="959.923" y1="20.1953" x2="959.923" y2="284.861" gradientUnits="userSpaceOnUse">
<stop stop-color="#333333"/>
<stop offset="1" stop-color="#333333" stop-opacity="0"/>
</linearGradient>
<linearGradient id="paint47_linear_229_2137" x1="959.949" y1="14.2207" x2="959.949" y2="246.689" gradientUnits="userSpaceOnUse">
<stop stop-color="#333333"/>
<stop offset="1" stop-color="#333333" stop-opacity="0"/>
</linearGradient>
<linearGradient id="paint48_linear_229_2137" x1="959.936" y1="9.23535" x2="959.936" y2="208.997" gradientUnits="userSpaceOnUse">
<stop stop-color="#333333"/>
<stop offset="1" stop-color="#333333" stop-opacity="0"/>
</linearGradient>
<linearGradient id="paint49_linear_229_2137" x1="959.936" y1="6.03223" x2="959.936" y2="167.287" gradientUnits="userSpaceOnUse">
<stop stop-color="#333333"/>
<stop offset="1" stop-color="#333333" stop-opacity="0"/>
</linearGradient>
<linearGradient id="paint50_linear_229_2137" x1="959.936" y1="3.95996" x2="959.936" y2="131.628" gradientUnits="userSpaceOnUse">
<stop stop-color="#333333"/>
<stop offset="1" stop-color="#333333" stop-opacity="0"/>
</linearGradient>
<linearGradient id="paint51_linear_229_2137" x1="959.936" y1="2.86719" x2="959.936" y2="97.1076" gradientUnits="userSpaceOnUse">
<stop stop-color="#333333"/>
<stop offset="1" stop-color="#333333" stop-opacity="0"/>
</linearGradient>
<linearGradient id="paint52_linear_229_2137" x1="959.936" y1="2.0293" x2="959.936" y2="63.8012" gradientUnits="userSpaceOnUse">
<stop stop-color="#333333"/>
<stop offset="1" stop-color="#333333" stop-opacity="0"/>
</linearGradient>
<linearGradient id="paint53_linear_229_2137" x1="959.936" y1="1.55957" x2="959.936" y2="31.4998" gradientUnits="userSpaceOnUse">
<stop stop-color="#333333"/>
<stop offset="1" stop-color="#333333" stop-opacity="0"/>
</linearGradient>
<linearGradient id="paint54_linear_229_2137" x1="959.936" y1="1.29004" x2="959.936" y2="3.42367" gradientUnits="userSpaceOnUse">
<stop stop-color="#333333"/>
<stop offset="1" stop-color="#333333" stop-opacity="0"/>
</linearGradient>
</defs>
</svg>
