<svg width="123" height="49" viewBox="0 0 123 49" fill="none" xmlns="http://www.w3.org/2000/svg">
<path d="M14.1971 47.3267C13.1669 47.8677 12.0771 48.1947 10.9294 48.3183C9.77729 48.4402 8.76286 48.4998 7.87995 48.4998C6.11675 48.4998 4.57625 48.0237 3.2532 47.0698C1.93453 46.1132 1.27344 44.535 1.27344 42.3335C1.27344 40.2774 1.86965 38.8079 3.07083 37.9276C4.27026 37.0447 5.79848 36.4599 7.66163 36.1644C7.90537 36.1644 8.19822 36.1276 8.54104 36.0575C8.88386 35.983 9.27578 35.9216 9.71679 35.8716C11.8693 35.577 12.9468 34.9422 12.9468 33.9629C12.9468 33.2264 12.5654 32.7503 11.807 32.532C11.0504 32.311 10.3507 32.1997 9.71592 32.1997C9.0294 32.1997 8.41829 32.2987 7.87907 32.4943C7.33985 32.6898 6.94881 33.0572 6.70682 33.5955H1.78635C1.98012 32.0787 2.66664 30.8301 3.84327 29.8508C5.16282 28.725 7.04701 28.1621 9.49497 28.1621C12.2367 28.1621 14.2927 28.6268 15.664 29.5562C17.0835 30.5373 17.7928 31.9068 17.7928 33.6674V40.3493C17.7928 42.308 17.4368 43.838 16.7275 44.9384C16.0182 46.0422 15.1739 46.8383 14.1971 47.3267ZM13.0205 38.2976C12.334 38.6396 11.3792 38.957 10.1561 39.2507L8.46739 39.6172C7.58623 39.8618 6.94969 40.1801 6.55865 40.5703C6.2167 41.1112 6.04573 41.6487 6.04573 42.187C6.04573 42.9209 6.2658 43.5083 6.7077 43.9502C7.14696 44.3421 7.7835 44.535 8.61556 44.535C9.98509 44.535 11.0609 44.144 11.8456 43.3619C12.6259 42.5781 13.0196 41.5031 13.0196 40.131V38.2976H13.0205Z" fill="#262424"/>
<path d="M38.2771 48.1353H33.2119V36.6811V35.6535C33.2119 34.4777 32.8577 33.622 32.1458 33.0819C31.4373 32.5436 30.6404 32.2735 29.7609 32.2735C28.8807 32.2735 28.0959 32.5436 27.4112 33.0819C26.7264 33.6211 26.3827 34.4769 26.3827 35.6535V48.1353H21.2422V36.6811C21.2422 33.3519 22.1111 31.1249 23.8506 30C25.5875 28.8743 27.5094 28.2631 29.6154 28.1641C30.7394 28.1641 31.8398 28.2859 32.9182 28.5288C33.994 28.7769 34.9734 29.2635 35.8545 30C36.5893 29.3644 37.4582 28.9111 38.4621 28.6402C39.4634 28.3719 40.5032 28.214 41.5816 28.1641C43.7359 28.1641 45.7183 28.727 47.5288 29.8527C49.3402 30.9811 50.246 33.2555 50.246 36.6819V48.1362H47.6761C46.9431 48.1362 46.3425 47.9029 45.877 47.44C45.4123 46.9735 45.1791 46.373 45.1791 45.6391V35.6526C45.1791 34.4769 44.824 33.6211 44.1147 33.081C43.4045 32.5427 42.6092 32.2726 41.7298 32.2726C40.8469 32.2726 40.0517 32.5427 39.3424 33.081C38.633 33.6202 38.2762 34.476 38.2762 35.6526V36.6802V48.1353H38.2771Z" fill="#262424"/>
<path d="M73.7434 46.5255C73.6758 47.2401 73.298 48.2791 71.7005 48.2791C71.3357 48.2791 69.3604 48.2449 69.3604 45.8574C69.3604 43.9153 70.48 43.2744 71.6531 43.2744C73.2716 43.2744 73.6355 44.266 73.6767 44.9412H72.8201C72.7657 44.5492 72.5369 43.9899 71.6531 43.9899C70.601 43.9899 70.2836 44.8456 70.2836 45.8241C70.2836 46.9306 70.8912 47.5645 71.7399 47.5645C72.522 47.5645 72.8596 47.0314 72.8867 46.5264L73.7434 46.5255Z" fill="#262424"/>
<path d="M74.3008 44.1305V43.415H78.1314V44.1305H76.6479V48.1365H75.7852V44.1305H74.3008Z" fill="#262424"/>
<path d="M80.8445 43.416C81.5862 43.416 82.6796 43.5379 82.6796 44.8802C82.6796 45.736 82.2008 46.3979 80.8383 46.3979H79.8265V48.1375H78.9629V43.416H80.8445ZM79.8265 45.6816H80.8313C81.2294 45.6816 81.7887 45.6281 81.7887 44.9197C81.7887 44.1718 81.1689 44.1315 80.8383 44.1315H79.8265V45.6816Z" fill="#262424"/>
<path d="M83.6772 48.1365H82.7539L84.5338 43.415H85.3974L87.1781 48.1365H86.254L85.9103 47.1457H84.0217L83.6772 48.1365ZM85.6806 46.4303L84.966 44.3339L84.2514 46.4303H85.6806Z" fill="#262424"/>
<path d="M90.9497 43.416H92.029L90.4438 45.7228L92.15 48.1375H91.0374L89.9046 46.3155L88.7718 48.1375H87.6592L89.3654 45.7228L87.7811 43.416H88.8604L89.9055 45.1231L90.9497 43.416Z" fill="#262424"/>
<path d="M94.9672 43.2744C95.3784 43.2744 97.281 43.3297 97.281 45.7776C97.281 48.2256 95.3793 48.2799 94.9672 48.2799C94.556 48.2799 92.6543 48.2264 92.6543 45.7776C92.6543 43.3297 94.556 43.2744 94.9672 43.2744ZM94.9672 47.5636C96.1342 47.5636 96.3569 46.5045 96.3569 45.7767C96.3569 45.0481 96.1342 43.989 94.9672 43.989C93.8002 43.989 93.5784 45.0481 93.5784 45.7767C93.5784 46.5053 93.8011 47.5636 94.9672 47.5636Z" fill="#262424"/>
<path d="M100.686 43.416C101.887 43.416 102.122 44.0911 102.122 44.6102C102.122 45.1292 101.799 45.5404 101.34 45.6229V45.636C101.731 45.7035 102.319 45.9727 102.319 46.8153C102.319 48.0094 101.3 48.1375 100.592 48.1375H98.4609V43.416H100.686ZM99.3237 45.3309H100.463C100.942 45.3309 101.232 45.1818 101.232 44.7715C101.232 44.1437 100.626 44.1306 100.443 44.1306H99.3237V45.3309ZM99.3237 47.422H100.504C101.03 47.422 101.428 47.294 101.428 46.7215C101.428 46.0876 100.882 46.0463 100.525 46.0463H99.3246L99.3237 47.422Z" fill="#262424"/>
<path d="M103.76 48.1365H102.836L104.616 43.415H105.479L107.259 48.1365H106.335L105.991 47.1457H104.103L103.76 48.1365ZM105.763 46.4303L105.049 44.3339L104.334 46.4303H105.763Z" fill="#262424"/>
<path d="M108.896 48.1365H108.033V43.415H108.896V45.3036H111V43.415H111.863V48.1365H111V46.0182H108.896V48.1365Z" fill="#262424"/>
<path d="M116.226 43.416H117.069V48.1375H116.206V44.6847L113.961 48.1375H113.117V43.416H113.981V46.8688L116.226 43.416Z" fill="#262424"/>
<path d="M121.755 45.358V46.0734H119.355V47.421H122.106V48.1365H118.491V43.415H122.032V44.1305H119.354V45.358H121.755Z" fill="#262424"/>
<path d="M0 0.5C0 0.5 5.07303 2.40173 12.843 2.5613C20.6121 2.71912 36.2749 0.440379 43.9028 1.51969C51.0933 2.53938 61.2805 6.39544 66.5947 19.135C66.5947 19.135 60.9088 14.8537 51.0556 14.6117C44.2378 14.4469 37.5839 14.7011 32.6634 14.2943C27.1538 13.8454 21.1172 11.4772 19.8108 10.1489C19.8108 10.1489 24.0684 10.5435 29.6491 9.85433C36.9491 8.95475 40.273 8.74696 40.273 8.74696C40.273 8.74696 35.6383 6.12978 26.4813 6.04912C19.1847 5.98599 8.08563 7.0013 0 0.5Z" fill="#234A8C"/>
<path d="M54.6689 2.89185C54.6689 2.89185 58.0752 4.4718 61.3649 7.82722C61.3649 7.82722 66.9122 5.9439 72.9357 5.46782C78.9618 4.99173 85.5499 5.18286 90.1661 4.72694C95.8766 4.16493 102.113 0.5 102.113 0.5C102.113 0.5 96.2466 1.61 89.4314 1.4513C82.6066 1.29348 69.0902 0.5 54.6689 2.89185Z" fill="#234A8C"/>
<path d="M68.9468 29.2863C68.4356 28.7725 67.8105 28.5156 67.0775 28.5156H52.1074V30.313C52.1074 31.0478 52.3652 31.6729 52.8799 32.1858C53.391 32.7014 54.017 32.9565 54.7491 32.9565L58.2694 32.9942V48.1344H63.4853V32.9951H69.7192V31.1582C69.7192 30.4252 69.4615 29.801 68.9468 29.2863Z" fill="#262424"/>
</svg>
