<svg width="199" height="49" viewBox="0 0 199 49" fill="none" xmlns="http://www.w3.org/2000/svg">
<path d="M31.223 27.5041C29.5367 31.2922 25.8274 33.9207 21.5201 33.9207C15.624 33.9207 10.8474 29.0062 10.8474 22.9456C10.8474 16.8809 15.624 11.9651 21.5201 11.9651C25.8274 11.9651 29.5367 14.5961 31.223 18.3762V5.52183C28.3639 3.8351 25.0552 2.86133 21.5201 2.86133C10.7408 2.86133 2 11.8527 2 22.9456C2 34.033 10.7408 43.0258 21.5201 43.0258C25.0552 43.0258 28.3639 42.056 31.223 40.3653V27.5041Z" fill="#3CB3E7"/>
<path d="M31.2305 42.433H41.0477V2.26855H31.2305V42.433Z" fill="#1D4382"/>
<circle cx="47.9596" cy="38.7545" r="4.87171" fill="#1D4382"/>
<path d="M152.447 20.0087V11.1872H148.834V8.34473H159.318V11.1872H155.705V20.0087H152.447Z" fill="#1D4382"/>
<path fill-rule="evenodd" clip-rule="evenodd" d="M135.882 12.7586C136.491 9.61259 139.132 8.00879 142.009 8.00879C145.315 8.00879 148.268 10.0955 148.268 14.1792C148.268 18.2616 145.315 20.3536 142.009 20.3536C139.132 20.3536 136.491 18.7457 135.882 15.5997H134.091V20.0112H130.809V8.34854H134.091V12.7586H135.882ZM139.107 14.1789C139.107 15.9767 140.147 17.6848 142.014 17.6848C143.904 17.6848 144.94 15.9767 144.94 14.1789C144.94 12.3811 143.904 10.673 142.014 10.673C140.147 10.673 139.107 12.3811 139.107 14.1789Z" fill="#1D4382"/>
<path d="M124.863 8.34473H122.545H119.246H119.213L117.951 15.7163C117.778 16.7235 117.083 17.3148 116.153 17.1462V20.0422C116.209 20.0555 116.265 20.0689 116.324 20.0782C118.959 20.5585 120.704 19.0937 121.176 16.329L122.057 11.1872H124.863V20.0087H128.148V11.1872V8.34473H124.863Z" fill="#1D4382"/>
<path fill-rule="evenodd" clip-rule="evenodd" d="M115.408 14.2348C115.408 10.1511 112.456 8.06445 109.148 8.06445C105.865 8.06445 102.889 10.1511 102.889 14.2348C102.889 18.3172 105.865 20.4092 109.148 20.4092C112.456 20.4092 115.408 18.3172 115.408 14.2348ZM106.243 14.2292C106.243 12.4315 107.283 10.7234 109.148 10.7234C111.037 10.7234 112.076 12.4315 112.076 14.2292C112.076 16.027 111.037 17.7351 109.148 17.7351C107.283 17.7351 106.243 16.027 106.243 14.2292Z" fill="#1D4382"/>
<path fill-rule="evenodd" clip-rule="evenodd" d="M81.0954 9.71705C82.025 9.19271 83.0911 8.865 84.1858 8.865C87.3984 8.865 90.2652 10.7858 90.2652 14.5445C90.2652 18.3018 87.3984 20.2266 84.1858 20.2266C80.8419 20.2266 78.0376 18.0744 78.0376 14.1018C77.8451 9.7652 79.3052 6.7596 81.2554 5.47147C82.7096 4.51242 84.6237 4.15168 86.2493 3.8453C87.6233 3.58634 88.7915 3.36621 89.3018 2.85645V5.7283C89.0117 6.22718 87.724 6.47948 86.2954 6.75939C85.3109 6.9523 84.2594 7.15831 83.4213 7.46718C82.0979 7.95676 81.4179 8.82486 81.0954 9.71705ZM81.1225 14.5379C81.1225 16.1924 82.1719 17.5848 84.0613 17.5848C85.974 17.5848 87.0247 16.1924 87.0247 14.5379C87.0247 12.8818 85.974 11.3449 84.0613 11.3449C82.1719 11.3449 81.1225 12.8818 81.1225 14.5379Z" fill="#1D4382"/>
<path fill-rule="evenodd" clip-rule="evenodd" d="M77.7766 19.8682H74.1142C74.1142 19.8682 73.4746 18.1627 72.6594 15.9636H65.5906C64.7676 18.1627 64.1254 19.8682 64.1254 19.8682H60.4629L67.2197 2.85645H71.0472L77.7766 19.8682ZM69.1338 6.23323C69.0753 6.55426 67.8699 9.84879 66.6528 13.1166H71.6031C70.3939 9.84879 69.1923 6.55426 69.1338 6.23323Z" fill="#1D4382"/>
<path d="M98.3306 8.06836C99.58 8.06836 100.694 8.3613 101.711 8.92042V11.6679C100.905 11.0833 99.8894 10.7596 98.7999 10.7596C97.007 10.7596 95.2804 11.9086 95.2804 14.2655C95.2804 16.502 96.9849 17.7714 98.7518 17.7714C99.9583 17.7714 101.002 17.4463 101.827 16.8899V19.6614C100.72 20.1457 99.5566 20.4399 98.1173 20.4399C95.0217 20.4399 91.9287 18.5914 91.9287 14.4367C91.9287 9.96509 95.1842 8.06836 98.3306 8.06836Z" fill="#1D4382"/>
<path fill-rule="evenodd" clip-rule="evenodd" d="M156.923 31.427V33.2983C155.945 32.1533 154.605 31.1475 152.513 31.1475C149.396 31.1475 147.059 33.6729 147.059 37.041C147.059 40.4091 149.396 42.9332 152.513 42.9332C154.605 42.9332 155.945 41.9286 156.741 40.9681V42.6535H158.558V31.427H156.923ZM152.718 41.1918C150.605 41.1918 148.876 39.6014 148.876 37.0292C148.876 34.4556 150.605 32.8665 152.718 32.8665C154.674 32.8665 156.128 34.1747 156.741 35.626V38.4337C156.128 39.8823 154.674 41.1918 152.718 41.1918Z" fill="#3CB3E7"/>
<path d="M122.07 31.415L118.068 36.8658L122.296 42.6416H120.205L117.021 38.1981L113.817 42.6416H111.725L115.976 36.8658L111.953 31.415H114.043L117.021 35.5563L119.98 31.415H122.07Z" fill="#3CB3E7"/>
<path fill-rule="evenodd" clip-rule="evenodd" d="M133.986 37.041C133.986 33.206 131.144 31.1475 128.166 31.1475C125.213 31.1475 122.348 33.206 122.348 37.041C122.348 40.8772 125.213 42.9332 128.166 42.9332C131.144 42.9332 133.986 40.8772 133.986 37.041ZM124.165 37.0405C124.165 34.4442 125.937 32.9247 128.164 32.9247C130.392 32.9247 132.166 34.4442 132.166 37.0405C132.166 39.6368 130.392 41.1563 128.164 41.1563C125.937 41.1563 124.165 39.6368 124.165 37.0405Z" fill="#3CB3E7"/>
<path fill-rule="evenodd" clip-rule="evenodd" d="M136.029 31.415V42.6429H142.189C144.553 42.6429 145.711 41.3776 145.711 39.5316C145.711 38.1285 144.802 37.239 143.916 36.934C144.736 36.5622 145.371 35.6272 145.371 34.4568C145.371 32.4677 143.916 31.415 142.006 31.415H136.029ZM137.843 36.1635H141.821C142.775 36.1635 143.527 35.7889 143.527 34.6426C143.527 33.3786 142.592 33.0495 141.821 33.0495H137.843V36.1635ZM137.843 41.01H141.937C143.072 41.01 143.891 40.6596 143.891 39.4197C143.891 38.0834 142.912 37.7838 142.002 37.7838H137.843V41.01Z" fill="#3CB3E7"/>
<path d="M161.306 42.6416V31.415H163.123V36.1636H169.442V31.415H171.26V42.6416H169.442V37.8931H163.123V42.6416H161.306Z" fill="#3CB3E7"/>
<path d="M173.821 42.6416V31.415H175.636V39.6239L182.32 31.415H183.865V42.6416H182.048V34.4314L175.367 42.6416H173.821Z" fill="#3CB3E7"/>
<path fill-rule="evenodd" clip-rule="evenodd" d="M196.519 37.8534C197.202 34.67 195.656 31.1387 191.45 31.1387C188.86 31.1387 186.019 33.1036 186.019 37.0322C186.019 41.0316 188.837 42.9256 192.065 42.9256C193.499 42.9256 194.929 42.6461 195.93 42.1071V40.2826C194.995 40.8203 193.68 41.1962 192.337 41.1962C190.132 41.1962 188.064 40.2144 187.837 37.8534H196.519ZM187.838 36.2004C187.976 34.004 189.702 32.8577 191.566 32.8577C194.339 32.8577 195.068 35.0086 194.908 36.2004H187.838Z" fill="#3CB3E7"/>
<path d="M68.828 25.418C70.4206 25.418 71.9665 25.7925 73.3096 26.5161V28.4811C72.1498 27.6865 70.6456 27.2879 69.1478 27.2879C65.8494 27.2879 62.4184 29.3224 62.3963 34.0014C62.3729 38.374 65.9183 40.4807 69.2167 40.4807C70.8523 40.4807 72.3267 40.0835 73.4213 39.2863V41.2499C72.1017 41.9521 70.5117 42.3494 68.8046 42.3494C64.8054 42.3494 60.4409 39.4509 60.463 34.0014C60.4864 28.3192 64.691 25.418 68.828 25.418Z" fill="#3CB3E7"/>
<path d="M76.9211 42.6104V33.1133H72.8984V31.3838H82.7444V33.1133H78.7412V42.6104H76.9211Z" fill="#3CB3E7"/>
<path fill-rule="evenodd" clip-rule="evenodd" d="M96.8391 36.536C96.8391 33.1693 94.4963 30.6426 91.3825 30.6426C89.2932 30.6426 87.9527 31.6485 86.975 32.7934V30.9221H85.3369V47.2945H87.1545V40.4647C87.9527 41.4251 89.2932 42.4296 91.3825 42.4296C94.4963 42.4296 96.8391 39.9042 96.8391 36.536ZM87.1505 35.1404C87.7655 33.6891 89.2177 32.3796 91.1731 32.3796C93.2884 32.3796 95.015 33.97 95.015 36.5422C95.015 39.1145 93.2884 40.7062 91.1731 40.7062C89.2177 40.7062 87.7655 39.3953 87.1505 37.9467V35.1404Z" fill="#3CB3E7"/>
<path fill-rule="evenodd" clip-rule="evenodd" d="M107.639 30.9221V32.7935C106.661 31.6485 105.318 30.6426 103.229 30.6426C100.113 30.6426 97.7725 33.168 97.7725 36.5361C97.7725 39.9042 100.113 42.4282 103.229 42.4282C105.318 42.4282 106.661 41.4237 107.457 40.4633V42.1487H109.275V30.9221H107.639ZM103.442 40.7028C101.327 40.7028 99.5976 39.1123 99.5976 36.5401C99.5976 33.9666 101.327 32.3775 103.442 32.3775C105.395 32.3775 106.85 33.6857 107.465 35.137V37.9446C106.85 39.3933 105.395 40.7028 103.442 40.7028Z" fill="#3CB3E7"/>
</svg>
