<svg width="200" height="49" viewBox="0 0 200 49" fill="none" xmlns="http://www.w3.org/2000/svg">
<path d="M30.545 2.5H14.1604C7.52018 2.5 2.12207 8.41935 2.12207 15.6927V33.6521C2.12207 40.9245 7.52018 46.8448 14.1604 46.8448H30.5442C37.1785 46.8448 42.5791 40.9245 42.5791 33.6521V15.6927C42.58 8.41935 37.1793 2.5 30.545 2.5Z" fill="#E31836"/>
<path d="M35.1229 30.1233L35.1078 30.3209C35.0502 31.0903 34.6103 31.8689 33.88 31.8689C33.3215 31.8689 32.8725 31.642 32.506 31.1772C32.0661 30.6219 31.6705 29.9549 31.2698 28.7463C32.4042 24.5259 35.9041 11.0066 35.9041 11.0066H29.2623C29.2623 11.0066 28.6488 14.1767 28.0954 17.0604C28.0678 16.99 28.0394 16.9205 28.0102 16.8537C27.4568 15.5573 26.5728 14.1163 25.5912 13.1035C23.8801 11.3405 21.8675 10.4814 19.4377 10.4814C16.0838 10.4814 13.2466 11.841 11.0045 14.5234C8.77335 17.1894 7.59473 20.6102 7.59473 24.4143C7.59473 28.6512 8.71408 32.1314 10.9211 34.7535C13.2232 37.4936 15.9761 38.7699 19.5821 38.7699C21.6831 38.7699 23.6881 38.0856 25.547 36.7379C26.7481 35.8688 27.8441 34.6648 28.88 33.1012C29.3149 34.6446 29.7531 35.6995 30.2773 36.4891C31.1254 37.7635 32.3958 38.4936 33.7623 38.4936C35.1846 38.4936 36.4801 37.6949 37.1454 36.4113C37.7347 35.2723 37.9751 33.8588 37.9751 31.534V30.1233H35.1229ZM23.9894 32.8258C22.9827 34.4415 21.6681 35.2942 20.1873 35.2942C18.4619 35.2942 17.1572 34.447 16.1965 32.6959C15.189 30.8625 14.679 28.1151 14.679 24.5278C14.679 21.2387 15.2199 18.6249 16.2858 16.7585C17.2875 15.0065 18.5429 14.1886 20.2357 14.1886C21.7423 14.1886 22.9185 14.8748 23.941 16.3532C25.037 17.9396 25.9635 20.5608 26.6271 23.9304C25.7941 28.4856 24.9794 31.2394 23.9894 32.8258Z" fill="white"/>
<path d="M62.8377 11.6448C62.3786 9.37866 61.0748 7.7959 58.2134 7.7959C55.5214 7.7959 54.0465 9.37866 53.5874 11.6448L51.5098 21.9026H53.7309C54.2376 21.9026 54.7418 21.4598 54.8503 20.9173L55.2702 18.8304H61.1558L61.5764 20.9173C61.685 21.4589 62.1883 21.9026 62.695 21.9026H64.917L62.8377 11.6448ZM55.852 15.9393L56.584 12.3063C56.7017 11.719 57.1191 10.8214 58.2142 10.8214C59.3085 10.8214 59.7251 11.718 59.8444 12.3063L60.5756 15.9393H55.852Z" fill="#E31836"/>
<path d="M70.3918 11.2261H75.3467V21.9065H78.4134V8.13281H69.1639C68.1531 8.13281 67.3234 9.04038 67.3234 10.1501V17.1106C67.3234 18.042 66.9319 18.6349 66.2516 18.784L65.623 18.9487L66.1923 21.9074H66.7758C68.8743 21.9074 70.3918 20.1957 70.3918 17.2845V11.2261Z" fill="#E31836"/>
<path d="M105.072 8.13231H103.955V6.53125H101.808C101.301 6.53125 100.887 6.98229 100.887 7.53855V8.13231H99.7694C95.9782 8.13231 93.6084 10.9648 93.6084 15.0187C93.6084 19.0735 95.9782 21.906 99.7694 21.906H100.887V23.5757H103.034C103.541 23.5757 103.955 23.1219 103.955 22.5693V21.906H105.072C108.864 21.906 111.233 19.0735 111.233 15.0187C111.233 10.9648 108.864 8.13231 105.072 8.13231ZM99.7694 18.864C97.6693 18.864 96.676 17.4075 96.676 15.0187C96.676 12.6317 97.6693 11.1752 99.7694 11.1752H100.887V18.864H99.7694ZM105.072 18.864H103.955V11.1752H105.072C107.173 11.1752 108.163 12.6317 108.163 15.0187C108.163 17.4075 107.173 18.864 105.072 18.864Z" fill="#E31836"/>
<path d="M87.9308 11.624H83.5285V8.13281H80.4609V20.8974C80.4609 21.4518 80.8758 21.9056 81.3816 21.9056H87.9308C90.6053 21.9056 92.6186 19.697 92.6186 16.7648C92.6186 13.8335 90.9291 11.624 87.9308 11.624ZM87.9308 18.8133H83.5285V14.7164H87.9308C88.6787 14.7164 89.5518 15.4501 89.5518 16.7639C89.5518 18.0768 88.6787 18.8133 87.9308 18.8133Z" fill="#E31836"/>
<path d="M122.671 11.6448C122.211 9.37866 120.908 7.7959 118.045 7.7959C115.356 7.7959 113.88 9.37866 113.419 11.6448L111.342 21.9026H113.565C114.07 21.9026 114.575 21.4598 114.682 20.9173L115.102 18.8304H120.989L121.408 20.9173C121.516 21.4589 122.02 21.9026 122.526 21.9026H124.747L122.671 11.6448ZM115.686 15.9393L116.414 12.3063C116.535 11.719 116.952 10.8214 118.045 10.8214C119.141 10.8214 119.555 11.718 119.676 12.3063L120.407 15.9393H115.686Z" fill="#E31836"/>
<path d="M140.452 34.0873C140.993 33.5036 141.341 32.7086 141.341 31.6061C141.341 29.1652 139.615 27.458 137.387 27.458H129.887C129.381 27.458 128.967 27.9109 128.967 28.4662V40.2235C128.967 40.7779 129.381 41.2317 129.887 41.2317L137.86 41.2335C140.21 41.2335 141.77 39.3909 141.77 36.95C141.77 35.7213 141.237 34.7588 140.452 34.0873ZM137.383 30.317C137.791 30.317 138.349 30.8184 138.349 31.6747C138.349 32.5375 137.791 32.9775 137.383 33.0315H131.973V30.3161L137.383 30.317ZM137.629 38.3754H131.972V35.6582H137.629C138.038 35.7131 138.594 36.1522 138.594 37.0159C138.594 37.8713 138.038 38.3754 137.629 38.3754Z" fill="#E31836"/>
<path d="M120.185 27.1406C116.393 27.1406 113.742 30.1003 113.742 34.3445C113.742 38.5868 116.392 41.5492 120.185 41.5492H121.235C125.028 41.5492 127.679 38.5868 127.679 34.3445C127.679 30.1003 125.029 27.1406 121.235 27.1406H120.185ZM117.056 34.3445C117.056 31.8743 118.256 29.9859 120.371 29.9859H121.052C123.164 29.9859 124.364 31.8743 124.364 34.3445C124.364 36.8147 123.164 38.7049 121.052 38.7049H120.371C118.256 38.7039 117.056 36.8147 117.056 34.3445Z" fill="#E31836"/>
<path d="M62.9365 27.458L63.3405 29.5412C63.4482 30.0966 63.9507 30.5494 64.4565 30.5494H67.3163V41.2308H70.3847V30.5503H73.1551C73.6601 30.5503 74.1618 30.0975 74.2686 29.5421L74.6726 27.4589H62.9365" fill="#E31836"/>
<path d="M166.271 27.458V32.9272H160.303V27.458H157.234V41.2317H160.303V35.8814H166.271V41.2317H169.339V27.458H166.271Z" fill="#E31836"/>
<path d="M98.6425 30.976C98.1826 28.7089 96.8813 27.1279 94.0174 27.1279C91.3296 27.1279 89.853 28.7098 89.3947 30.976L87.3154 41.2319H89.5374C90.0441 41.2319 90.5475 40.7909 90.6568 40.2484L91.0758 38.1606H96.9597L97.3796 40.2484C97.4873 40.7909 97.9923 41.2319 98.499 41.2319H100.72L98.6425 30.976ZM91.6585 35.2686L92.3888 31.6356C92.5074 31.0492 92.9239 30.1507 94.019 30.1507C95.1142 30.1507 95.5307 31.0492 95.6501 31.6374L96.3804 35.2677H91.6585V35.2686Z" fill="#E31836"/>
<path d="M153.803 30.976C153.342 28.7089 152.04 27.1279 149.177 27.1279C146.486 27.1279 145.012 28.7098 144.552 30.976L142.475 41.2319H144.697C145.202 41.2319 145.707 40.7909 145.814 40.2484L146.236 38.1606H152.121L152.542 40.2484C152.651 40.7909 153.154 41.2319 153.659 41.2319H155.883L153.803 30.976ZM146.815 35.2686L147.547 31.6356C147.668 31.0492 148.083 30.1507 149.177 30.1507C150.27 30.1507 150.688 31.0492 150.808 31.6374L151.538 35.2677H146.815V35.2686Z" fill="#E31836"/>
<path d="M63.8923 41.1933V41.2326H57.899C54.2705 41.2326 51.7363 38.401 51.7363 34.3444C51.7363 30.2896 54.2714 27.458 57.899 27.458H62.4457L62.0008 29.5687C61.8873 30.1103 61.3798 30.5503 60.8731 30.5503H57.899C55.96 30.5503 54.8039 32.1368 54.8039 34.3453C54.8039 36.5529 55.9592 38.1403 57.899 38.1403H62.3289C62.8339 38.1403 63.3422 38.5813 63.4558 39.1229L63.8923 41.1933Z" fill="#E31836"/>
<path d="M82.8978 27.458L76.3494 27.4589C75.8419 27.4589 75.4287 27.9127 75.4287 28.4671V41.2326H78.4971V37.7386H82.8978C85.8994 37.7386 87.588 35.5292 87.588 32.5997C87.588 29.6693 85.5722 27.458 82.8978 27.458ZM82.8978 34.6472H78.4971V30.554H82.8978C83.6465 30.554 84.5204 31.2868 84.5204 32.6006C84.5204 33.9126 83.6465 34.6472 82.8978 34.6472Z" fill="#E31836"/>
<path d="M195.346 38.3251H188.738V35.6801H195.921V33.0233H188.738V30.3655H195.346C195.89 30.3655 196.32 30.1039 196.47 29.3829L196.879 27.458H186.591C186.086 27.458 185.67 27.9109 185.67 28.4662V40.2235C185.67 40.7779 186.085 41.2335 186.591 41.2335H196.879L196.47 39.3086C196.32 38.5886 195.891 38.3251 195.346 38.3251Z" fill="#E31836"/>
<path d="M171.445 41.2317V27.458H174.514V36.5456L179.828 28.2704C180.128 27.824 180.785 27.458 181.295 27.458H183.57V41.2317H180.5V32.145L175.184 40.4193C174.886 40.8657 174.227 41.2317 173.72 41.2317H171.445Z" fill="#E31836"/>
<path d="M109.973 34.2712L114.255 27.458H111.437C110.829 27.458 110.4 27.6611 110.024 28.3079L107.743 32.2347H107.334L105.052 28.3079C104.677 27.6602 104.249 27.458 103.638 27.458H100.729L105.102 34.4167L100.82 41.2308H103.638C104.249 41.2308 104.677 41.0295 105.052 40.3808L107.334 36.4532H107.743L110.024 40.3808C110.4 41.0295 110.829 41.2308 111.437 41.2308H114.346L109.973 34.2712Z" fill="#E31836"/>
</svg>
