<svg width="237" height="49" viewBox="0 0 237 49" fill="none" xmlns="http://www.w3.org/2000/svg">
<path d="M126.142 32.7089C126.228 34.0865 126.297 34.8779 126.33 35.102C126.452 35.8589 126.657 36.4951 126.933 37.0296C127.121 37.3745 127.431 37.6848 127.862 37.9607C128.293 38.2348 128.809 38.3728 129.411 38.3728C130.135 38.3728 130.737 38.1159 131.237 37.5986C131.718 37.0814 132.08 36.2555 132.304 35.1537C132.442 34.4313 132.511 33.2433 132.528 31.5726C132.528 29.5415 132.235 28.095 131.649 27.2518C131.064 26.4087 130.29 25.9777 129.326 25.9777C128.55 25.9777 127.931 26.219 127.431 26.7018C126.933 27.1656 126.588 27.8881 126.383 28.8174C126.245 29.4398 126.176 30.7295 126.142 32.7089ZM134.3 26.926C134.938 27.6139 135.402 28.4225 135.713 29.3174C136.021 30.214 136.176 31.0571 136.176 31.8485C136.176 33.364 135.971 34.5503 135.557 35.4641C134.938 36.8572 134.094 37.8728 133.062 38.528C132.011 39.1814 130.788 39.509 129.411 39.509C127.862 39.4918 126.554 39.0952 125.469 38.3211C124.402 37.5297 123.628 36.6331 123.162 35.6348C122.716 34.6537 122.492 33.414 122.492 31.9347C122.492 31.1933 122.612 30.4381 122.835 29.6967C123.059 28.9381 123.352 28.2846 123.731 27.7329C124.126 27.1656 124.54 26.7018 125.005 26.3225C125.674 25.788 126.347 25.4104 127.019 25.1863C127.69 24.9621 128.499 24.8414 129.447 24.8414C131.53 24.8587 133.147 25.5483 134.3 26.926ZM109.357 35.6348C109.391 35.7727 109.426 35.8762 109.426 35.9451C109.527 36.4624 109.683 36.8245 109.838 37.0296C110.148 37.4434 110.51 37.7021 110.905 37.84C111.49 38.0279 112.007 38.1331 112.455 38.1331C112.971 38.1331 113.488 38.0107 113.969 37.771C114.469 37.5297 114.864 37.2021 115.157 36.7883C115.191 36.7193 115.26 36.6503 115.347 36.5486C115.416 36.3762 115.467 36.2382 115.502 36.152C115.898 35.2744 116.105 34.3434 116.105 33.364C116.121 31.5554 115.64 30.0398 114.693 28.7846C114.038 27.907 113.091 27.4587 111.869 27.4587C111.146 27.4587 110.321 27.6639 109.391 28.0777C109.372 28.526 109.357 29.7484 109.357 31.7623L109.372 34.9813C109.372 35.0675 109.357 35.2917 109.357 35.6348ZM103.676 47.6161L103.691 46.8419C103.865 46.723 103.984 46.6368 104.07 46.6023L105.207 46.1368C105.689 45.9126 105.948 45.7574 106.017 45.6195C106.17 45.2936 106.241 44.7074 106.222 43.8643L106.153 37.1848L106.033 28.9053C106.017 28.3019 105.896 27.8708 105.707 27.6139C105.5 27.3725 104.984 27.0967 104.122 26.8035V25.9604C105.103 25.7535 105.914 25.4794 106.584 25.169C107.067 24.9449 107.721 24.5311 108.546 23.9121L109.322 23.8776V24.3414L109.303 26.1501C109.303 26.219 109.303 26.3742 109.322 26.6484C110.183 26.0639 110.888 25.669 111.455 25.4949C112.265 25.2207 113.16 25.1001 114.141 25.1001C115.157 25.1001 116.052 25.3932 116.828 25.9777C116.897 26.0294 116.983 26.0811 117.086 26.1673C117.585 26.5639 117.929 26.9587 118.169 27.3208C118.652 28.1122 119.014 28.9053 119.221 29.6795C119.391 30.264 119.479 30.9692 119.46 31.8485C119.46 33.0192 119.323 34.0003 119.066 34.8089C118.79 35.602 118.324 36.4089 117.654 37.2193C117 38.0469 116.295 38.6142 115.553 38.959C114.795 39.3021 114.003 39.4745 113.195 39.4745C112.369 39.4745 111.8 39.4056 111.44 39.2849C110.784 39.078 110.114 38.7693 109.476 38.3383C109.458 38.528 109.441 38.6469 109.441 38.7159L109.476 39.1642V39.6125C109.476 39.6987 109.458 40.1297 109.458 40.9366L109.493 43.985C109.493 44.0539 109.476 44.2781 109.458 44.6574V44.8453C109.458 45.2591 109.476 45.5505 109.527 45.7419C109.581 45.8436 109.665 45.9816 109.803 46.104C109.89 46.154 109.993 46.2057 110.079 46.2747C110.39 46.3264 110.664 46.3937 110.888 46.4643C111.129 46.5333 111.371 46.585 111.629 46.6368C111.714 46.7557 111.767 46.9281 111.767 47.135C111.767 47.2575 111.748 47.4282 111.748 47.6695H111.474C110.905 47.6695 110.491 47.6523 110.269 47.6351L108.031 47.4109H107.479L106.962 47.3937L106.429 47.4454L105.638 47.4971C105.327 47.4971 105 47.5316 104.657 47.5661C104.295 47.6161 104.036 47.6351 103.881 47.6351L103.676 47.6161ZM88.5597 28.595C88.6459 28.4225 88.7322 28.1812 88.8011 27.8708L88.9908 27.3036C89.1977 26.6328 89.4201 25.8225 89.6442 24.9104L89.7994 24.3759H90.4718C90.5218 24.4621 90.5563 24.5311 90.5908 24.5845C90.8322 25.0483 90.9874 25.307 91.0563 25.3587C91.1598 25.3932 91.6753 25.4104 92.6047 25.4104L95.6875 25.3759L96.8582 25.3932L100.317 25.4104C100.336 25.4104 100.457 25.3932 100.644 25.3759C100.834 25.3587 100.955 25.3242 101.024 25.2552C101.093 25.1863 101.179 25.0138 101.282 24.7207L101.42 24.4466C101.608 24.4276 101.901 24.4276 102.281 24.4276L102.298 27.0104V28.1122C102.298 28.8001 102.281 29.1967 102.229 29.3002C101.919 29.4208 101.626 29.4898 101.403 29.5071C101.248 29.2312 101.024 28.7312 100.765 28.0087C100.526 27.3898 100.336 27.0277 100.215 26.926C100.094 26.838 99.6634 26.7863 98.9583 26.7863H98.1306C97.8393 26.7863 97.5289 26.7691 97.1668 26.7363L97.2013 28.1294L97.1668 29.9381L97.0823 32.8813C97.0823 35.7038 97.1513 37.2538 97.2703 37.5814C97.891 37.7366 98.3738 37.8555 98.6651 37.8917C98.8203 37.9245 98.9755 37.9607 99.1289 37.9935V39.0262L97.3737 38.9228C96.8237 38.9073 96.3065 38.89 95.8082 38.8711L93.6374 38.94L91.796 39.009L91.8305 37.9779C91.9512 37.9245 92.1064 37.8917 92.2615 37.8728C92.8288 37.8038 93.2943 37.7021 93.6564 37.5624C93.8271 36.6865 93.9133 35.4968 93.9133 34.0175L93.8616 30.3847C93.8805 28.5777 93.8616 27.3898 93.8116 26.7863C93.3633 26.7691 93.0012 26.7518 92.7598 26.7518C91.8822 26.7518 91.315 26.8208 91.0736 26.976C90.8494 27.1139 90.4529 27.5622 89.9374 28.3019L89.6615 28.6812C89.4718 28.9381 89.3339 29.0777 89.2304 29.0777C89.0597 29.0777 88.8356 28.9226 88.5597 28.595ZM86.2355 34.4485C86.3907 34.5503 86.5114 34.6037 86.5976 34.6365C86.8218 34.7572 87.0114 34.8968 87.1476 35.0675C86.8735 36.1693 86.2183 37.1331 85.1855 37.9417C84.1527 38.7693 82.8441 39.1642 81.2768 39.1642C80.2785 39.1469 79.2992 38.9228 78.3164 38.4417C77.3526 37.9779 76.5957 37.3572 76.0094 36.5831C75.5629 35.9796 75.2353 35.2572 75.0111 34.3968C74.806 33.5347 74.6835 32.8123 74.6835 32.2106C74.6835 31.4864 74.8387 30.6605 75.1146 29.7484C75.3905 28.8174 75.8543 27.957 76.5267 27.1484C77.1802 26.3397 78.0078 25.7035 79.0061 25.2207C80.0044 24.738 81.1234 24.4966 82.3803 24.5156C84.0838 24.5156 85.289 24.8242 85.9597 25.4259C86.6321 26.0294 86.958 26.6484 86.958 27.2346C86.958 27.838 86.8218 28.3019 86.5459 28.6467C86.27 28.9915 85.8907 29.1467 85.4269 29.1467C85.0131 29.1467 84.6527 29.0088 84.3079 28.6984C83.9631 28.3881 83.6872 27.8881 83.4648 27.1656C83.2751 26.6484 83.051 26.2708 82.7751 26.0466C82.4992 25.8225 82.1734 25.7035 81.7768 25.7035C80.8475 25.7035 80.0199 26.1501 79.2802 27.0449C78.5405 27.9398 78.1785 29.1622 78.1785 30.7123C78.1612 32.5709 78.6095 34.0347 79.5043 35.1365C80.382 36.2382 81.3975 36.7883 82.551 36.7883C83.1199 36.7883 83.5838 36.7193 83.9803 36.5831C84.2389 36.4796 84.5665 36.2727 84.9959 35.9279C85.0993 35.8417 85.3234 35.602 85.6166 35.2227C85.9252 34.8279 86.1321 34.5675 86.2355 34.4485ZM59.3453 29.3519C61.6694 29.4036 63.0298 29.4208 63.4436 29.4208L63.8212 29.4036C63.5298 28.4053 63.1333 27.2518 62.6677 25.9259C62.2039 24.6 61.8074 23.5845 61.5143 22.8966L59.3453 29.3519ZM52.3037 38.7521L52.3382 37.5986C52.5279 37.5297 52.8727 37.4434 53.3365 37.34C54.1124 37.1848 54.5779 37.0296 54.7314 36.9107C54.8865 36.771 55.0934 36.4624 55.3348 35.9451L58.3642 27.0967L61.9281 16.6826H62.8746L63.5643 16.6981L63.6833 16.9912L66.2489 23.9121C66.8161 25.3759 67.3506 26.8035 67.7989 28.1812C68.2627 29.5588 68.6593 30.695 68.9869 31.5554C69.1748 32.0899 69.4507 32.8813 69.7955 33.9313C69.9679 34.4986 70.2438 35.2227 70.6041 36.0831C70.811 36.5486 70.949 36.8245 71.0524 36.8934C71.2421 37.0641 71.5162 37.1848 71.93 37.2365C72.3266 37.2883 72.7732 37.409 73.2387 37.6159C73.2904 37.9935 73.3249 38.2711 73.3249 38.459C73.3249 38.528 73.3077 38.6469 73.3077 38.8211C72.5663 38.8211 71.7576 38.7849 70.88 38.7004C69.9852 38.6142 69.192 38.5624 68.4869 38.5624C67.7127 38.5624 67.1437 38.5797 66.8006 38.5969L64.2695 38.7159L63.5298 38.7521C63.5298 38.3728 63.5454 37.9935 63.5798 37.6314L65.2333 37.2365C65.7316 37.0986 66.0247 36.9796 66.0937 36.9107C66.1971 36.8055 66.2489 36.6693 66.2489 36.5314C66.2489 36.3762 66.2316 36.2382 66.1799 36.0831L65.5954 34.4313L64.4247 31.1433L58.7435 31.1243C58.5366 31.6588 58.0883 32.9658 57.4349 35.033C57.228 35.6348 57.1418 36.0313 57.1418 36.2382C57.1418 36.5314 57.2107 36.7383 57.3487 36.8572C57.5728 37.0814 58.0021 37.2193 58.6573 37.3228C58.7435 37.34 59.0866 37.409 59.7073 37.5124C59.7246 37.909 59.7246 38.1831 59.7246 38.3383C59.7246 38.459 59.7073 38.5797 59.6901 38.7004C59.0711 38.7004 57.6056 38.6142 55.2831 38.4417L54.6796 38.5452C53.94 38.6831 53.252 38.7521 52.5796 38.7521H52.3037Z" fill="#C6273A"/>
<path d="M216.263 34.6387C215.919 34.5698 215.66 34.5525 215.489 34.5525H215.127L214.972 34.7249C214.334 35.8095 213.922 36.4646 213.713 36.6871C213.301 37.1526 212.906 37.5319 212.51 37.825C212.234 37.9957 211.822 38.1854 211.236 38.375C210.856 38.513 210.444 38.5819 210.013 38.5819C209.274 38.5819 208.636 38.3388 208.12 37.875C207.605 37.4095 207.327 36.9112 207.327 36.3784C207.344 36.0164 207.449 35.706 207.637 35.4491C207.844 35.1887 208.241 34.9491 208.843 34.6905C209.136 34.5698 209.858 34.3646 211.029 34.0887C212.201 33.7956 212.924 33.6232 213.163 33.5215C213.713 33.3128 214.198 33.037 214.627 32.6766C215.058 32.299 215.384 31.9025 215.608 31.4387C215.919 30.7835 216.056 30.2317 216.056 29.7679C216.074 28.8886 215.936 28.1834 215.677 27.6334C215.42 27.0644 215.075 26.5834 214.61 26.1523C214.267 25.8247 213.75 25.5316 213.062 25.273C212.389 24.9989 211.648 24.8782 210.856 24.8782C209.756 24.8609 208.774 24.9471 207.93 25.0851C207.087 25.223 206.365 25.4454 205.779 25.7385C205.71 26.0144 205.606 26.6161 205.468 27.5627C205.348 28.5093 205.28 29.0627 205.28 29.2334C205.28 29.3196 205.298 29.4059 205.33 29.4921C205.641 29.5955 205.899 29.63 206.089 29.63C206.21 29.63 206.382 29.63 206.605 29.5955C206.708 29.4386 206.846 29.199 207.034 28.8886C207.605 27.8731 208.172 27.1679 208.774 26.7541C209.36 26.342 210.049 26.1351 210.806 26.1351C211.615 26.1351 212.303 26.3765 212.853 26.823C213.25 27.1679 213.439 27.6162 213.439 28.1834C213.439 28.5627 213.232 28.9403 212.803 29.3196C212.389 29.7317 211.684 30.0248 210.668 30.2317C209.118 30.5593 207.999 30.8852 207.258 31.2145C206.21 31.6956 205.468 32.2456 205.037 32.9008C204.608 33.537 204.401 34.2956 204.384 35.156C204.384 36.4802 204.901 37.5836 205.917 38.4785C206.932 39.3561 208.43 39.8044 210.393 39.8216C210.649 39.8216 211.322 39.7526 212.406 39.6475C212.906 39.5975 213.491 39.4768 214.144 39.3044C214.317 39.2716 214.748 39.0975 215.437 38.8233C215.575 38.7543 215.66 38.6681 215.712 38.563C215.763 38.4785 215.85 37.9957 215.953 37.1353C216.143 35.7422 216.244 34.9146 216.263 34.6387Z" fill="#0C6AB2"/>
<path d="M202.613 39.4328H202.268L200.203 39.3638L199.101 39.3448L197.98 39.3276L197.189 39.3811L195.623 39.4138C195.554 39.2086 195.537 39.0362 195.537 38.8983C195.537 38.7603 195.554 38.5534 195.606 38.2793L196.259 38.1586C196.982 38.0552 197.344 37.8655 197.344 37.6069C197.344 37.4172 197.292 37.1931 197.206 36.9534C197.12 36.7465 196.982 36.3155 196.777 35.6965C196.587 35.093 196.19 34.062 195.606 32.6154L195.209 31.5309C194.899 30.6688 194.59 29.8946 194.263 29.1894C194.142 29.5343 193.937 30.1532 193.661 31.0826C193.42 31.8412 193.058 32.9585 192.559 34.4051C191.94 36.1948 191.611 37.4 191.578 37.9862C191.835 38.0552 192.197 38.0896 192.609 38.0896L192.852 38.1241C193.008 38.1414 193.213 38.1586 193.454 38.1586L193.696 38.2103C193.713 38.3983 193.713 38.5897 193.713 38.7776C193.713 39.1052 193.677 39.3121 193.592 39.3966L193.316 39.4328C193.163 39.45 193.075 39.4673 193.058 39.4673L191.749 39.4328L190.975 39.45C190.527 39.3638 190.045 39.3121 189.564 39.3121L188.926 39.3448L188.273 39.3966L187.911 39.3811C187.894 39.1741 187.876 39.019 187.876 38.881C187.876 38.7603 187.894 38.6069 187.911 38.3983C188.944 38.1241 189.649 37.8827 190.045 37.6414C190.233 37.281 190.509 36.5396 190.871 35.4396C191.578 33.3378 192.508 30.7895 193.661 27.8118C193.987 26.9687 194.23 26.3135 194.385 25.8669C194.504 25.4876 194.642 25.1428 194.797 24.7807H196.037C197.275 28.1049 198.359 30.8067 199.239 32.8723L200.703 36.6431L201.184 37.7965C201.201 37.8483 201.425 37.9172 201.908 38.0552C202.32 38.1758 202.577 38.2965 202.647 38.4155C202.682 38.5362 202.682 38.6914 202.682 38.881C202.682 39.1397 202.663 39.3121 202.613 39.4328ZM175.964 32.6481C176.05 34.0792 176.119 34.8861 176.152 35.1103C176.29 35.8844 176.48 36.5396 176.773 37.0913C176.962 37.4534 177.273 37.762 177.719 38.0362C178.166 38.3293 178.7 38.4672 179.302 38.4672C180.044 38.4672 180.664 38.2103 181.18 37.6758C181.678 37.1431 182.057 36.2999 182.264 35.162C182.419 34.4223 182.488 33.1999 182.506 31.5119C182.506 29.4119 182.213 27.9497 181.609 27.0721C181.007 26.2118 180.216 25.7635 179.218 25.7635C178.442 25.7635 177.788 26.0031 177.288 26.5032C176.773 26.9859 176.411 27.7256 176.206 28.6722C176.068 29.3101 175.997 30.6188 175.964 32.6481ZM184.33 26.7273C184.983 27.4497 185.466 28.2601 185.775 29.1894C186.085 30.1015 186.259 30.9791 186.24 31.7878C186.24 33.3206 186.035 34.5602 185.604 35.4896C184.968 36.9017 184.123 37.9517 183.038 38.6224C181.971 39.2948 180.733 39.6207 179.319 39.6207C177.719 39.6207 176.376 39.2086 175.276 38.3983C174.173 37.6069 173.381 36.6948 172.916 35.6603C172.452 34.6465 172.211 33.3895 172.228 31.874C172.228 31.1171 172.347 30.3429 172.571 29.567C172.795 28.7929 173.105 28.1204 173.5 27.5532C173.88 26.9859 174.328 26.5032 174.792 26.1238C175.481 25.5738 176.169 25.1773 176.857 24.9549C177.547 24.7135 178.373 24.61 179.356 24.61C181.49 24.61 183.142 25.3324 184.33 26.7273ZM157.509 37.2982C158.164 37.6069 158.783 37.762 159.35 37.762C160.503 37.762 161.452 37.5724 162.191 37.1758C162.931 36.781 163.466 36.2465 163.791 35.5241C164.138 34.8171 164.309 33.9395 164.309 32.8723C164.309 31.7723 164.138 30.8929 163.776 30.2222C163.259 29.2912 162.655 28.6911 161.933 28.3618C161.209 28.0515 160.124 27.8808 158.679 27.8808C158.041 27.8808 157.612 27.9325 157.353 28.036V30.1532L157.319 32.6843L157.336 36.6431C157.353 36.8327 157.405 37.0379 157.509 37.2982ZM157.353 26.3307C157.748 26.3997 158.233 26.4342 158.783 26.4342C160.315 26.4514 161.469 26.1428 162.26 25.5049C163.035 24.8686 163.429 23.7669 163.448 22.2169C163.448 21.1151 163.086 20.203 162.347 19.4616C161.607 18.7219 160.486 18.3599 159.007 18.3599C158.576 18.3599 158.009 18.4116 157.302 18.5323C157.302 18.8082 157.302 19.1875 157.319 19.6685C157.371 20.6496 157.39 22.01 157.371 23.7669L157.336 25.1945C157.336 25.4531 157.336 25.8325 157.353 26.3307ZM150.226 39.3448L150.262 37.9862C150.501 37.9172 150.795 37.8655 151.139 37.8138C151.793 37.7103 152.327 37.5551 152.739 37.3672C152.895 37.1069 152.981 36.85 153.015 36.6086C153.102 35.9706 153.152 35.024 153.152 33.7688V26.4687C153.152 25.7118 153.119 23.7496 153.067 20.5461C153.05 19.6858 153.015 19.153 152.931 18.9461C152.895 18.8771 152.843 18.8254 152.774 18.7737C152.619 18.653 152.308 18.584 151.862 18.5495C151.672 18.5323 151.174 18.4806 150.364 18.3599L150.348 17.1219L153.755 17.0529L158.731 16.8978L159.333 16.8805C159.455 16.8633 159.574 16.8633 159.695 16.8633C159.798 16.8633 160.074 16.8633 160.503 16.8805H161.469C162.243 16.8805 163.086 17.0185 163.981 17.2926C164.309 17.3788 164.721 17.5857 165.238 17.8616C165.755 18.1547 166.202 18.5323 166.581 18.9806C166.959 19.4444 167.235 19.9444 167.424 20.5116C167.597 21.0634 167.683 21.6651 167.683 22.3031C167.683 22.991 167.545 23.6117 167.269 24.1617C166.995 24.7307 166.581 25.229 166.012 25.6945C165.721 25.9342 165.067 26.2963 164.033 26.8308C165.581 27.2273 166.754 27.9325 167.545 28.9808C168.354 30.0153 168.75 31.1688 168.75 32.443C168.75 33.1999 168.612 33.993 168.354 34.8171C168.166 35.4396 167.855 36.0068 167.424 36.5396C166.84 37.2293 166.221 37.762 165.581 38.1052C164.929 38.4672 164.033 38.7603 162.897 38.9845C162.329 39.0879 161.469 39.1397 160.315 39.1397L157.715 39.0535C156.612 39.0535 155.305 39.1052 153.791 39.2086C153.36 39.2259 152.172 39.2776 150.226 39.3448Z" fill="#0C6AB2"/>
<path d="M227.362 32.2628C226.758 32.4852 226.07 32.8473 225.296 33.3473C224.537 33.8628 223.987 34.3628 223.696 34.8801C223.489 35.2577 223.368 35.7232 223.368 36.256C223.368 36.7542 223.506 37.168 223.782 37.4767C224.056 37.806 224.382 37.9612 224.744 37.9612C225.348 37.9612 225.848 37.787 226.277 37.4267C226.846 36.9267 227.174 36.5473 227.275 36.256C227.362 35.9628 227.413 35.137 227.431 33.7766C227.431 33.2783 227.413 32.761 227.362 32.2628ZM232.577 36.256L232.939 36.5146C233.043 36.6008 233.094 36.7025 233.112 36.8077L233.129 36.8939C232.87 37.9077 232.544 38.6146 232.113 38.9922C231.701 39.3715 231.184 39.5612 230.581 39.5612C229.944 39.5612 229.41 39.3715 228.963 39.0095C228.515 38.6301 228.103 37.9767 227.741 37.0318C227.275 37.9077 226.622 38.5629 225.796 38.9922C224.953 39.4233 223.937 39.6474 222.73 39.6474C221.63 39.6474 220.803 39.3888 220.286 38.8905C219.77 38.3905 219.511 37.737 219.511 36.9267C219.511 36.5473 219.598 36.1697 219.753 35.7732C219.908 35.3783 220.148 34.999 220.51 34.6197C220.854 34.2404 221.406 33.8111 222.18 33.3645C222.299 33.2955 222.696 33.1042 223.403 32.7783L227.379 31.0748C227.413 30.6438 227.431 30.2144 227.448 29.7661C227.448 28.2161 227.275 27.1661 226.932 26.5971C226.708 26.254 226.346 26.0816 225.813 26.0816C225.279 26.0816 224.78 26.185 224.332 26.4074C223.884 26.6161 223.558 26.8902 223.351 27.2351C223.196 27.492 223.075 27.9575 222.972 28.6644C222.886 29.1627 222.817 29.4558 222.748 29.542C222.592 29.7489 222.299 29.9541 221.887 30.1282C221.456 30.2989 221.182 30.4213 221.027 30.5058C220.441 30.7972 219.994 30.9524 219.649 30.9524C219.511 30.8162 219.442 30.6093 219.442 30.3679C219.442 29.7127 219.565 29.1454 219.822 28.6816C220.217 28.0265 220.787 27.3902 221.561 26.7695C222.336 26.1505 223.058 25.7212 223.73 25.4626C224.643 25.1522 225.779 24.9971 227.087 24.9971C227.931 24.9971 228.67 25.1695 229.272 25.5126C229.893 25.8574 230.324 26.3574 230.548 27.0109C230.787 27.6833 230.908 28.8696 230.891 30.592L230.856 33.4335L230.874 35.499V36.0335C230.874 36.5146 230.943 36.8404 231.062 37.0129C231.167 37.2025 231.322 37.2887 231.51 37.2887C231.632 37.2887 231.734 37.256 231.803 37.1853L232.284 36.3766L232.577 36.256Z" fill="#0C6AB2"/>
<path d="M140.758 30.4301L145.458 30.4473L147.85 30.4111C148.179 30.4111 148.47 30.4473 148.746 30.4973C148.779 31.0146 148.815 31.4094 148.832 31.6698L148.848 31.9439L148.779 32.8233C148.779 32.9595 148.763 33.1319 148.763 33.3215V33.6302L140.689 33.6147C140.689 33.2871 140.672 33.0474 140.672 32.8733C140.672 32.5991 140.689 32.2888 140.706 31.9439C140.724 31.756 140.724 31.6336 140.724 31.5474V30.7042L140.758 30.4301Z" fill="#0C6AB2"/>
<path fill-rule="evenodd" clip-rule="evenodd" d="M10.1277 44.899L24.5883 2.99633V2.98082H24.4849L24.5194 2.8584C12.2794 3.28944 2.48438 13.8949 2.48438 26.9262C2.48438 34.0712 5.42755 40.4903 10.1277 44.899Z" fill="#0C6AB2"/>
<path fill-rule="evenodd" clip-rule="evenodd" d="M24.5917 2.98818C28.4315 5.70894 39.311 17.7937 35.2644 21.6662C32.3902 24.4042 26.7435 24.4732 31.9091 29.2578C36.0748 33.1492 37.4507 32.082 39.93 38.1252C41.1007 40.9822 40.3956 43.8564 40.1024 44.8219C44.8198 40.4322 47.8147 33.9768 47.8147 26.7974C47.8147 13.5574 37.6748 2.83301 25.1762 2.83301C24.9711 2.83301 24.7469 2.83301 24.54 2.85025H24.5228L24.4883 2.97094H24.5917V2.98818Z" fill="#C6273A"/>
<path d="M164.453 7.56721V8.84138C164.453 9.08276 164.487 9.25518 164.556 9.35863C164.641 9.44311 164.763 9.4776 164.951 9.4776C165.158 9.4776 165.347 9.39311 165.52 9.23794C165.675 9.06552 165.761 8.84138 165.761 8.53102C165.761 7.8948 165.365 7.56721 164.591 7.56721H164.453ZM164.453 7.29134H164.608C164.934 7.29134 165.158 7.22237 165.313 7.10168C165.468 6.96547 165.554 6.75857 165.554 6.46546C165.554 6.18959 165.468 5.96717 165.33 5.82924C165.192 5.6913 165.02 5.62233 164.813 5.62233C164.677 5.62233 164.572 5.65682 164.503 5.70854C164.47 5.74303 164.453 5.84475 164.453 6.00165V7.29134ZM165.451 7.36031V7.39479C166.329 7.49824 166.76 7.84308 166.76 8.44481C166.76 8.91034 166.553 9.23794 166.141 9.4776C165.779 9.66726 165.313 9.77071 164.694 9.77071H162.972V9.52932C163.23 9.51208 163.385 9.46208 163.454 9.39311C163.523 9.32415 163.556 9.13449 163.556 8.85862V6.25856C163.556 5.96717 163.523 5.79475 163.472 5.72579C163.403 5.65682 163.247 5.60509 163.006 5.58785V5.34647H164.987C165.485 5.34647 165.863 5.41543 166.123 5.57061C166.38 5.74303 166.518 6.0189 166.518 6.34649C166.518 6.63788 166.415 6.87926 166.21 7.03271C166.001 7.18789 165.761 7.31031 165.451 7.36031ZM160.08 5.53613C159.735 5.53613 159.444 5.70854 159.22 6.05338C158.977 6.39649 158.875 6.86202 158.875 7.42927C158.875 8.03274 158.996 8.54827 159.237 8.96207C159.494 9.37415 159.82 9.58105 160.251 9.58105C160.597 9.58105 160.872 9.4276 161.096 9.1C161.32 8.77241 161.422 8.3086 161.422 7.70514C161.422 7.03271 161.303 6.49994 161.061 6.12235C160.803 5.72579 160.475 5.53613 160.08 5.53613ZM160.218 5.24302C160.854 5.24302 161.389 5.46716 161.818 5.87924C162.249 6.31028 162.473 6.84478 162.473 7.49824C162.473 8.22067 162.249 8.78965 161.801 9.21897C161.353 9.65002 160.785 9.87416 160.13 9.87416C159.459 9.87416 158.89 9.65002 158.461 9.21897C158.03 8.77241 157.823 8.22067 157.823 7.56721C157.823 6.94823 158.03 6.39649 158.461 5.93269C158.89 5.4844 159.477 5.24302 160.218 5.24302ZM157.773 9.77071H155.585V9.52932C155.809 9.49656 155.932 9.44311 155.947 9.37415C155.982 9.32415 155.965 9.23794 155.878 9.13449C155.863 9.1 155.846 9.04828 155.794 8.96207C155.759 8.8931 155.671 8.75517 155.552 8.54827C155.432 8.34309 155.294 8.13619 155.173 7.91204C154.794 8.46378 154.554 8.85862 154.416 9.1C154.347 9.25518 154.33 9.35863 154.363 9.39311C154.416 9.44311 154.554 9.49656 154.778 9.52932V9.77071H153.073V9.52932C153.418 9.49656 153.694 9.35863 153.882 9.15173C154.244 8.72068 154.604 8.20515 155.002 7.63618C154.537 6.8965 154.209 6.36201 154.02 6.0689C153.933 5.8982 153.813 5.77751 153.711 5.70854C153.589 5.65682 153.418 5.60509 153.194 5.58785V5.34647H155.242V5.58785C155.071 5.62233 154.966 5.65682 154.933 5.70854C154.897 5.76027 154.897 5.82924 154.966 5.8982C155.071 6.10338 155.259 6.44822 155.57 6.93099C155.794 6.63788 156.001 6.32752 156.189 5.98441C156.258 5.84475 156.275 5.76027 156.24 5.70854C156.206 5.67406 156.07 5.62233 155.863 5.58785V5.34647H157.497V5.58785C157.273 5.60509 157.101 5.65682 156.98 5.70854C156.861 5.77751 156.739 5.87924 156.601 6.05338C156.465 6.20683 156.171 6.58615 155.74 7.17237C155.827 7.32582 156.016 7.60169 156.258 7.99825C156.515 8.41033 156.723 8.73793 156.877 8.96207C157.016 9.18621 157.135 9.32415 157.239 9.39311C157.359 9.46208 157.532 9.51208 157.773 9.52932V9.77071ZM150.87 7.96377L150.352 6.4827H150.335C150.266 6.67236 150.164 6.94823 150.026 7.31031C149.904 7.6879 149.82 7.8948 149.802 7.96377H150.87ZM152.883 9.77071H150.939V9.52932C151.126 9.49656 151.249 9.46208 151.299 9.39311C151.335 9.34139 151.318 9.23794 151.266 9.08276C151.18 8.82413 151.094 8.56551 150.989 8.32412H149.682C149.578 8.63447 149.492 8.87586 149.44 9.04828C149.39 9.20345 149.371 9.32415 149.423 9.39311C149.475 9.46208 149.613 9.49656 149.854 9.52932V9.77071H148.338V9.52932C148.563 9.49656 148.718 9.44311 148.804 9.37415C148.89 9.28966 148.975 9.11724 149.097 8.82413L150.49 5.32922L150.835 5.24302C151.644 7.42927 152.075 8.61723 152.142 8.78965C152.247 9.08276 152.349 9.27242 152.435 9.35863C152.521 9.44311 152.659 9.49656 152.883 9.52932V9.77071ZM146.411 5.87924V7.65342C146.514 7.70514 146.652 7.72238 146.771 7.72238C146.859 7.72238 146.926 7.70514 147.014 7.6879C147.082 7.65342 147.169 7.60169 147.271 7.53272C147.357 7.44652 147.426 7.34479 147.478 7.18789C147.547 7.03271 147.564 6.84478 147.564 6.62063C147.564 6.2758 147.495 6.0189 147.323 5.84475C147.169 5.6913 146.961 5.60509 146.721 5.60509C146.616 5.60509 146.53 5.62233 146.48 5.67406C146.428 5.70854 146.411 5.77751 146.411 5.87924ZM144.981 5.34647H146.859C147.392 5.34647 147.788 5.43268 148.045 5.60509C148.392 5.82924 148.545 6.17235 148.545 6.60339C148.545 7.03271 148.425 7.36031 148.149 7.60169C147.892 7.82583 147.547 7.98101 147.151 8.03274H146.876L146.411 7.92929V8.85862C146.411 9.15173 146.445 9.32415 146.514 9.39311C146.583 9.46208 146.754 9.51208 147.047 9.52932V9.77071H144.947V9.52932C145.206 9.51208 145.361 9.46208 145.43 9.39311C145.481 9.32415 145.516 9.15173 145.516 8.85862V6.25856C145.516 5.96717 145.481 5.79475 145.43 5.72579C145.361 5.65682 145.223 5.60509 144.981 5.58785V5.34647ZM144.516 6.49994H144.276C144.19 6.15683 144.085 5.91544 143.983 5.79475C143.864 5.6913 143.64 5.63958 143.278 5.63958H142.968V8.85862C142.968 9.15173 143.002 9.32415 143.087 9.39311C143.156 9.46208 143.347 9.51208 143.64 9.52932V9.77071H141.419V9.52932C141.712 9.51208 141.9 9.46208 141.969 9.39311C142.021 9.32415 142.056 9.15173 142.056 8.85862V5.63958H141.831C141.573 5.63958 141.383 5.65682 141.281 5.6913C141.178 5.70854 141.109 5.76027 141.057 5.82924C140.954 5.91544 140.85 6.15683 140.764 6.51718H140.506C140.523 6.37925 140.54 6.13786 140.557 5.82924C140.574 5.51888 140.592 5.29474 140.592 5.17405H140.764C140.816 5.24302 140.868 5.29474 140.919 5.31198C140.971 5.32922 141.04 5.34647 141.142 5.34647H143.88C144.052 5.34647 144.173 5.2775 144.276 5.17405H144.447C144.447 5.51888 144.483 5.96717 144.516 6.49994ZM139.749 8.49826L139.99 8.59999C139.869 9.04828 139.749 9.40863 139.611 9.68622C139.093 9.80519 138.664 9.87416 138.338 9.87416C137.907 9.87416 137.511 9.80519 137.185 9.66726C136.838 9.54657 136.581 9.35863 136.374 9.15173C136.185 8.92758 136.031 8.6862 135.926 8.4293C135.824 8.17067 135.788 7.8948 135.788 7.60169C135.788 6.91374 136.031 6.32752 136.53 5.8982C137.011 5.46716 137.666 5.24302 138.474 5.24302C138.595 5.24302 138.733 5.24302 138.888 5.26026C139.026 5.2775 139.145 5.29474 139.231 5.31198C139.318 5.32922 139.421 5.34647 139.524 5.38095C139.628 5.39819 139.697 5.41543 139.712 5.41543C139.781 5.82924 139.835 6.20683 139.869 6.53442L139.628 6.58615C139.421 5.8982 139.007 5.55337 138.354 5.55337C137.871 5.55337 137.493 5.74303 137.235 6.12235C136.961 6.49994 136.823 6.94823 136.823 7.481C136.823 8.1017 136.961 8.59999 137.269 8.97931C137.561 9.35863 137.94 9.54656 138.423 9.54656C138.957 9.54656 139.387 9.20345 139.749 8.49826ZM131.416 5.0706C131.142 5.0706 130.917 5.01887 130.745 4.8999C130.59 4.77921 130.505 4.62404 130.505 4.43438C130.505 4.34817 130.538 4.2792 130.59 4.21023C130.642 4.14127 130.71 4.12402 130.795 4.12402C130.9 4.12402 130.969 4.15851 131.004 4.22747C131.055 4.2792 131.073 4.36541 131.073 4.43438C131.073 4.67576 131.193 4.81369 131.416 4.81369C131.657 4.81369 131.778 4.67576 131.778 4.43438C131.778 4.36541 131.795 4.2792 131.829 4.22747C131.879 4.15851 131.948 4.12402 132.054 4.12402C132.14 4.12402 132.209 4.14127 132.259 4.21023C132.311 4.26196 132.328 4.34817 132.328 4.43438C132.328 4.62404 132.259 4.77921 132.088 4.8999C131.933 5.01887 131.709 5.0706 131.416 5.0706ZM133.774 9.77071H131.709V9.52932C131.847 9.51208 131.967 9.51208 132.035 9.49656C132.104 9.4776 132.157 9.44311 132.209 9.37415C132.259 9.32415 132.278 9.25518 132.295 9.18621V7.20685C132.295 6.84478 132.311 6.43097 132.328 6.00165H132.311L130.573 9.40863C130.521 9.4776 130.505 9.56381 130.505 9.66726V9.77071H128.936V9.52932C129.195 9.51208 129.367 9.46208 129.436 9.37415C129.488 9.28966 129.523 9.1 129.523 8.77241V6.32752C129.523 6.15683 129.523 6.03441 129.505 5.94993C129.505 5.86372 129.471 5.77751 129.419 5.72579C129.385 5.67406 129.316 5.63958 129.247 5.62233C129.178 5.60509 129.074 5.58785 128.936 5.58785V5.34647H130.969V5.58785C130.71 5.60509 130.555 5.65682 130.505 5.72579C130.452 5.79475 130.417 5.98441 130.417 6.31028V7.70514C130.417 8.11895 130.4 8.56551 130.383 9.04828H130.4L132.14 5.67406C132.192 5.58785 132.226 5.51888 132.226 5.43268V5.34647H133.792V5.58785C133.517 5.60509 133.362 5.65682 133.293 5.72579C133.224 5.81199 133.19 6.00165 133.19 6.31028V8.80689C133.19 9.03104 133.207 9.18621 133.24 9.27242C133.257 9.35863 133.311 9.4276 133.395 9.46208C133.464 9.49656 133.586 9.51208 133.774 9.52932V9.77071ZM124.547 9.49656C124.755 9.49656 124.943 9.40863 125.116 9.23794C125.288 9.06552 125.374 8.77241 125.374 8.37585C125.374 8.01549 125.288 7.75687 125.116 7.58445C124.96 7.42927 124.719 7.36031 124.409 7.36031C124.324 7.36031 124.221 7.36031 124.115 7.37755V8.84138C124.115 9.08276 124.152 9.23794 124.221 9.34139C124.29 9.44311 124.393 9.49656 124.547 9.49656ZM128.438 9.77071H126.407V9.52932C126.647 9.51208 126.821 9.46208 126.871 9.39311C126.94 9.3069 126.957 9.13449 126.957 8.82413V6.24131C126.957 5.96717 126.94 5.77751 126.871 5.70854C126.821 5.65682 126.647 5.60509 126.407 5.58785V5.34647H128.438V5.58785C128.179 5.60509 128.024 5.65682 127.974 5.70854C127.905 5.77751 127.869 5.96717 127.869 6.25856V8.84138C127.869 9.13449 127.905 9.3069 127.974 9.39311C128.024 9.46208 128.179 9.51208 128.438 9.52932V9.77071ZM124.115 6.31028V7.08616C124.307 7.0672 124.531 7.05168 124.788 7.05168C125.288 7.05168 125.667 7.17237 125.941 7.39479C126.217 7.60169 126.353 7.91204 126.353 8.32412C126.353 8.85862 126.148 9.23794 125.717 9.4776C125.374 9.66726 124.926 9.77071 124.324 9.77071H122.636V9.52932C122.893 9.51208 123.067 9.46208 123.117 9.37415C123.186 9.3069 123.222 9.11724 123.222 8.80689V6.29304C123.222 5.98441 123.186 5.79475 123.136 5.72579C123.067 5.65682 122.912 5.60509 122.653 5.58785V5.34647H124.719V5.58785C124.512 5.58785 124.376 5.62233 124.307 5.65682C124.238 5.6913 124.186 5.74303 124.152 5.82924C124.134 5.93269 124.115 6.08786 124.115 6.31028ZM122.138 5.34647V5.58785C121.879 5.60509 121.707 5.63958 121.655 5.70854C121.603 5.77751 121.569 5.94993 121.569 6.24131V8.87586C121.569 9.15173 121.603 9.32415 121.655 9.39311C121.724 9.46208 121.879 9.51208 122.138 9.52932V9.77071H120.072V9.52932C120.329 9.51208 120.502 9.46208 120.571 9.39311C120.622 9.32415 120.657 9.15173 120.657 8.85862V7.60169H118.798V8.85862C118.798 9.15173 118.833 9.32415 118.883 9.39311C118.952 9.46208 119.107 9.51208 119.348 9.52932V9.77071H117.334V9.52932C117.576 9.51208 117.729 9.46208 117.798 9.39311C117.85 9.32415 117.884 9.15173 117.884 8.85862V6.24131C117.884 5.96717 117.85 5.77751 117.798 5.70854C117.729 5.65682 117.576 5.60509 117.3 5.58785V5.34647H119.348V5.58785C119.09 5.60509 118.936 5.65682 118.883 5.70854C118.833 5.77751 118.798 5.96717 118.798 6.24131V7.24134H120.657V6.24131C120.657 5.96717 120.622 5.77751 120.571 5.70854C120.502 5.65682 120.346 5.60509 120.09 5.58785V5.34647H122.138ZM116.886 6.49994H116.645C116.56 6.15683 116.472 5.91544 116.353 5.79475C116.25 5.6913 116.008 5.63958 115.646 5.63958H115.353V8.85862C115.353 9.15173 115.388 9.32415 115.457 9.39311C115.527 9.46208 115.715 9.51208 116.008 9.52932V9.77071H113.788V9.52932C114.081 9.51208 114.27 9.46208 114.339 9.39311C114.408 9.32415 114.443 9.15173 114.443 8.85862V5.63958H114.2C113.943 5.63958 113.753 5.65682 113.65 5.6913C113.546 5.70854 113.477 5.76027 113.426 5.82924C113.322 5.91544 113.236 6.15683 113.132 6.51718H112.876C112.893 6.37925 112.91 6.13786 112.927 5.82924C112.945 5.51888 112.962 5.29474 112.962 5.17405H113.132C113.186 5.24302 113.236 5.29474 113.288 5.31198C113.339 5.32922 113.426 5.34647 113.529 5.34647H116.267C116.422 5.34647 116.541 5.2775 116.645 5.17405H116.817C116.834 5.51888 116.852 5.96717 116.886 6.49994ZM112.117 8.49826L112.358 8.59999C112.238 9.04828 112.117 9.40863 111.979 9.68622C111.463 9.80519 111.05 9.87416 110.707 9.87416C110.276 9.87416 109.896 9.80519 109.553 9.66726C109.208 9.54657 108.95 9.35863 108.743 9.15173C108.555 8.92758 108.4 8.6862 108.296 8.4293C108.21 8.17067 108.158 7.8948 108.158 7.60169C108.158 6.91374 108.4 6.32752 108.898 5.8982C109.381 5.46716 110.034 5.24302 110.844 5.24302C110.981 5.24302 111.103 5.24302 111.257 5.26026C111.395 5.2775 111.515 5.29474 111.601 5.31198C111.688 5.32922 111.791 5.34647 111.895 5.38095C112.013 5.39819 112.067 5.41543 112.082 5.41543C112.153 5.82924 112.203 6.20683 112.238 6.53442L111.998 6.58615C111.791 5.8982 111.377 5.55337 110.724 5.55337C110.241 5.55337 109.881 5.74303 109.605 6.12235C109.329 6.49994 109.191 6.94823 109.191 7.481C109.191 8.1017 109.329 8.59999 109.638 8.97931C109.931 9.35863 110.327 9.54656 110.791 9.54656C111.326 9.54656 111.774 9.20345 112.117 8.49826ZM105.834 7.96377L105.334 6.4827H105.318C105.25 6.67236 105.146 6.94823 105.008 7.31031C104.87 7.6879 104.801 7.8948 104.784 7.96377H105.834ZM107.865 9.77071H105.92V9.52932C106.11 9.49656 106.231 9.46208 106.263 9.39311C106.317 9.34139 106.298 9.23794 106.248 9.08276C106.162 8.82413 106.058 8.56551 105.972 8.32412H104.663C104.543 8.63447 104.474 8.87586 104.424 9.04828C104.355 9.20345 104.355 9.32415 104.405 9.39311C104.439 9.46208 104.594 9.49656 104.836 9.52932V9.77071H103.303V9.52932C103.527 9.49656 103.682 9.44311 103.768 9.37415C103.855 9.28966 103.958 9.11724 104.062 8.82413L105.455 5.32922L105.817 5.24302C106.608 7.42927 107.039 8.61723 107.108 8.78965C107.229 9.08276 107.332 9.27242 107.419 9.35863C107.486 9.44311 107.641 9.49656 107.865 9.52932V9.77071ZM102.908 5.34647V5.58785C102.667 5.60509 102.512 5.65682 102.443 5.70854C102.391 5.77751 102.356 5.94993 102.356 6.22407V8.80689C102.356 8.97931 102.356 9.1 102.374 9.18621C102.391 9.25518 102.408 9.34139 102.46 9.39311C102.494 9.44311 102.546 9.4776 102.615 9.49656C102.667 9.49656 102.77 9.51208 102.908 9.52932V9.77071H100.841V9.52932C100.996 9.51208 101.099 9.49656 101.168 9.49656C101.237 9.4776 101.289 9.44311 101.341 9.39311C101.393 9.34139 101.427 9.25518 101.427 9.18621C101.444 9.1 101.444 8.97931 101.444 8.80689V7.70514L100.841 7.91204C100.687 7.98101 100.515 7.99825 100.343 7.99825C99.808 7.99825 99.4477 7.86032 99.2235 7.56721C99.0856 7.39479 99.0166 7.10168 99.0166 6.72408V6.15683C99.0166 5.91544 98.9821 5.77751 98.9304 5.70854C98.8615 5.63958 98.708 5.60509 98.4494 5.58785V5.34647H100.394V5.58785C100.187 5.60509 100.049 5.63958 99.9977 5.70854C99.9632 5.77751 99.9287 5.94993 99.9287 6.22407V6.63788C99.9287 6.96547 99.9977 7.20685 100.153 7.34479C100.291 7.49824 100.515 7.56721 100.806 7.56721C101.049 7.56721 101.255 7.53272 101.444 7.42927V6.22407C101.444 5.94993 101.427 5.77751 101.358 5.70854C101.306 5.63958 101.168 5.60509 100.946 5.58785V5.34647H102.908ZM94.2648 5.0706C93.9734 5.0706 93.7493 5.01887 93.5941 4.8999C93.4217 4.77921 93.3527 4.62404 93.3527 4.43438C93.3527 4.34817 93.3699 4.2792 93.4217 4.21023C93.4734 4.14127 93.5424 4.12402 93.6286 4.12402C93.732 4.12402 93.801 4.15851 93.8527 4.22747C93.9044 4.2792 93.9217 4.36541 93.9044 4.43438C93.9044 4.67576 94.0251 4.81369 94.2648 4.81369C94.5062 4.81369 94.6269 4.67576 94.6269 4.43438C94.6096 4.36541 94.6269 4.2792 94.6786 4.22747C94.7131 4.15851 94.7993 4.12402 94.8855 4.12402C94.9889 4.12402 95.0562 4.14127 95.1096 4.21023C95.1614 4.26196 95.1786 4.34817 95.1786 4.43438C95.1786 4.62404 95.0907 4.77921 94.9372 4.8999C94.7648 5.01887 94.5407 5.0706 94.2648 5.0706ZM96.6235 9.77071H94.5407V9.52932C94.6958 9.51208 94.7993 9.51208 94.8682 9.49656C94.9372 9.4776 95.0062 9.44311 95.0407 9.37415C95.0907 9.32415 95.1269 9.25518 95.1269 9.18621C95.1441 9.1 95.1441 8.97931 95.1441 8.80689V7.20685C95.1441 6.84478 95.1614 6.43097 95.1786 6.00165H95.1614L93.4044 9.40863C93.3699 9.4776 93.3527 9.56381 93.3527 9.66726V9.77071H91.7699V9.52932C92.0441 9.51208 92.2165 9.46208 92.2682 9.37415C92.3372 9.28966 92.3716 9.1 92.3716 8.77241V6.32752C92.3716 6.15683 92.3716 6.03441 92.3544 5.94993C92.3372 5.86372 92.3199 5.77751 92.2682 5.72579C92.2165 5.67406 92.1647 5.63958 92.0958 5.62233C92.0285 5.60509 91.9251 5.58785 91.7699 5.58785V5.34647H93.8182V5.58785C93.5596 5.60509 93.4044 5.65682 93.3527 5.72579C93.2837 5.79475 93.2665 5.98441 93.2665 6.31028V7.70514C93.2665 8.11895 93.2493 8.56551 93.232 9.04828L94.9889 5.67406C95.0407 5.58785 95.0579 5.51888 95.0579 5.43268V5.34647H96.6235V5.58785C96.3666 5.60509 96.1941 5.65682 96.1252 5.72579C96.0735 5.81199 96.039 6.00165 96.039 6.31028V8.80689C96.039 9.03104 96.0562 9.18621 96.0735 9.27242C96.1079 9.35863 96.1597 9.4276 96.2286 9.46208C96.3131 9.49656 96.4338 9.51208 96.6235 9.52932V9.77071ZM91.3044 9.77071H89.2216V9.52932C89.3767 9.51208 89.4802 9.51208 89.5492 9.49656C89.6181 9.4776 89.6681 9.44311 89.7199 9.37415C89.7733 9.32415 89.8078 9.25518 89.8078 9.18621C89.8233 9.1 89.8233 8.97931 89.8233 8.80689V7.20685C89.8233 6.84478 89.8423 6.43097 89.8578 6.00165H89.8423L88.0853 9.40863C88.0509 9.4776 88.0336 9.56381 88.0336 9.66726V9.77071H86.4491V9.52932C86.725 9.51208 86.8801 9.46208 86.9491 9.37415C87.0181 9.28966 87.0526 9.1 87.0526 8.77241V6.32752C87.0526 6.15683 87.0353 6.03441 87.0353 5.94993C87.0181 5.86372 87.0008 5.77751 86.9491 5.72579C86.8974 5.67406 86.8457 5.63958 86.7767 5.62233C86.7077 5.60509 86.6043 5.58785 86.4491 5.58785V5.34647H88.4802V5.58785C88.2405 5.60509 88.0853 5.65682 88.0164 5.72579C87.9646 5.79475 87.9302 5.98441 87.9302 6.31028V7.70514C87.9302 8.11895 87.9302 8.56551 87.8957 9.04828H87.9129L89.6681 5.67406C89.7199 5.58785 89.7388 5.51888 89.7388 5.43268V5.34647H91.3044V5.58785C91.0457 5.60509 90.8751 5.65682 90.8061 5.72579C90.7526 5.81199 90.7182 6.00165 90.7182 6.31028V8.80689C90.7182 9.03104 90.7371 9.18621 90.7526 9.27242C90.7871 9.35863 90.8406 9.4276 90.9078 9.46208C90.9768 9.49656 91.1147 9.51208 91.3044 9.52932V9.77071ZM85.9853 9.77071H79.6334V9.52932C79.9248 9.51208 80.08 9.46208 80.1489 9.39311C80.2007 9.34139 80.2351 9.15173 80.2351 8.87586V6.24131C80.2351 6.03441 80.2179 5.8982 80.2007 5.81199C80.1662 5.72579 80.1317 5.67406 80.0627 5.63958C79.9938 5.62233 79.8558 5.58785 79.6834 5.58785V5.34647H81.561V5.58785C81.3714 5.60509 81.2507 5.63958 81.2162 5.70854C81.1645 5.77751 81.1472 5.94993 81.1472 6.22407V9.21897C81.1472 9.34139 81.1645 9.40863 81.1817 9.4276C81.199 9.46208 81.2852 9.46208 81.4231 9.46208H82.0766C82.2145 9.46208 82.3007 9.46208 82.318 9.4276C82.3524 9.40863 82.3697 9.34139 82.3697 9.21897V6.22407C82.3697 5.94993 82.3352 5.79475 82.3007 5.72579C82.249 5.65682 82.1455 5.60509 81.9749 5.58785V5.34647H83.6783V5.58785C83.4887 5.60509 83.3852 5.65682 83.3335 5.70854C83.2818 5.77751 83.2645 5.94993 83.2645 6.22407V9.21897C83.2645 9.34139 83.2818 9.40863 83.3163 9.4276C83.3335 9.46208 83.4197 9.46208 83.5576 9.46208H84.2283C84.349 9.46208 84.418 9.46208 84.4525 9.4276C84.4697 9.39311 84.487 9.32415 84.487 9.21897V6.22407C84.487 5.94993 84.4697 5.77751 84.418 5.70854C84.3663 5.65682 84.2628 5.60509 84.0577 5.58785V5.34647H85.9508V5.58785C85.6922 5.60509 85.537 5.63958 85.4853 5.70854C85.4163 5.77751 85.3991 5.94993 85.3991 6.22407V8.87586C85.3991 9.16897 85.4163 9.34139 85.4853 9.39311C85.537 9.46208 85.7094 9.51208 85.9853 9.52932V9.77071ZM76.8092 5.0706C76.5333 5.0706 76.3092 5.01887 76.1557 4.8999C75.9833 4.77921 75.8971 4.62404 75.8971 4.43438C75.8971 4.34817 75.9316 4.2792 75.9816 4.21023C76.0351 4.14127 76.104 4.12402 76.1902 4.12402C76.2937 4.12402 76.3609 4.15851 76.4126 4.22747C76.4471 4.2792 76.4644 4.36541 76.4644 4.43438C76.4644 4.67576 76.5851 4.81369 76.8265 4.81369C77.0506 4.81369 77.1696 4.67576 77.1696 4.43438C77.1696 4.36541 77.1885 4.2792 77.223 4.22747C77.273 4.15851 77.3437 4.12402 77.4472 4.12402C77.5316 4.12402 77.6006 4.14127 77.6523 4.21023C77.7041 4.26196 77.7385 4.34817 77.7385 4.43438C77.7385 4.62404 77.6523 4.77921 77.4972 4.8999C77.3247 5.01887 77.1023 5.0706 76.8092 5.0706ZM79.1851 9.77071H77.1023V9.52932C77.2575 9.51208 77.3592 9.51208 77.4282 9.49656C77.4972 9.4776 77.5489 9.44311 77.6006 9.37415C77.6523 9.32415 77.6696 9.25518 77.6868 9.18621C77.6868 9.1 77.7041 8.97931 77.7041 8.80689V7.20685C77.7041 6.84478 77.7041 6.43097 77.7385 6.00165H77.7213L75.9661 9.40863C75.9316 9.4776 75.8971 9.56381 75.8971 9.66726V9.77071H74.3298V9.52932C74.6057 9.51208 74.7609 9.46208 74.8299 9.37415C74.8988 9.28966 74.9161 9.1 74.9161 8.77241V5.94993C74.8988 5.86372 74.8643 5.77751 74.8299 5.72579C74.7781 5.67406 74.7264 5.63958 74.6574 5.62233C74.5885 5.60509 74.4678 5.58785 74.3298 5.58785V5.34647H76.3609V5.58785C76.1213 5.60509 75.9488 5.65682 75.8971 5.72579C75.8454 5.79475 75.8109 5.98441 75.8109 6.31028V7.70514C75.8109 8.11895 75.8109 8.56551 75.7764 9.04828H75.7937L77.5489 5.67406C77.6006 5.58785 77.6179 5.51888 77.6179 5.43268V5.34647H79.1851V5.58785C78.9093 5.60509 78.7541 5.65682 78.6851 5.72579C78.6161 5.81199 78.6006 6.00165 78.6006 6.31028V8.80689C78.6006 9.03104 78.6006 9.18621 78.6351 9.27242C78.6679 9.35863 78.7024 9.4276 78.7886 9.46208C78.8575 9.49656 78.9955 9.51208 79.1851 9.52932V9.77071ZM73.7798 8.58275L74.0195 8.63447C73.9695 9.01379 73.8833 9.39311 73.7798 9.77071H70.3194V9.52932C70.6125 9.51208 70.7832 9.46208 70.8522 9.39311C70.9211 9.32415 70.9556 9.15173 70.9556 8.85862V6.24131C70.9556 5.94993 70.9384 5.77751 70.8694 5.70854C70.8177 5.63958 70.6642 5.60509 70.4056 5.58785V5.34647H73.6247V5.55337C73.6419 5.65682 73.6419 5.79475 73.6591 5.94993C73.6591 6.10338 73.6764 6.24131 73.6764 6.36201L73.435 6.39649C73.366 6.12235 73.2626 5.91544 73.1591 5.81199C73.0557 5.6913 72.8315 5.63958 72.4884 5.63958H72.1608C72.0229 5.63958 71.9556 5.65682 71.9212 5.67406C71.885 5.70854 71.8677 5.77751 71.8677 5.87924V7.32582H72.3332C72.6264 7.32582 72.816 7.29134 72.9005 7.24134C72.9695 7.18789 73.0384 7.05168 73.0902 6.81029H73.3315V8.18619H73.0902C73.0384 7.94653 72.9695 7.79135 72.9005 7.73963C72.816 7.6879 72.6264 7.67066 72.3332 7.67066H71.8677V8.84138C71.8677 9.16897 71.9212 9.35863 72.0401 9.40863C72.1436 9.44311 72.3505 9.4776 72.6419 9.4776C73.0212 9.4776 73.2626 9.40863 73.4005 9.25518C73.5384 9.11724 73.6591 8.8931 73.7798 8.58275ZM67.7883 5.87924V7.65342C67.8918 7.70514 68.0125 7.72238 68.1504 7.72238C68.2194 7.72238 68.3038 7.70514 68.3728 7.6879C68.459 7.65342 68.5452 7.60169 68.6314 7.53272C68.7176 7.44652 68.8039 7.34479 68.8556 7.18789C68.9073 7.03271 68.9418 6.84478 68.9418 6.62063C68.9418 6.2758 68.8556 6.0189 68.7004 5.84475C68.528 5.6913 68.3383 5.60509 68.0987 5.60509C67.978 5.60509 67.8918 5.62233 67.84 5.67406C67.8056 5.70854 67.7883 5.77751 67.7883 5.87924ZM66.3417 5.34647H68.2194C68.7694 5.34647 69.1659 5.43268 69.4246 5.60509C69.7504 5.82924 69.9228 6.17235 69.9228 6.60339C69.9228 7.03271 69.7849 7.36031 69.5263 7.60169C69.2521 7.82583 68.9245 7.98101 68.528 8.03274H68.2538L67.7883 7.92929V8.85862C67.7883 9.15173 67.8228 9.32415 67.8918 9.39311C67.9607 9.46208 68.1331 9.51208 68.4263 9.52932V9.77071H66.3072V9.52932C66.5659 9.51208 66.7383 9.46208 66.79 9.39311C66.859 9.32415 66.8762 9.15173 66.8762 8.85862V6.25856C66.8762 5.96717 66.859 5.79475 66.79 5.72579C66.7383 5.65682 66.5831 5.60509 66.3417 5.58785V5.34647ZM63.7761 7.96377L63.2779 6.4827H63.2434C63.1744 6.67236 63.071 6.94823 62.9503 7.31031C62.8123 7.6879 62.7261 7.8948 62.7106 7.96377H63.7761ZM65.7917 9.77071H63.8451V9.52932C64.0348 9.49656 64.1555 9.46208 64.2072 9.39311C64.2417 9.34139 64.2417 9.23794 64.1727 9.08276C64.0882 8.82413 64.0003 8.56551 63.8986 8.32412H62.5899C62.4865 8.63447 62.4003 8.87586 62.3485 9.04828C62.2968 9.20345 62.2796 9.32415 62.3313 9.39311C62.383 9.46208 62.5209 9.49656 62.7623 9.52932V9.77071H61.2468V9.52932C61.4692 9.49656 61.6244 9.44311 61.7123 9.37415C61.7968 9.28966 61.883 9.11724 62.0037 8.82413L63.3986 5.32922L63.7434 5.24302C64.552 7.42927 64.9831 8.61723 65.052 8.78965C65.171 9.08276 65.2572 9.27242 65.3434 9.35863C65.4296 9.44311 65.5848 9.49656 65.7917 9.52932V9.77071ZM61.4347 6.49994H61.1951C61.1088 6.15683 61.0054 5.91544 60.8847 5.79475C60.7812 5.6913 60.5588 5.63958 60.1968 5.63958H59.8864V8.85862C59.8864 9.15173 59.9209 9.32415 59.9898 9.39311C60.0588 9.46208 60.2485 9.51208 60.5588 9.52932V9.77071H58.3381V9.52932C58.6295 9.51208 58.8019 9.46208 58.8709 9.39311C58.9398 9.32415 58.9743 9.15173 58.9743 8.85862V5.63958H58.7502C58.4743 5.63958 58.3036 5.65682 58.2002 5.6913C58.095 5.70854 58.0105 5.76027 57.9588 5.82924C57.8726 5.91544 57.7691 6.15683 57.6829 6.51718H57.4243C57.4243 6.37925 57.4415 6.13786 57.476 5.82924C57.4932 5.51888 57.4932 5.29474 57.5105 5.17405H57.6829C57.7174 5.24302 57.7691 5.29474 57.8208 5.31198C57.8726 5.32922 57.9588 5.34647 58.0622 5.34647H60.7985C60.9537 5.34647 61.0916 5.2775 61.1951 5.17405H61.3502C61.3675 5.51888 61.3847 5.96717 61.4347 6.49994ZM56.6674 8.49826L56.8915 8.59999C56.7881 9.04828 56.6501 9.40863 56.5122 9.68622C56.0122 9.80519 55.5829 9.87416 55.2553 9.87416C54.8087 9.87416 54.4294 9.80519 54.0845 9.66726C53.7569 9.54657 53.4828 9.35863 53.2931 9.15173C53.0862 8.92758 52.9483 8.6862 52.8466 8.4293C52.7414 8.17067 52.6914 7.8948 52.6914 7.60169C52.6914 6.91374 52.9483 6.32752 53.4311 5.8982C53.9294 5.46716 54.5846 5.24302 55.3932 5.24302C55.5139 5.24302 55.6518 5.24302 55.7898 5.26026C55.9432 5.2775 56.0467 5.29474 56.1518 5.31198C56.2363 5.32922 56.3398 5.34647 56.4432 5.38095C56.5467 5.39819 56.6156 5.41543 56.6329 5.41543C56.7018 5.82924 56.7536 6.20683 56.7881 6.53442L56.5294 6.58615C56.3398 5.8982 55.9104 5.55337 55.2553 5.55337C54.7897 5.55337 54.4121 5.74303 54.1363 6.12235C53.8604 6.49994 53.7242 6.94823 53.7242 7.481C53.7242 8.1017 53.8794 8.59999 54.1707 8.97931C54.4811 9.35863 54.8587 9.54656 55.3242 9.54656C55.8587 9.54656 56.3053 9.20345 56.6674 8.49826Z" fill="#2B2A29"/>
<path d="M232.123 9.77071H230.04V9.52932C230.195 9.51208 230.297 9.51208 230.366 9.49484C230.435 9.4776 230.488 9.44311 230.54 9.37415C230.59 9.32242 230.607 9.25345 230.626 9.18621C230.626 9.09828 230.643 8.97931 230.643 8.80689V7.20513C230.643 6.84478 230.643 6.43097 230.676 5.99993H230.659L228.904 9.40863C228.869 9.4776 228.835 9.56381 228.835 9.66726V9.77071H227.269V9.52932C227.543 9.51208 227.7 9.46036 227.767 9.37415C227.836 9.28794 227.854 9.09828 227.854 8.77241V5.9482C227.836 5.86199 227.802 5.77751 227.767 5.72406C227.716 5.67406 227.664 5.63958 227.595 5.62233C227.526 5.60337 227.407 5.58785 227.269 5.58785V5.34647H229.298V5.58785C229.042 5.60337 228.886 5.65682 228.835 5.72406C228.783 5.79303 228.748 5.98269 228.748 6.31028V7.70514C228.748 8.11894 228.748 8.56551 228.714 9.04828H228.731L230.488 5.67406C230.538 5.58785 230.557 5.51888 230.557 5.43267V5.34647H232.123V5.58785C231.849 5.60337 231.693 5.65682 231.624 5.72406C231.555 5.81199 231.536 5.99993 231.536 6.31028V8.80689C231.536 9.02931 231.536 9.18621 231.573 9.2707C231.588 9.3569 231.642 9.42587 231.728 9.46035C231.797 9.49484 231.935 9.51208 232.123 9.52932V9.77071ZM226.786 9.77071H224.721V9.52932C224.857 9.51208 224.978 9.51208 225.047 9.49484C225.117 9.4776 225.169 9.44311 225.219 9.37415C225.271 9.32242 225.288 9.25345 225.305 9.18621C225.305 9.09828 225.324 8.97931 225.324 8.80689V7.20513C225.324 6.84478 225.324 6.43097 225.357 5.99993H225.324L223.585 9.40863C223.533 9.4776 223.516 9.56381 223.516 9.66726V9.77071H221.95V9.52932C222.207 9.51208 222.379 9.46036 222.448 9.37415C222.5 9.28794 222.533 9.09828 222.533 8.77241V6.32752C222.533 6.15511 222.533 6.03441 222.517 5.9482C222.517 5.86199 222.483 5.77751 222.448 5.72406C222.395 5.67406 222.328 5.63958 222.259 5.62233C222.19 5.60337 222.086 5.58785 221.95 5.58785V5.34647H223.979V5.58785C223.722 5.60337 223.567 5.65682 223.516 5.72406C223.464 5.79303 223.429 5.98269 223.429 6.31028V7.70514C223.429 8.11894 223.412 8.56551 223.395 9.04828H223.412L225.15 5.67406C225.202 5.58785 225.236 5.51888 225.236 5.43267V5.34647H226.804V5.58785C226.528 5.60337 226.373 5.65682 226.304 5.72406C226.235 5.81199 226.2 5.99993 226.2 6.31028V8.80689C226.2 9.02931 226.217 9.18621 226.254 9.2707C226.269 9.3569 226.323 9.42587 226.409 9.46035C226.478 9.49484 226.614 9.51208 226.786 9.52932V9.77071ZM221.364 8.49654L221.603 8.59999C221.485 9.04828 221.347 9.40863 221.226 9.6845C220.709 9.80519 220.279 9.87416 219.952 9.87416C219.521 9.87416 219.126 9.80519 218.798 9.66726C218.453 9.54656 218.178 9.3569 217.99 9.15173C217.783 8.92758 217.646 8.6862 217.541 8.42757C217.438 8.16895 217.386 7.8948 217.386 7.60169C217.386 6.91202 217.646 6.32752 218.128 5.89648C218.626 5.46716 219.281 5.24302 220.09 5.24302C220.21 5.24302 220.348 5.24302 220.486 5.26026C220.641 5.2775 220.76 5.29474 220.847 5.31198C220.933 5.32922 221.036 5.34647 221.14 5.38095C221.241 5.39819 221.31 5.41543 221.329 5.41543C221.397 5.82751 221.45 6.20683 221.485 6.53442L221.226 6.58615C221.036 5.89648 220.605 5.55337 219.952 5.55337C219.488 5.55337 219.109 5.74303 218.833 6.12062C218.557 6.49994 218.421 6.9465 218.421 7.481C218.421 8.09998 218.576 8.59999 218.884 8.97931C219.176 9.3569 219.555 9.54656 220.019 9.54656C220.553 9.54656 221.002 9.20173 221.364 8.49654ZM216.646 8.49654L216.888 8.59999C216.767 9.04828 216.646 9.40863 216.509 9.6845C215.993 9.80519 215.579 9.87416 215.234 9.87416C214.805 9.87416 214.426 9.80519 214.081 9.66726C213.738 9.54656 213.479 9.3569 213.272 9.15173C213.083 8.92758 212.927 8.6862 212.826 8.42757C212.739 8.16895 212.688 7.8948 212.688 7.60169C212.688 6.91202 212.927 6.32752 213.427 5.89648C213.926 5.46716 214.562 5.24302 215.372 5.24302C215.51 5.24302 215.648 5.24302 215.784 5.26026C215.922 5.2775 216.045 5.29474 216.131 5.31198C216.215 5.32922 216.319 5.34647 216.424 5.38095C216.543 5.39819 216.595 5.41543 216.612 5.41543C216.681 5.82751 216.733 6.20683 216.767 6.53442L216.526 6.58615C216.319 5.89648 215.907 5.55337 215.252 5.55337C214.771 5.55337 214.408 5.74303 214.133 6.12062C213.857 6.49994 213.719 6.9465 213.719 7.481C213.719 8.09998 213.874 8.59999 214.167 8.97931C214.46 9.3569 214.855 9.54656 215.321 9.54656C215.853 9.54656 216.302 9.20173 216.645 8.49654H216.646ZM209.605 5.5344C209.243 5.5344 208.967 5.70854 208.727 6.05165C208.503 6.39649 208.382 6.86202 208.382 7.42927C208.382 8.03101 208.503 8.54826 208.762 8.96207C209.003 9.37415 209.346 9.58105 209.777 9.58105C210.103 9.58105 210.396 9.42587 210.605 9.09828C210.827 8.77241 210.948 8.30688 210.948 7.70514C210.948 7.03271 210.81 6.49994 210.569 6.12062C210.327 5.72406 210.001 5.5344 209.605 5.5344ZM209.745 5.24302C210.364 5.24302 210.896 5.46716 211.326 5.87924C211.774 6.31028 211.981 6.84478 211.981 7.49824C211.981 8.22067 211.757 8.78965 211.31 9.21897C210.862 9.65001 210.312 9.87416 209.639 9.87416C208.967 9.87416 208.417 9.65001 207.988 9.21897C207.557 8.77241 207.332 8.22067 207.332 7.56721C207.332 6.9465 207.557 6.39649 207.988 5.93096C208.417 5.4844 209.003 5.24302 209.745 5.24302ZM204.544 5.87924V7.65342C204.663 7.70514 204.786 7.72238 204.924 7.72238C204.993 7.72238 205.062 7.70514 205.146 7.6879C205.217 7.65342 205.301 7.60169 205.405 7.53272C205.491 7.44651 205.56 7.34306 205.629 7.18789C205.681 7.03271 205.698 6.84478 205.698 6.62063C205.698 6.2758 205.629 6.01717 205.457 5.84475C205.301 5.68958 205.094 5.60337 204.855 5.60337C204.751 5.60337 204.663 5.62233 204.613 5.67406C204.562 5.70854 204.544 5.77751 204.544 5.87924ZM203.115 5.34647H204.993C205.526 5.34647 205.922 5.43267 206.179 5.60337C206.524 5.82751 206.679 6.17235 206.679 6.60339C206.679 7.03271 206.558 7.36031 206.284 7.60169C206.024 7.82583 205.698 7.97929 205.284 8.03101H205.008L204.544 7.92928V8.85862C204.544 9.15173 204.577 9.32242 204.646 9.39139C204.715 9.46035 204.907 9.51208 205.181 9.52932V9.77071H203.081V9.52932C203.339 9.51208 203.494 9.46035 203.563 9.39139C203.615 9.32242 203.648 9.15173 203.648 8.85862V6.25856C203.648 5.96545 203.615 5.79303 203.563 5.72406C203.494 5.65682 203.355 5.60337 203.115 5.58785V5.34647ZM199.603 9.02931V6.01717C199.603 5.82751 199.603 5.72406 199.568 5.68958C199.551 5.65682 199.467 5.63958 199.344 5.63958H198.622C198.484 5.63958 198.415 5.65682 198.382 5.67406C198.363 5.70854 198.346 5.77751 198.346 5.91372C198.346 6.43097 198.313 6.99995 198.26 7.63617C198.208 8.2724 198.122 8.80689 198.003 9.25345C197.984 9.33966 197.984 9.39139 198.003 9.42587C198.02 9.46035 198.072 9.46035 198.158 9.46035H199.174C199.362 9.46035 199.467 9.44311 199.517 9.39139C199.586 9.33966 199.603 9.21897 199.603 9.02931ZM201.17 9.46035L200.981 10.9931H200.722L200.603 10.2707C200.567 10.0621 200.515 9.92588 200.465 9.85692C200.396 9.80519 200.274 9.77071 200.103 9.77071H197.865C197.71 9.77071 197.605 9.80519 197.537 9.87416C197.468 9.96037 197.399 10.1155 197.348 10.3552L197.16 10.9931H196.899L196.918 9.46035H197.315C197.399 9.46035 197.468 9.42587 197.503 9.32242C197.624 9.06379 197.744 8.65172 197.829 8.08274C197.934 7.53272 197.967 6.84478 197.967 6.03441C197.967 5.87924 197.951 5.79303 197.898 5.72406C197.865 5.67406 197.744 5.63958 197.572 5.62233L197.315 5.58785V5.34647H201.119V5.58785C200.981 5.58785 200.894 5.60337 200.843 5.60337C200.774 5.62233 200.722 5.63958 200.67 5.65682C200.62 5.68958 200.584 5.72406 200.567 5.77751C200.55 5.84475 200.534 5.91372 200.534 5.98269C200.515 6.05165 200.515 6.17235 200.515 6.32752V9.11724C200.515 9.2707 200.534 9.3569 200.55 9.40863C200.584 9.44311 200.636 9.46035 200.722 9.46035H201.17ZM196.47 5.34647V5.58785C196.212 5.60337 196.039 5.63958 195.987 5.70854C195.937 5.77751 195.901 5.9482 195.901 6.24131V8.87413C195.901 9.15173 195.937 9.32242 195.987 9.39139C196.056 9.46035 196.212 9.51208 196.47 9.52932V9.77071H194.405V9.52932C194.679 9.51208 194.834 9.46035 194.903 9.39139C194.955 9.32242 194.989 9.15173 194.989 8.85862V7.60169H193.13V8.85862C193.13 9.15173 193.165 9.32242 193.217 9.39139C193.286 9.46035 193.439 9.51208 193.699 9.52932V9.77071H191.667V9.52932C191.925 9.51208 192.079 9.46035 192.132 9.39139C192.184 9.32242 192.217 9.15173 192.217 8.85862V6.24131C192.217 5.96545 192.184 5.77751 192.132 5.70854C192.063 5.65682 191.908 5.60337 191.634 5.58785V5.34647H193.68V5.58785C193.424 5.60337 193.268 5.65682 193.217 5.70854C193.165 5.77751 193.13 5.96545 193.13 6.24131V7.23961H194.989V6.24131C194.989 5.96545 194.955 5.77751 194.903 5.70854C194.853 5.65682 194.679 5.60337 194.422 5.58785V5.34647H196.47ZM191.08 8.58275L191.323 8.63447C191.272 9.01379 191.186 9.39139 191.099 9.77071H187.62V9.52932C187.913 9.51208 188.104 9.46035 188.173 9.39139C188.241 9.32242 188.275 9.15173 188.275 8.85862V6.24131C188.275 5.9482 188.241 5.77751 188.173 5.70854C188.12 5.63958 187.966 5.60337 187.708 5.58785V5.34647H190.925V5.55337C190.944 5.65682 190.961 5.79303 190.961 5.9482C190.979 6.10338 190.979 6.24131 190.994 6.36201L190.737 6.39649C190.668 6.12062 190.582 5.91372 190.461 5.81199C190.358 5.68958 190.134 5.63958 189.791 5.63958H189.463C189.327 5.63958 189.258 5.65682 189.222 5.67406C189.189 5.70854 189.172 5.77751 189.172 5.87924V7.32582H189.635C189.927 7.32582 190.118 7.29134 190.204 7.23961C190.289 7.18789 190.342 7.04995 190.394 6.81029H190.636V8.18619H190.394C190.342 7.9448 190.289 7.79135 190.204 7.73963C190.118 7.6879 189.927 7.67066 189.635 7.67066H189.172V8.84137C189.172 9.16724 189.239 9.3569 189.342 9.40863C189.446 9.44311 189.653 9.4776 189.963 9.4776C190.325 9.4776 190.565 9.40863 190.704 9.25345C190.841 9.11724 190.961 8.8931 191.08 8.58275ZM185.091 5.87924V7.65342C185.194 7.70514 185.315 7.72238 185.453 7.72238C185.522 7.72238 185.606 7.70514 185.677 7.6879C185.761 7.65342 185.847 7.60169 185.934 7.53272C186.037 7.44651 186.108 7.34306 186.158 7.18789C186.21 7.03271 186.244 6.84478 186.244 6.62063C186.244 6.2758 186.158 6.01717 186.003 5.84475C185.83 5.68958 185.642 5.60337 185.399 5.60337C185.28 5.60337 185.211 5.62233 185.142 5.67406C185.108 5.70854 185.091 5.77751 185.091 5.87924ZM183.646 5.34647H185.537C186.072 5.34647 186.468 5.43267 186.727 5.60337C187.053 5.82751 187.225 6.17235 187.225 6.60339C187.225 7.03271 187.087 7.36031 186.829 7.60169C186.553 7.82583 186.227 7.97929 185.83 8.03101H185.554L185.091 7.92928V8.85862C185.091 9.15173 185.125 9.32242 185.194 9.39139C185.263 9.46035 185.435 9.51208 185.728 9.52932V9.77071H183.609V9.52932C183.87 9.51208 184.041 9.46035 184.092 9.39139C184.161 9.32242 184.196 9.15173 184.196 8.85862V6.25856C184.196 5.96545 184.161 5.79303 184.109 5.72406C184.041 5.65682 183.885 5.60337 183.646 5.58785V5.34647ZM181.356 9.4776C181.544 9.4776 181.734 9.39139 181.923 9.23621C182.094 9.06379 182.182 8.80689 182.182 8.44481C182.182 7.79135 181.854 7.46376 181.201 7.46376C181.115 7.46376 181.009 7.46376 180.89 7.481V8.84137C180.89 9.08276 180.908 9.25345 180.977 9.33966C181.046 9.44311 181.184 9.4776 181.356 9.4776ZM180.89 5.89648V7.18789C181.096 7.17065 181.339 7.17065 181.596 7.17065C182.078 7.17065 182.473 7.2741 182.749 7.481C183.042 7.70514 183.18 7.99825 183.18 8.37585C183.18 8.87413 182.973 9.25345 182.559 9.49484C182.249 9.66726 181.785 9.77071 181.165 9.77071H179.392V9.52932C179.668 9.51208 179.823 9.46035 179.892 9.39139C179.961 9.30518 179.978 9.09828 179.978 8.77241V6.32752C179.978 6.08614 179.978 5.93096 179.942 5.82751C179.909 5.74303 179.873 5.67406 179.806 5.63958C179.737 5.60337 179.599 5.58785 179.428 5.56888V5.34647H182.663C182.663 5.5344 182.697 5.89648 182.732 6.41373L182.473 6.44822C182.404 6.18959 182.318 5.98269 182.216 5.84475C182.163 5.77751 182.094 5.70854 182.009 5.68958C181.923 5.65682 181.768 5.63958 181.561 5.63958H181.149C181.028 5.63958 180.94 5.65682 180.925 5.67406C180.89 5.68958 180.89 5.77751 180.89 5.89648ZM175.071 5.0706C174.795 5.0706 174.571 5.01887 174.399 4.89818C174.245 4.77749 174.159 4.62404 174.159 4.43438C174.159 4.34644 174.192 4.2792 174.245 4.21023C174.297 4.14127 174.366 4.12402 174.452 4.12402C174.554 4.12402 174.623 4.15851 174.677 4.22747C174.709 4.2792 174.727 4.36541 174.727 4.43438C174.727 4.67404 174.847 4.81369 175.089 4.81369C175.313 4.81369 175.433 4.67404 175.433 4.43438C175.433 4.36541 175.451 4.2792 175.483 4.22747C175.537 4.15851 175.606 4.12402 175.708 4.12402C175.794 4.12402 175.863 4.14127 175.914 4.21023C175.968 4.26196 176.001 4.34644 176.001 4.43438C176.001 4.62404 175.914 4.77749 175.744 4.89818C175.589 5.01887 175.364 5.0706 175.071 5.0706ZM177.43 9.77071H175.364V9.52932C175.52 9.51208 175.621 9.51208 175.692 9.49484C175.761 9.4776 175.813 9.44311 175.863 9.37415C175.914 9.32242 175.932 9.25345 175.949 9.18621C175.949 9.09828 175.968 8.97931 175.968 8.80689V7.20513C175.968 6.84478 175.968 6.43097 176.001 5.99993H175.968L174.228 9.40863C174.177 9.4776 174.159 9.56381 174.159 9.66726V9.77071H172.594V9.52932C172.851 9.51208 173.023 9.46036 173.092 9.37415C173.144 9.28794 173.176 9.09828 173.176 8.77241V5.9482C173.161 5.86199 173.126 5.77751 173.092 5.72406C173.039 5.67406 172.971 5.63958 172.92 5.62233C172.851 5.60337 172.73 5.58785 172.594 5.58785V5.34647H174.623V5.58785C174.366 5.60337 174.211 5.65682 174.159 5.72406C174.108 5.79303 174.073 5.98269 174.073 6.31028V7.70514C174.073 8.11894 174.056 8.56551 174.039 9.04828H174.056L175.813 5.67406C175.846 5.58785 175.88 5.51888 175.88 5.43267V5.34647H177.447V5.58785C177.171 5.60337 177.016 5.65682 176.947 5.72406C176.878 5.81199 176.844 5.99993 176.844 6.31028V8.80689C176.844 9.02931 176.861 9.18621 176.897 9.2707C176.913 9.3569 176.966 9.42587 177.052 9.46035C177.121 9.49484 177.258 9.51208 177.43 9.52932V9.77071ZM169.701 5.5344C169.356 5.5344 169.064 5.70854 168.84 6.05165C168.616 6.39649 168.495 6.86202 168.495 7.42927C168.495 8.03101 168.616 8.54826 168.873 8.96207C169.114 9.37415 169.459 9.58105 169.873 9.58105C170.218 9.58105 170.492 9.42587 170.716 9.09828C170.94 8.77241 171.042 8.30688 171.042 7.70514C171.042 7.03271 170.923 6.49994 170.682 6.12062C170.442 5.72406 170.113 5.5344 169.701 5.5344ZM169.838 5.24302C170.475 5.24302 171.009 5.46716 171.44 5.87924C171.87 6.31028 172.094 6.84478 172.094 7.49824C172.094 8.22067 171.87 8.78965 171.421 9.21897C170.975 9.65001 170.423 9.87416 169.752 9.87416C169.082 9.87416 168.53 9.65001 168.099 9.21897C167.668 8.77241 167.445 8.22067 167.445 7.56721C167.445 6.9465 167.65 6.39649 168.082 5.93096C168.511 5.4844 169.097 5.24302 169.838 5.24302Z" fill="#2B2A29"/>
</svg>
