<svg width="179" height="49" viewBox="0 0 179 49" fill="none" xmlns="http://www.w3.org/2000/svg">
<path d="M13.8221 38.7254H15.6973L16.2818 36.9224L16.8615 38.7254H18.7172L17.217 39.8188L17.7771 41.6218L16.2818 40.5089L14.7622 41.6218L15.3418 39.8188L13.8221 38.7254ZM13.9292 7.78268H15.7656L16.3354 6.03315L16.9053 7.78268H18.7415L17.2609 8.87614L17.821 10.6111L16.3403 9.53222L14.8595 10.6111L15.4197 8.87614L13.939 7.78268H13.9292ZM7.23686 14.1831H9.1121L9.68192 12.2197L10.2811 14.1831H12.1661L10.6318 15.296L11.2114 17.0942L9.69655 15.9813L8.17689 17.0942L8.75652 15.296L7.23686 14.1831ZM4.67483 23.4946H6.51598L7.07607 21.7401L7.64598 23.4946H9.48222L8.00156 24.588L8.56165 26.3376L7.08098 25.2636L5.60031 26.3376L6.17013 24.588L4.67973 23.4946H4.67483ZM6.87156 32.3735H8.75652L9.33616 30.5754L9.92061 32.3735H11.8056L10.2859 33.5108L10.8705 35.3089L9.33125 34.196L7.81159 35.3089L8.38149 33.5108L6.86665 32.3735H6.87156ZM44.4006 14.6254H23.4126V2.54863C23.8559 2.51945 24.304 2.5 24.7375 2.5C33.3051 2.5 40.7573 7.44737 44.4006 14.6254ZM45.9739 30.449L23.4175 30.4344L23.4369 30.415L23.4175 17.4295H45.5842C46.3684 19.6505 46.7727 22.0561 46.7727 24.5491C46.7727 26.5757 46.4902 28.5586 45.9787 30.4442L45.9739 30.449ZM2.70215 24.4909V24.6123C2.73142 35.4206 10.5977 44.4211 20.8945 46.2484V2.85476C10.5977 4.67237 2.73623 13.6874 2.70215 24.4909ZM23.4175 46.5497V33.2823L23.4759 33.2969H44.9754C41.5804 41.1115 33.7775 46.5837 24.7472 46.5837C24.3137 46.5837 23.8656 46.5692 23.4223 46.5545L23.4175 46.5497Z" fill="#35347E"/>
<path d="M58.0145 14.5483V18.9902H63.7912V21.6923H58.0145V26.2266H65.4375V29.0258H54.4102V11.749H65.4375V14.5483H58.0145Z" fill="#35347E"/>
<path d="M75.3304 11.7539C76.4893 11.7539 77.4837 11.8608 78.3063 12.0795C79.1298 12.2982 79.8015 12.6092 80.3232 13.0077C80.8441 13.4111 81.224 13.8971 81.463 14.4657C81.7012 15.0391 81.8184 15.6758 81.8184 16.3805C81.8184 16.779 81.7603 17.158 81.643 17.5225C81.5258 17.887 81.3503 18.2321 81.1067 18.5528C80.8641 18.8736 80.5523 19.1652 80.1723 19.4276C79.7924 19.69 79.3343 19.9136 78.8135 20.0934C79.9915 20.3704 80.8641 20.8224 81.4285 21.4493C81.9939 22.0762 82.2766 22.8878 82.2766 23.8889C82.2766 24.6179 82.1348 25.2983 81.8521 25.9253C81.5703 26.5522 81.1604 27.0964 80.615 27.5582C80.0696 28.0198 79.407 28.3795 78.6181 28.637C77.8245 28.8946 76.9183 29.0258 75.8903 29.0258H69.1836V11.749H75.3304V11.7539ZM72.7636 14.4706V19.136H75.1159C75.6176 19.136 76.0612 19.0923 76.4511 19.0097C76.8402 18.927 77.1665 18.7958 77.4301 18.6112C77.6928 18.4265 77.8927 18.1883 78.0336 17.8919C78.1754 17.5954 78.2436 17.2359 78.2436 16.813C78.2436 16.3902 78.1845 16.0209 78.0727 15.7196C77.9554 15.4182 77.7809 15.1752 77.5419 14.9954C77.3028 14.8107 77.001 14.6795 76.6357 14.5969C76.2703 14.5143 75.8367 14.4706 75.335 14.4706H72.7681H72.7636ZM75.8321 26.2946C76.4066 26.2946 76.8747 26.2266 77.2446 26.0856C77.6146 25.9447 77.9118 25.76 78.1363 25.5316C78.3599 25.3032 78.5163 25.0359 78.6035 24.7395C78.6917 24.443 78.7353 24.1319 78.7353 23.8161C78.7353 23.4661 78.6817 23.1551 78.579 22.8732C78.4772 22.5963 78.3063 22.3581 78.0772 22.1637C77.8491 21.9693 77.5464 21.8187 77.1765 21.7166C76.8065 21.6145 76.353 21.5611 75.8076 21.5611H72.7636V26.2897H75.8321V26.2946Z" fill="#35347E"/>
<path d="M91.9395 11.752C93.1229 11.752 94.1509 11.8928 95.0135 12.1699C95.8752 12.4469 96.586 12.8357 97.1413 13.3314C97.6967 13.8271 98.1112 14.4152 98.3784 15.1004C98.6465 15.7857 98.7783 16.5244 98.7783 17.3262C98.7783 18.1766 98.6366 18.9542 98.3593 19.6589C98.0821 20.3636 97.6576 20.9711 97.0932 21.4814C96.5278 21.9916 95.817 22.3853 94.9544 22.6672C94.0973 22.949 93.0893 23.09 91.9349 23.09H89.6653V29.0336H86.085V11.7568H91.9349L91.9395 11.752ZM91.9395 20.349C93.0602 20.349 93.8828 20.0769 94.4045 19.5374C94.9253 18.998 95.1889 18.2593 95.1889 17.3213C95.1889 16.8937 95.1253 16.5 94.9935 16.1501C94.8626 15.7954 94.6627 15.4941 94.3945 15.2462C94.1264 14.9983 93.791 14.8039 93.3865 14.6678C92.982 14.5318 92.5003 14.4638 91.9449 14.4638H89.6744V20.3442H91.9449L91.9395 20.349Z" fill="#35347E"/>
<path d="M119.295 20.3832C119.295 21.6467 119.08 22.8179 118.657 23.8968C118.233 24.9757 117.629 25.9088 116.854 26.696C116.08 27.4834 115.145 28.1005 114.054 28.5476C112.962 28.9947 111.754 29.2183 110.425 29.2183C109.096 29.2183 107.888 28.9947 106.796 28.5476C105.705 28.1005 104.77 27.4834 103.991 26.696C103.211 25.9088 102.608 24.9757 102.184 23.8968C101.759 22.8179 101.546 21.6467 101.546 20.3832C101.546 19.1195 101.759 17.9532 102.184 16.8792C102.608 15.8052 103.211 14.872 103.991 14.0847C104.77 13.2975 105.705 12.6802 106.796 12.2331C107.888 11.786 109.096 11.5625 110.425 11.5625C111.754 11.5625 112.962 11.786 114.054 12.2331C115.145 12.6802 116.075 13.3023 116.854 14.0896C117.629 14.8818 118.233 15.81 118.657 16.8889C119.08 17.9629 119.295 19.1293 119.295 20.3832ZM115.632 20.3832C115.632 19.4792 115.51 18.6676 115.271 17.9484C115.033 17.2291 114.686 16.6168 114.238 16.1162C113.79 15.6107 113.245 15.2268 112.602 14.9595C111.964 14.6923 111.238 14.561 110.425 14.561C109.612 14.561 108.886 14.6923 108.243 14.9595C107.6 15.2268 107.05 15.6107 106.601 16.1162C106.153 16.6216 105.808 17.2291 105.569 17.9484C105.33 18.6676 105.208 19.4792 105.208 20.3832C105.208 21.2871 105.33 22.1132 105.569 22.8277C105.808 23.5469 106.153 24.1544 106.601 24.6549C107.05 25.1555 107.6 25.5394 108.243 25.8019C108.886 26.0691 109.616 26.2004 110.425 26.2004C111.233 26.2004 111.964 26.0691 112.602 25.8019C113.24 25.5346 113.786 25.1555 114.238 24.6549C114.686 24.1544 115.033 23.5469 115.271 22.8277C115.51 22.1084 115.632 21.2919 115.632 20.3832Z" fill="#35347E"/>
<path d="M137.788 11.752V29.0287H134.183V18.7307C134.183 18.3031 134.193 17.851 134.217 17.3797C134.242 16.9082 134.29 16.4076 134.358 15.8876C134.183 16.3542 133.998 16.7916 133.798 17.195C133.598 17.5984 133.408 17.9531 133.224 18.2544L127.223 27.9352C127.145 28.0713 127.047 28.2025 126.936 28.3289C126.823 28.4552 126.701 28.5718 126.57 28.6788C126.438 28.7857 126.298 28.8732 126.141 28.9364C125.986 28.9996 125.819 29.0336 125.645 29.0336H122.946V11.7568H126.55V22.0548C126.55 22.4825 126.541 22.9345 126.517 23.4059C126.492 23.8772 126.443 24.3778 126.375 24.8978C126.55 24.4313 126.736 23.9939 126.936 23.5906C127.135 23.1872 127.325 22.8324 127.51 22.5311L133.511 12.8406C133.589 12.7142 133.686 12.583 133.798 12.4517C133.91 12.3206 134.032 12.2039 134.164 12.1019C134.295 11.9998 134.436 11.9172 134.592 11.854C134.748 11.7909 134.913 11.7568 135.089 11.7568H137.788V11.752Z" fill="#35347E"/>
<path d="M157.27 11.752V29.0287H153.666V21.5883H146.039V29.0287H142.435V11.752H146.039V19.0855H153.666V11.752H157.27Z" fill="#35347E"/>
<path d="M173.778 24.7783C173.978 24.7783 174.143 24.8512 174.28 24.9921L175.702 26.5035C175.001 27.3929 174.133 28.0684 173.096 28.5301C172.058 28.9917 170.821 29.2202 169.39 29.2202C168.094 29.2202 166.925 29.0015 165.892 28.5593C164.86 28.117 163.978 27.5047 163.257 26.7174C162.532 25.9301 161.976 24.9969 161.586 23.9181C161.197 22.8392 161.002 21.6583 161.002 20.3802C161.002 19.5248 161.095 18.7083 161.285 17.9356C161.47 17.163 161.743 16.4485 162.103 15.7973C162.464 15.1461 162.892 14.558 163.399 14.0332C163.905 13.5083 164.475 13.0612 165.113 12.6919C165.751 12.3225 166.443 12.0406 167.193 11.8463C167.943 11.6519 168.747 11.5547 169.599 11.5547C170.237 11.5547 170.836 11.6081 171.406 11.7198C171.976 11.8316 172.506 11.9872 172.999 12.1864C173.491 12.3856 173.949 12.6238 174.363 12.9056C174.782 13.1875 175.157 13.4937 175.492 13.829L174.29 15.4717C174.216 15.5738 174.129 15.6661 174.017 15.7438C173.904 15.8216 173.754 15.8653 173.564 15.8653C173.374 15.8653 173.179 15.7973 172.985 15.6612C172.789 15.5251 172.551 15.3745 172.268 15.2093C171.986 15.044 171.63 14.8933 171.207 14.7573C170.783 14.6212 170.242 14.5532 169.59 14.5532C168.863 14.5532 168.201 14.6844 167.597 14.9469C166.993 15.2093 166.472 15.5883 166.038 16.084C165.605 16.5798 165.269 17.1872 165.03 17.9113C164.791 18.6354 164.67 19.4568 164.67 20.3752C164.67 21.2938 164.801 22.1297 165.059 22.8587C165.318 23.5828 165.673 24.2 166.121 24.7005C166.569 25.2011 167.095 25.5802 167.694 25.8377C168.293 26.0953 168.937 26.2266 169.623 26.2266C170.028 26.2266 170.398 26.2071 170.729 26.1682C171.06 26.1293 171.368 26.0613 171.649 25.9641C171.932 25.8669 172.2 25.7454 172.448 25.5948C172.696 25.4441 172.95 25.2545 173.208 25.0213C173.296 24.9484 173.388 24.8901 173.481 24.8415C173.578 24.7929 173.681 24.7686 173.793 24.7686L173.778 24.7783Z" fill="#35347E"/>
<path d="M58.5256 38.0989C58.5646 38.0989 58.5987 38.1135 58.623 38.1426L58.8958 38.4342C58.6864 38.6724 58.4379 38.8619 58.1408 38.998C57.8437 39.1341 57.4881 39.1973 57.0693 39.1973C56.704 39.1973 56.3776 39.1341 56.0804 39.0077C55.7834 38.8813 55.5301 38.7064 55.3206 38.478C55.1112 38.2496 54.9456 37.9774 54.8335 37.6615C54.7166 37.3457 54.6582 36.9957 54.6582 36.6118C54.6582 36.2279 54.7167 35.8828 54.8384 35.5621C54.9602 35.2462 55.1258 34.9691 55.345 34.7407C55.5641 34.5123 55.8223 34.3374 56.1291 34.211C56.436 34.0847 56.7672 34.0215 57.1374 34.0215C57.5076 34.0215 57.8145 34.0798 58.0921 34.1965C58.3697 34.3131 58.6084 34.4686 58.8227 34.6678L58.5986 34.9838C58.5986 34.9838 58.5646 35.0275 58.5451 35.042C58.5256 35.0567 58.4915 35.0664 58.4525 35.0664C58.4087 35.0664 58.36 35.042 58.2967 34.9983C58.2333 34.9546 58.1555 34.9012 58.058 34.8428C57.9606 34.7845 57.834 34.7359 57.6878 34.6873C57.5368 34.6436 57.3566 34.6193 57.1374 34.6193C56.8744 34.6193 56.6357 34.663 56.4215 34.7554C56.2022 34.8477 56.0172 34.9789 55.8613 35.149C55.7054 35.3191 55.5837 35.5281 55.496 35.7759C55.4083 36.0238 55.3645 36.3007 55.3645 36.6118C55.3645 36.9228 55.4083 37.2096 55.5009 37.4574C55.5934 37.7052 55.7151 37.9142 55.871 38.0844C56.0269 38.2544 56.2119 38.3857 56.4263 38.4731C56.6406 38.5607 56.8696 38.6092 57.118 38.6092C57.269 38.6092 57.4053 38.5995 57.5271 38.5849C57.6489 38.5655 57.7609 38.5412 57.8631 38.5023C57.9655 38.4634 58.0628 38.4148 58.1505 38.3613C58.2383 38.3031 58.3259 38.235 58.4136 38.1573C58.4525 38.1232 58.4915 38.1038 58.5353 38.1038L58.5256 38.0989Z" fill="#35347E"/>
<path d="M65.2725 34.6623H63.631V39.143H62.9491V34.6623H61.3027V34.0889H65.2725V34.6623Z" fill="#35347E"/>
<path d="M69.6702 34.083C69.9916 34.083 70.2692 34.1219 70.5079 34.1948C70.7466 34.2677 70.9414 34.3746 71.0973 34.5107C71.2532 34.6467 71.3704 34.812 71.4477 35.0064C71.5258 35.2007 71.5649 35.4146 71.5649 35.6528C71.5649 35.8909 71.5258 36.1047 71.4431 36.2991C71.3604 36.4934 71.2386 36.6636 71.0826 36.8045C70.9219 36.9455 70.7272 37.0573 70.4933 37.135C70.2595 37.2128 69.9867 37.2516 69.6799 37.2516H68.8665V39.1421H68.1846V34.083H69.6799H69.6702ZM69.6702 36.7073C69.865 36.7073 70.0404 36.683 70.1864 36.6296C70.3375 36.5761 70.4641 36.5081 70.5664 36.4109C70.6687 36.3136 70.7466 36.2068 70.8001 36.0755C70.8538 35.9443 70.8781 35.8034 70.8781 35.6478C70.8781 35.3271 70.7807 35.0744 70.581 34.8946C70.3813 34.7148 70.0794 34.6225 69.6751 34.6225H68.8616V36.7073H69.6751H69.6702Z" fill="#35347E"/>
<path d="M78.3398 39.1421H77.809C77.7454 39.1421 77.6972 39.1275 77.6626 39.0984C77.6236 39.0692 77.5945 39.0303 77.5799 38.9818L77.1073 37.7619H74.8331L74.3605 38.9818C74.3459 39.0255 74.3214 39.0595 74.2777 39.0935C74.2387 39.1275 74.185 39.1421 74.1269 39.1421H73.6006L75.6266 34.083H76.3183L78.3444 39.1421H78.3398ZM76.9128 37.2662L76.1184 35.2105C76.0947 35.1473 76.0702 35.0793 76.0456 34.9967C76.0211 34.9141 75.9966 34.8314 75.9729 34.7391C75.9238 34.9286 75.8702 35.089 75.822 35.2154L75.0276 37.271H76.9228L76.9128 37.2662Z" fill="#35347E"/>
<path d="M85.0227 39.143H84.3456C84.2919 39.143 84.2528 39.1285 84.2238 39.1042C84.1947 39.0799 84.1701 39.0459 84.151 39.0167L82.7922 36.893C82.7722 36.9513 82.7531 36.9998 82.7286 37.0387L81.4042 39.0216C81.3797 39.0556 81.3551 39.0848 81.326 39.109C81.297 39.1382 81.2624 39.148 81.2143 39.148H80.5762L82.3195 36.5479L80.6443 34.0889H81.326C81.3742 34.0889 81.4133 34.0985 81.4378 34.1131C81.4624 34.1277 81.4815 34.152 81.5015 34.186L82.8258 36.2126C82.8403 36.164 82.8649 36.1105 82.8994 36.0522L84.1465 34.2006C84.1656 34.1666 84.1847 34.1423 84.2147 34.1229C84.2438 34.1034 84.2728 34.0937 84.3065 34.0937H84.9591L83.2794 36.5237L85.0182 39.1528L85.0227 39.143Z" fill="#35347E"/>
<path d="M92.3788 36.6176C92.3788 36.9967 92.3197 37.3418 92.1979 37.6625C92.0761 37.9832 91.9061 38.2506 91.6871 38.479C91.468 38.7074 91.2044 38.8824 90.8981 39.0087C90.5909 39.1351 90.2501 39.1982 89.8747 39.1982C89.5002 39.1982 89.1639 39.1351 88.8566 39.0087C88.5503 38.8824 88.2867 38.7074 88.0677 38.479C87.8486 38.2506 87.6787 37.9784 87.5569 37.6625C87.4351 37.3466 87.376 36.9967 87.376 36.6176C87.376 36.2386 87.4351 35.8887 87.5569 35.5728C87.6787 35.2569 87.8486 34.9847 88.0677 34.7515C88.2867 34.5231 88.5503 34.3432 88.8566 34.2169C89.1639 34.0905 89.5047 34.0273 89.8747 34.0273C90.2455 34.0273 90.5864 34.0905 90.8981 34.2169C91.2044 34.3432 91.468 34.5231 91.6871 34.7515C91.9061 34.9799 92.0761 35.2521 92.1979 35.5728C92.3197 35.8935 92.3788 36.2386 92.3788 36.6176ZM91.6725 36.6176C91.6725 36.3066 91.628 36.0296 91.5453 35.7818C91.4626 35.5339 91.3408 35.3249 91.1853 35.1548C91.029 34.9847 90.839 34.8535 90.62 34.7612C90.3964 34.6689 90.1528 34.6251 89.8747 34.6251C89.5974 34.6251 89.3584 34.6689 89.1348 34.7612C88.9103 34.8535 88.7258 34.9847 88.5649 35.1548C88.4085 35.3249 88.2867 35.5339 88.204 35.7818C88.1213 36.0296 88.0777 36.3066 88.0777 36.6176C88.0777 36.9287 88.1213 37.2056 88.204 37.4535C88.2867 37.7014 88.4085 37.9055 88.5649 38.0805C88.7203 38.2506 88.9103 38.3818 89.1348 38.4741C89.3584 38.5664 89.602 38.6101 89.8747 38.6101C90.1473 38.6101 90.3964 38.5664 90.62 38.4741C90.8445 38.3818 91.029 38.2506 91.1853 38.0805C91.3408 37.9103 91.4626 37.7014 91.5453 37.4535C91.628 37.2056 91.6725 36.9287 91.6725 36.6176Z" fill="#35347E"/>
<path d="M97.1212 34.083C97.433 34.083 97.7012 34.1122 97.9248 34.1754C98.1493 34.2385 98.3338 34.326 98.4801 34.4378C98.6265 34.5496 98.7337 34.6905 98.8019 34.8509C98.8701 35.0161 98.9037 35.1959 98.9037 35.4049C98.9037 35.5312 98.8846 35.6478 98.8455 35.7645C98.8064 35.8812 98.7483 35.9832 98.6701 36.0852C98.5919 36.1825 98.4947 36.2747 98.3729 36.3525C98.2565 36.4303 98.1147 36.4935 97.9538 36.547C98.3247 36.6199 98.6065 36.751 98.7919 36.9455C98.9819 37.1399 99.0746 37.3926 99.0746 37.7084C99.0746 37.9223 99.0355 38.1166 98.9573 38.2965C98.8791 38.4715 98.7628 38.627 98.6119 38.7533C98.461 38.8797 98.2711 38.9768 98.052 39.0497C97.8275 39.1178 97.5794 39.1518 97.2967 39.1518H95.5088V34.0927H97.1258L97.1212 34.083ZM96.186 34.6225V36.3476H97.0922C97.2867 36.3476 97.4521 36.3283 97.5985 36.2845C97.7448 36.2407 97.862 36.1825 97.9538 36.1096C98.0466 36.0367 98.1147 35.9443 98.1584 35.8374C98.2029 35.7305 98.2265 35.6138 98.2265 35.4875C98.2265 35.1862 98.1393 34.9723 97.9593 34.8314C97.7784 34.6905 97.5012 34.6273 97.1258 34.6273H96.1905L96.186 34.6225ZM97.2821 38.5978C97.4766 38.5978 97.6475 38.5735 97.7884 38.5297C97.9302 38.486 98.0466 38.4228 98.1393 38.3402C98.232 38.2576 98.2947 38.1604 98.3392 38.0486C98.3829 37.9368 98.402 37.8154 98.402 37.6792C98.402 37.4168 98.3101 37.2128 98.1247 37.0621C97.9393 36.9115 97.6566 36.8337 97.2867 36.8337H96.1905V38.5929H97.2867L97.2821 38.5978Z" fill="#35347E"/>
<path d="M106.917 36.6176C106.917 36.9967 106.859 37.3418 106.737 37.6625C106.615 37.9832 106.444 38.2506 106.225 38.479C106.006 38.7074 105.743 38.8824 105.436 39.0087C105.13 39.1351 104.789 39.1982 104.414 39.1982C104.038 39.1982 103.703 39.1351 103.396 39.0087C103.088 38.8824 102.826 38.7074 102.607 38.479C102.388 38.2506 102.217 37.9784 102.095 37.6625C101.973 37.3466 101.915 36.9967 101.915 36.6176C101.915 36.2386 101.973 35.8887 102.095 35.5728C102.217 35.2569 102.388 34.9847 102.607 34.7515C102.826 34.5231 103.088 34.3432 103.396 34.2169C103.703 34.0905 104.044 34.0273 104.414 34.0273C104.784 34.0273 105.125 34.0905 105.436 34.2169C105.743 34.3432 106.006 34.5231 106.225 34.7515C106.444 34.9799 106.615 35.2521 106.737 35.5728C106.859 35.8935 106.917 36.2386 106.917 36.6176ZM106.211 36.6176C106.211 36.3066 106.167 36.0296 106.084 35.7818C106.002 35.5339 105.88 35.3249 105.723 35.1548C105.568 34.9847 105.378 34.8535 105.159 34.7612C104.935 34.6689 104.691 34.6251 104.414 34.6251C104.136 34.6251 103.897 34.6689 103.673 34.7612C103.449 34.8535 103.264 34.9847 103.103 35.1548C102.948 35.3249 102.826 35.5339 102.743 35.7818C102.66 36.0296 102.617 36.3066 102.617 36.6176C102.617 36.9287 102.66 37.2056 102.743 37.4535C102.826 37.7014 102.948 37.9055 103.103 38.0805C103.259 38.2506 103.449 38.3818 103.673 38.4741C103.897 38.5664 104.141 38.6101 104.414 38.6101C104.686 38.6101 104.935 38.5664 105.159 38.4741C105.383 38.3818 105.568 38.2506 105.723 38.0805C105.88 37.9103 106.002 37.7014 106.084 37.4535C106.167 37.2056 106.211 36.9287 106.211 36.6176Z" fill="#35347E"/>
<path d="M113.176 38.589V39.148H110.049V34.0889H113.171V34.6477H110.736V36.3292H112.708V36.8638H110.736V38.589H113.176Z" fill="#35347E"/>
<path d="M124.93 36.6176C124.93 36.9967 124.872 37.3418 124.75 37.6625C124.628 37.9832 124.457 38.2506 124.238 38.479C124.019 38.7074 123.756 38.8824 123.449 39.0087C123.142 39.1351 122.801 39.1982 122.431 39.1982C122.061 39.1982 121.721 39.1351 121.413 39.0087C121.106 38.8824 120.843 38.7074 120.624 38.479C120.405 38.2506 120.234 37.9784 120.113 37.6625C119.991 37.3466 119.933 36.9967 119.933 36.6176C119.933 36.2386 119.991 35.8887 120.113 35.5728C120.234 35.2569 120.405 34.9847 120.624 34.7515C120.843 34.5231 121.106 34.3432 121.413 34.2169C121.721 34.0905 122.061 34.0273 122.431 34.0273C122.801 34.0273 123.142 34.0905 123.449 34.2169C123.756 34.3432 124.019 34.5231 124.238 34.7515C124.457 34.9799 124.628 35.2521 124.75 35.5728C124.872 35.8935 124.93 36.2386 124.93 36.6176ZM124.224 36.6176C124.224 36.3066 124.18 36.0296 124.097 35.7818C124.014 35.5339 123.893 35.3249 123.737 35.1548C123.581 34.9847 123.391 34.8535 123.171 34.7612C122.948 34.6689 122.704 34.6251 122.427 34.6251C122.149 34.6251 121.91 34.6689 121.686 34.7612C121.462 34.8535 121.277 34.9847 121.116 35.1548C120.961 35.3249 120.839 35.5339 120.751 35.7818C120.668 36.0296 120.624 36.3066 120.624 36.6176C120.624 36.9287 120.668 37.2056 120.751 37.4535C120.833 37.7014 120.955 37.9055 121.116 38.0805C121.272 38.2506 121.462 38.3818 121.686 38.4741C121.91 38.5664 122.153 38.6101 122.427 38.6101C122.699 38.6101 122.948 38.5664 123.171 38.4741C123.396 38.3818 123.581 38.2506 123.737 38.0805C123.893 37.9103 124.014 37.7014 124.097 37.4535C124.18 37.2056 124.224 36.9287 124.224 36.6176Z" fill="#35347E"/>
<path d="M129.732 36.2661C130.038 36.2661 130.306 36.3001 130.53 36.3681C130.754 36.4361 130.94 36.5285 131.085 36.65C131.231 36.7714 131.339 36.9172 131.407 37.0825C131.475 37.2477 131.508 37.4324 131.508 37.6317C131.508 37.8649 131.47 38.0739 131.392 38.2635C131.314 38.453 131.198 38.6085 131.046 38.7397C130.895 38.8709 130.705 38.973 130.486 39.041C130.262 39.109 130.013 39.148 129.732 39.148H128.065V34.0889H131.343V34.6282H128.752V36.2661H129.741H129.732ZM129.732 38.6036C129.926 38.6036 130.096 38.5793 130.238 38.5356C130.379 38.4919 130.491 38.4287 130.579 38.3509C130.666 38.2732 130.73 38.1759 130.773 38.0642C130.812 37.9524 130.837 37.8309 130.837 37.6948C130.837 37.5538 130.818 37.4275 130.773 37.3206C130.734 37.2088 130.666 37.1165 130.579 37.0436C130.491 36.9707 130.374 36.9075 130.238 36.8687C130.096 36.8298 129.931 36.8103 129.736 36.8103H128.747V38.6036H129.732Z" fill="#35347E"/>
<path d="M141.694 38.6085V40.1733C141.694 40.2365 141.674 40.2851 141.63 40.3191C141.591 40.358 141.537 40.3775 141.474 40.3775H141.065V39.148H134.597V34.0889H135.284V38.6085H137.407V34.0889H138.093V38.6085H140.232V34.0889H140.924V38.6085H141.698H141.694Z" fill="#35347E"/>
<path d="M147.807 38.589V39.148H144.68V34.0889H147.802V34.6477H145.367V36.3292H147.339V36.8638H145.367V38.589H147.807Z" fill="#35347E"/>
<path d="M154.368 38.0989C154.407 38.0989 154.44 38.1135 154.465 38.1426L154.737 38.4342C154.528 38.6724 154.279 38.8619 153.982 38.998C153.686 39.1341 153.33 39.1973 152.911 39.1973C152.546 39.1973 152.22 39.1341 151.922 39.0077C151.625 38.8813 151.372 38.7064 151.163 38.478C150.953 38.2496 150.793 37.9774 150.675 37.6615C150.558 37.3457 150.5 36.9957 150.5 36.6118C150.5 36.2279 150.558 35.8828 150.68 35.5621C150.802 35.2462 150.967 34.9691 151.187 34.7407C151.406 34.5123 151.664 34.3374 151.971 34.211C152.273 34.0847 152.609 34.0215 152.98 34.0215C153.35 34.0215 153.656 34.0798 153.934 34.1965C154.211 34.3131 154.455 34.4686 154.665 34.6678L154.44 34.9838C154.44 34.9838 154.407 35.0275 154.387 35.042C154.368 35.0567 154.333 35.0664 154.294 35.0664C154.25 35.0664 154.202 35.042 154.139 34.9983C154.075 34.9546 153.998 34.9012 153.899 34.8428C153.802 34.7845 153.676 34.7359 153.53 34.6873C153.383 34.6436 153.199 34.6193 152.984 34.6193C152.721 34.6193 152.482 34.663 152.268 34.7554C152.049 34.8477 151.863 34.9789 151.708 35.149C151.553 35.3191 151.431 35.5281 151.343 35.7759C151.255 36.0238 151.211 36.3007 151.211 36.6118C151.211 36.9228 151.255 37.2096 151.347 37.4574C151.44 37.7052 151.562 37.9142 151.718 38.0844C151.873 38.2544 152.059 38.3857 152.273 38.4731C152.487 38.5607 152.716 38.6092 152.965 38.6092C153.116 38.6092 153.252 38.5995 153.374 38.5849C153.496 38.5703 153.608 38.5412 153.709 38.5023C153.812 38.4634 153.909 38.4148 153.998 38.3613C154.085 38.3031 154.172 38.235 154.26 38.1573C154.299 38.1232 154.343 38.1038 154.382 38.1038L154.368 38.0989Z" fill="#35347E"/>
<path d="M161.115 34.6623H159.473V39.143H158.792V34.6623H157.145V34.0889H161.115V34.6623Z" fill="#35347E"/>
<path d="M165.633 34.083C165.945 34.083 166.213 34.1122 166.437 34.1754C166.661 34.2385 166.846 34.326 166.993 34.4378C167.138 34.5496 167.245 34.6905 167.314 34.8509C167.382 35.0161 167.416 35.1959 167.416 35.4049C167.416 35.5312 167.396 35.6478 167.357 35.7645C167.319 35.8812 167.26 35.9832 167.183 36.0852C167.105 36.1825 167.007 36.2747 166.886 36.3525C166.768 36.4303 166.627 36.4935 166.467 36.547C166.836 36.6199 167.119 36.751 167.305 36.9455C167.494 37.1399 167.586 37.3926 167.586 37.7084C167.586 37.9223 167.547 38.1166 167.47 38.2965C167.392 38.4715 167.275 38.627 167.124 38.7533C166.973 38.8797 166.783 38.9768 166.564 39.0497C166.339 39.1178 166.091 39.1518 165.808 39.1518H164.021V34.0927H165.638L165.633 34.083ZM164.699 34.6225V36.3476H165.604C165.799 36.3476 165.965 36.3283 166.111 36.2845C166.257 36.2407 166.374 36.1825 166.467 36.1096C166.559 36.0367 166.627 35.9443 166.671 35.8374C166.715 35.7305 166.739 35.6138 166.739 35.4875C166.739 35.1862 166.651 34.9723 166.471 34.8314C166.291 34.6905 166.013 34.6273 165.638 34.6273H164.703L164.699 34.6225ZM165.794 38.5978C165.989 38.5978 166.159 38.5735 166.301 38.5297C166.442 38.486 166.559 38.4228 166.651 38.3402C166.744 38.2576 166.807 38.1604 166.851 38.0486C166.895 37.9368 166.915 37.8154 166.915 37.6792C166.915 37.4168 166.822 37.2128 166.637 37.0621C166.452 36.9115 166.169 36.8337 165.799 36.8337H164.703V38.5929H165.799L165.794 38.5978Z" fill="#35347E"/>
<path d="M175.424 36.6176C175.424 36.9967 175.366 37.3418 175.244 37.6625C175.122 37.9832 174.952 38.2506 174.732 38.479C174.513 38.7074 174.25 38.8824 173.943 39.0087C173.637 39.1351 173.296 39.1982 172.921 39.1982C172.545 39.1982 172.21 39.1351 171.903 39.0087C171.595 38.8824 171.333 38.7074 171.114 38.479C170.895 38.2506 170.724 37.9784 170.602 37.6625C170.48 37.3466 170.422 36.9967 170.422 36.6176C170.422 36.2386 170.48 35.8887 170.602 35.5728C170.724 35.2569 170.895 34.9847 171.114 34.7515C171.333 34.5231 171.595 34.3432 171.903 34.2169C172.21 34.0905 172.551 34.0273 172.921 34.0273C173.29 34.0273 173.631 34.0905 173.943 34.2169C174.25 34.3432 174.513 34.5231 174.732 34.7515C174.952 34.9799 175.122 35.2521 175.244 35.5728C175.366 35.8935 175.424 36.2386 175.424 36.6176ZM174.718 36.6176C174.718 36.3066 174.674 36.0296 174.591 35.7818C174.508 35.5339 174.387 35.3249 174.231 35.1548C174.075 34.9847 173.885 34.8535 173.666 34.7612C173.441 34.6689 173.198 34.6251 172.921 34.6251C172.643 34.6251 172.404 34.6689 172.181 34.7612C171.956 34.8535 171.771 34.9847 171.611 35.1548C171.454 35.3249 171.333 35.5339 171.25 35.7818C171.167 36.0296 171.124 36.3066 171.124 36.6176C171.124 36.9287 171.167 37.2056 171.25 37.4535C171.333 37.7014 171.454 37.9055 171.611 38.0805C171.766 38.2506 171.956 38.3818 172.181 38.4741C172.404 38.5664 172.648 38.6101 172.921 38.6101C173.193 38.6101 173.441 38.5664 173.666 38.4741C173.889 38.3818 174.075 38.2506 174.231 38.0805C174.387 37.9103 174.508 37.7014 174.591 37.4535C174.674 37.2056 174.718 36.9287 174.718 36.6176Z" fill="#35347E"/>
</svg>
