<svg width="208" height="49" viewBox="0 0 208 49" fill="none" xmlns="http://www.w3.org/2000/svg">
<path d="M20.1569 35.2085H15.5442V21.3748L5.41861 35.2085H0.974609V14.126H5.64362V27.9597L15.8254 14.126H20.1569V35.2085ZM23.5321 14.1813H28.2574V22.4815H37.7079V14.1813H42.4332V35.2085H37.7079V26.7423H28.2574V35.2085H23.5321V14.1813ZM50.4774 35.2085H45.8084V14.126H60.3217V18.3314H50.4774V35.2085ZM82.9918 24.6949C82.9918 18.2761 78.2665 13.9046 71.7411 13.7939H71.6286C65.1032 13.8493 60.378 18.2761 60.378 24.6396C60.378 31.0584 65.1032 35.4298 71.6286 35.4852H71.7411C78.2665 35.4852 82.9918 31.0584 82.9918 24.6949ZM71.6849 31.2797C67.9159 31.2797 65.272 28.7343 65.272 24.6949C65.272 20.6001 67.9159 18.1101 71.6849 18.1101C75.4538 18.1101 78.0977 20.6555 78.0977 24.6949C78.0977 28.7343 75.4538 31.2797 71.6849 31.2797ZM132.213 18.4421H125.294V14.1813H143.801V18.4421H136.939V35.2085H132.213V18.4421ZM146.67 14.1813H156.29C161.409 14.1813 164.503 17.1694 164.503 21.4855C164.503 26.3549 160.677 28.9003 155.84 28.9003H151.396V35.2085H146.67V14.1813ZM155.952 24.7502C158.315 24.7502 159.665 23.3669 159.665 21.4855C159.665 19.4381 158.202 18.2761 155.84 18.2761H151.339V24.6949H155.952V24.7502ZM206.636 35.2085L199.042 24.4182L206.299 14.126H200.898L196.342 20.6001L191.785 14.126H186.216L193.529 24.5289L185.935 35.2085H191.335L196.229 28.2917L201.067 35.2085H206.636ZM180.647 35.2085H185.429L176.26 14.0153H171.928L162.759 35.2085H167.54L169.565 30.339H178.622L180.647 35.2085ZM171.253 26.2443L174.122 19.6594L176.991 26.2443H171.253ZM96.3238 31.2797C92.5548 31.2797 89.9109 28.7343 89.9109 24.6949C89.9109 20.6001 92.5548 18.1101 96.3238 18.1101C98.2926 18.1101 99.924 18.6634 101.33 19.8254L104.255 16.948C102.287 15.0666 99.6427 13.8493 96.38 13.8493H96.2675C89.7421 13.9046 85.0169 18.3314 85.0169 24.6949C85.0169 31.1137 89.7421 35.4852 96.2675 35.5405H96.38C99.5864 35.4852 102.23 34.2678 104.255 32.4418L101.33 29.5644C99.924 30.7264 98.2926 31.2797 96.3238 31.2797ZM115.956 31.2797C112.187 31.2797 109.543 28.7343 109.543 24.6949C109.543 20.6001 112.187 18.1101 115.956 18.1101C117.925 18.1101 119.556 18.6634 120.963 19.8254L123.888 16.948C121.919 15.0666 119.275 13.8493 116.012 13.8493H115.9C109.374 13.9046 104.649 18.3314 104.649 24.6949C104.649 31.1137 109.374 35.4852 115.9 35.5405H116.012C119.219 35.4852 121.863 34.2678 123.888 32.4418L120.963 29.5644C119.556 30.7264 117.925 31.2797 115.956 31.2797Z" fill="#0047BB"/>
</svg>
