<svg width="141" height="49" viewBox="0 0 141 49" fill="none" xmlns="http://www.w3.org/2000/svg">
<path fill-rule="evenodd" clip-rule="evenodd" d="M7.2017 8.70582C6.64937 8.70582 6.07138 8.76166 5.51678 8.87107V14.6148C6.07213 14.6978 6.59428 14.7257 7.1187 14.7257C9.16431 14.7257 10.7089 13.5923 10.7089 11.4411C10.7081 9.34343 9.21863 8.70582 7.2017 8.70582ZM7.2017 17.6556C6.6222 17.6556 6.09628 17.6005 5.51678 17.516V24.9454H2.06543V6.27766C3.7496 5.88906 5.51602 5.75098 7.25603 5.75098C10.9307 5.75098 14.3021 7.46231 14.3021 11.552C14.3021 15.5829 11.0145 17.6556 7.2017 17.6556Z" fill="#6E0F6C"/>
<path fill-rule="evenodd" clip-rule="evenodd" d="M22.0511 13.5178C20.2824 13.5178 19.2607 15.0081 19.18 16.6643H24.8656C24.8399 14.9281 23.9013 13.5178 22.0511 13.5178ZM28.0981 19.2615H19.18C19.3996 21.3894 20.834 22.3808 22.8788 22.3808C24.0084 22.3808 25.39 22.1077 26.386 21.664L27.4364 24.2318C25.9431 24.8648 24.3147 25.2534 22.6857 25.2534C18.433 25.2534 15.6162 22.3529 15.6162 18.0723C15.6162 14.0686 17.7961 10.7803 22.0216 10.7803C25.9967 10.7803 28.2928 13.597 28.2928 17.4385C28.2928 18.0474 28.2075 18.6541 28.0981 19.2615Z" fill="#6E0F6C"/>
<path fill-rule="evenodd" clip-rule="evenodd" d="M34.0745 11.1387V16.3866H39.4032V11.1387H42.718V24.9478H39.4032V18.9823H34.0745V24.9478H30.7598V11.1387H34.0745Z" fill="#6E0F6C"/>
<path fill-rule="evenodd" clip-rule="evenodd" d="M52.3594 13.5178C50.5914 13.5178 49.5705 15.0081 49.4875 16.6643H55.1761C55.1497 14.9281 54.2103 13.5178 52.3594 13.5178ZM58.4094 19.2615H49.4875C49.7094 21.3894 51.146 22.3808 53.1871 22.3808C54.3197 22.3808 55.702 22.1077 56.695 21.664L57.7454 24.2318C56.2536 24.8648 54.6253 25.2534 52.9962 25.2534C48.742 25.2534 45.9268 22.3529 45.9268 18.0723C45.9268 14.0686 48.1089 10.7803 52.333 10.7803C56.3102 10.7803 58.6026 13.597 58.6026 17.4385C58.6018 18.0474 58.5203 18.6541 58.4094 19.2615Z" fill="#6E0F6C"/>
<path fill-rule="evenodd" clip-rule="evenodd" d="M67.6122 25.2476C63.3573 25.2476 60.1006 22.4045 60.1006 18.0409C60.1006 13.7587 63.0245 10.8311 67.3081 10.8311C68.824 10.8311 70.4554 11.1925 71.8634 11.7992L70.8696 14.4748C69.82 14.0628 68.6324 13.7044 67.4998 13.7044C65.0701 13.7044 63.6334 15.6663 63.6334 17.9571C63.6334 20.4124 65.2361 22.3743 67.8031 22.3743C68.8535 22.3743 69.9295 22.0445 70.8953 21.6854L71.8626 24.281C70.509 24.8877 69.0745 25.2476 67.6122 25.2476Z" fill="#6E0F6C"/>
<path fill-rule="evenodd" clip-rule="evenodd" d="M80.4819 25.2476C76.2292 25.2476 72.9688 22.4045 72.9688 18.0409C72.9688 13.7587 75.8964 10.8311 80.1785 10.8311C81.6982 10.8311 83.3273 11.1925 84.7376 11.7992L83.7401 14.4748C82.6927 14.0628 81.5058 13.7044 80.3725 13.7044C77.9405 13.7044 76.5076 15.6663 76.5076 17.9571C76.5076 20.4124 78.108 22.3743 80.6766 22.3743C81.7231 22.3743 82.8029 22.0445 83.7718 21.6854L84.7383 24.281C83.3839 24.8877 81.9457 25.2476 80.4819 25.2476Z" fill="#6E0F6C"/>
<path fill-rule="evenodd" clip-rule="evenodd" d="M95.3477 21.5744V18.1759C94.2113 19.2542 90.4302 18.8135 90.4302 20.801C90.4302 22.2347 91.811 22.486 92.9987 22.486C93.8008 22.486 94.6293 22.3464 95.4035 22.1004C95.4035 22.1004 95.3477 21.7661 95.3477 21.5744ZM92.9708 25.2469C90.3215 25.2469 86.7842 24.2803 86.7842 21.0493C86.7842 15.4708 95.3477 17.3783 95.3477 14.9736C95.3477 13.8108 93.8559 13.7044 93.0266 13.7044C91.7854 13.7044 90.3495 14.0349 89.1867 14.5306L88.0564 12.0217C89.6885 11.2755 91.7024 10.8311 93.4982 10.8311C96.4523 10.8311 98.6617 12.1304 98.6617 15.3365V22.4316C98.6617 23.0096 98.8541 24.1686 98.8541 24.1686C96.9488 24.7504 94.9877 25.2469 92.9708 25.2469Z" fill="#6E0F6C"/>
<path fill-rule="evenodd" clip-rule="evenodd" d="M105.115 11.1387V16.3866H110.443V11.1387H113.759V24.9478H110.443V18.9823H105.115V24.9478H101.797V11.1387H105.115Z" fill="#6E0F6C"/>
<path fill-rule="evenodd" clip-rule="evenodd" d="M123.754 25.2476C119.5 25.2476 116.241 22.4045 116.241 18.0409C116.241 13.7587 119.167 10.8311 123.45 10.8311C124.969 10.8311 126.6 11.1925 128.008 11.7992L127.015 14.4748C125.962 14.0628 124.776 13.7044 123.643 13.7044C121.214 13.7044 119.779 15.6663 119.779 17.9571C119.779 20.4124 121.378 22.3743 123.945 22.3743C124.997 22.3743 126.073 22.0445 127.041 21.6854L128.008 24.281C126.653 24.8877 125.217 25.2476 123.754 25.2476Z" fill="#6E0F6C"/>
<path fill-rule="evenodd" clip-rule="evenodd" d="M133.474 7.30028C134.496 7.30028 135.186 6.8317 135.186 5.78136C135.186 4.72951 134.526 4.37486 133.531 4.37486C133.256 4.37486 132.925 4.42844 132.73 4.45485V7.27237C132.925 7.27237 133.2 7.30028 133.474 7.30028ZM137.729 6.52535C137.729 4.23301 135.879 2.38132 133.614 2.38132C131.322 2.38132 129.499 4.23301 129.499 6.52535C129.499 8.07446 130.326 9.39871 131.57 10.1178V3.6271C132.232 3.43469 132.868 3.40601 133.557 3.40601C135.021 3.40601 136.375 4.15001 136.375 5.7806C136.375 7.43761 135.076 8.29555 133.53 8.29555C133.2 8.29555 132.73 8.21028 132.73 8.21028V10.56C133.005 10.6143 133.309 10.6415 133.613 10.6415C135.879 10.6415 137.729 8.7928 137.729 6.52535ZM138.639 6.52535C138.639 9.28854 136.375 11.5552 133.614 11.5552C130.824 11.5552 128.588 9.2893 128.588 6.52535C128.588 3.73877 130.824 1.5 133.614 1.5C136.375 1.5 138.639 3.73877 138.639 6.52535Z" fill="#ADC42B"/>
<path fill-rule="evenodd" clip-rule="evenodd" d="M5.842 43.5587C3.19123 43.5587 1 41.7553 1 38.7718C1 35.9196 2.8215 33.9502 5.62016 33.9502C6.59504 33.9502 7.5903 34.1698 8.47389 34.5372L7.97815 35.8804C7.46203 35.6781 6.59504 35.3839 5.72881 35.3839C3.74357 35.3839 2.84037 37.0228 2.84037 38.7341C2.84037 40.8348 4.25742 42.1402 5.9333 42.1402C6.7452 42.1402 7.46278 41.904 7.99701 41.698L8.47389 42.9883C7.66425 43.3565 6.76029 43.5587 5.842 43.5587Z" fill="#ADC42B"/>
<path fill-rule="evenodd" clip-rule="evenodd" d="M17.0424 35.5528H14.0777V43.3587H12.42V35.5528H9.45605V34.1523H17.0424V35.5528Z" fill="#ADC42B"/>
<path fill-rule="evenodd" clip-rule="evenodd" d="M21.1139 35.3839C20.4876 35.3839 19.973 35.5136 19.4924 35.697C19.4924 35.7536 19.5505 35.9701 19.5505 36.1218V41.8315C19.9738 42.0315 20.5072 42.1236 20.9668 42.1236C23.0471 42.1236 23.951 40.7608 23.951 38.7341C23.9503 36.9677 23.155 35.3839 21.1139 35.3839ZM21.2414 43.5587C20.671 43.5587 20.1179 43.4493 19.5497 43.2456V47.4983H17.8919V35.7717C17.8919 35.3839 17.7803 34.6104 17.7803 34.6104C18.6654 34.2777 20.0621 33.9502 21.1139 33.9502C24.0778 33.9502 25.7899 35.989 25.7899 38.7341C25.7899 41.5169 23.8937 43.5587 21.2414 43.5587Z" fill="#ADC42B"/>
<path fill-rule="evenodd" clip-rule="evenodd" d="M32.7358 41.4407V38.5522C32.3132 38.8827 31.5738 39.0133 30.8962 39.1574C29.8285 39.3973 28.8521 39.6939 28.8521 40.7224C28.8521 41.6814 29.624 42.1236 30.8592 42.1236C31.5217 42.1236 32.185 42.0134 32.7735 41.8104C32.7735 41.8104 32.7358 41.5697 32.7358 41.4407ZM30.8585 43.5587C28.6114 43.5587 27.0117 42.6548 27.0117 40.8536C27.0117 38.8246 28.668 38.2753 30.1771 37.9614C31.5013 37.6875 32.7147 37.5396 32.7147 36.6379C32.7147 35.5695 31.7058 35.3846 30.912 35.3846C29.9718 35.3846 28.8679 35.8072 28.4816 35.9709L27.9119 34.6844C28.8144 34.2626 30.0458 33.9502 31.0245 33.9502C33.2134 33.9502 34.392 34.9621 34.392 36.8907V41.698C34.392 42.0881 34.5226 42.8796 34.5226 42.8796C33.4368 43.2252 32.1276 43.5587 30.8585 43.5587Z" fill="#ADC42B"/>
<path fill-rule="evenodd" clip-rule="evenodd" d="M42.534 43.3587L40.121 39.8236L37.6928 43.3587H35.7227L39.1272 38.5725L35.906 34.1523H37.9297L40.2508 37.4837L42.4593 34.1523H44.4099L41.2634 38.7551L44.5955 43.3587H42.534Z" fill="#ADC42B"/>
<path fill-rule="evenodd" clip-rule="evenodd" d="M49.5282 35.3846C47.7626 35.3846 46.8963 36.9111 46.8963 38.753C46.8963 40.5971 47.7626 42.1236 49.5282 42.1236C51.2962 42.1236 52.142 40.5971 52.142 38.753C52.1413 36.9118 51.2954 35.3846 49.5282 35.3846ZM49.5086 43.5595C46.8367 43.5595 45.0537 41.5554 45.0537 38.753C45.0537 35.9573 46.8375 33.9502 49.5086 33.9502C52.1798 33.9502 53.9839 35.9573 53.9839 38.753C53.9839 41.5554 52.179 43.5595 49.5086 43.5595Z" fill="#ADC42B"/>
<path fill-rule="evenodd" clip-rule="evenodd" d="M58.8368 42.1779C60.0147 42.1779 61.3978 41.9402 61.3978 40.7435C61.3978 39.4517 60.4221 39.1763 58.6346 39.1763H57.5126V42.1055C57.8219 42.1402 58.3199 42.1779 58.8368 42.1779ZM57.5118 37.9433H58.6338C59.6661 37.9433 60.9903 37.7403 60.9903 36.5051C60.9903 35.4382 59.9038 35.2163 58.8542 35.2163C58.3599 35.2163 57.88 35.2744 57.5118 35.3107V37.9433ZM63.2751 40.7435C63.2751 41.8316 62.6104 42.6933 61.5245 43.1369C60.6221 43.4863 59.3348 43.5595 58.4112 43.5595C57.0847 43.5595 55.8359 43.3022 55.8359 43.3022V34.206C55.8359 34.206 57.3798 33.9502 58.6685 33.9502C60.2177 33.9502 61.6362 34.1328 62.4096 35.0873C62.7394 35.457 62.8865 35.8804 62.8865 36.3957C62.8865 37.2974 62.1674 37.9992 61.3759 38.4406C62.3908 38.7718 63.2751 39.6184 63.2751 40.7435Z" fill="#ADC42B"/>
<path fill-rule="evenodd" clip-rule="evenodd" d="M70.178 41.4407V38.5522C69.7555 38.8827 69.019 39.0133 68.3384 39.1574C67.2692 39.3973 66.2936 39.6939 66.2936 40.7224C66.2936 41.6814 67.0678 42.1236 68.3 42.1236C68.964 42.1236 69.6265 42.0134 70.2165 41.8104C70.215 41.8104 70.178 41.5697 70.178 41.4407ZM68.2984 43.5587C66.0506 43.5587 64.4502 42.6548 64.4502 40.8536C64.4502 38.8246 66.108 38.2753 67.6178 37.9614C68.9436 37.6875 70.1584 37.5396 70.1584 36.6379C70.1584 35.5695 69.1458 35.3846 68.3565 35.3846C67.4164 35.3846 66.3109 35.8072 65.9254 35.9709L65.3542 34.6844C66.2551 34.2626 67.4911 33.9502 68.466 33.9502C70.6557 33.9502 71.8358 34.9621 71.8358 36.8907V41.698C71.8358 42.0881 71.9641 42.8796 71.9641 42.8796C70.8768 43.2252 69.5706 43.5587 68.2984 43.5587Z" fill="#ADC42B"/>
<path fill-rule="evenodd" clip-rule="evenodd" d="M81.7909 34.1523V43.3587H80.115V39.1973H75.86V43.3587H74.2061V34.1523H75.86V37.7984H80.115V34.1523H81.7909Z" fill="#ADC42B"/>
<path fill-rule="evenodd" clip-rule="evenodd" d="M85.8711 34.1523V38.0383C85.8711 39.4946 85.8522 40.4122 85.7775 41.7213H85.8326C86.3872 40.6144 86.7004 39.9738 87.3259 38.9045L90.1985 34.1531H92.2049V43.3595H90.5478V39.4546C90.5478 37.9644 90.5856 37.1774 90.6603 35.6999H90.6022C90.0136 36.8778 89.6288 37.6143 89.0923 38.5552C88.3936 39.6606 87.639 41.0037 86.8467 42.2918C86.2589 43.2682 85.4659 43.4711 84.9143 43.4711C84.5091 43.4711 84.2148 43.3595 84.2148 43.3595V34.1523H85.8711Z" fill="#ADC42B"/>
<path fill-rule="evenodd" clip-rule="evenodd" d="M98.1274 35.3665C96.6922 35.3665 95.9007 36.5444 95.8615 37.9818H100.338C100.319 36.6176 99.6395 35.3665 98.1274 35.3665ZM101.995 39.3249H95.8615C95.955 40.9615 96.9699 42.1228 98.7348 42.1228C99.4894 42.1228 100.245 41.9764 100.926 41.698L101.442 42.949C100.559 43.3558 99.5648 43.5587 98.5892 43.5587C95.7709 43.5587 94.0596 41.4784 94.0596 38.7341C94.0596 36.2116 95.3657 33.9502 98.113 33.9502C100.688 33.9502 102.088 35.8638 102.088 38.313C102.087 38.6239 102.05 38.9725 101.995 39.3249Z" fill="#ADC42B"/>
</svg>
