<svg width="237" height="49" viewBox="0 0 237 49" fill="none" xmlns="http://www.w3.org/2000/svg">
<path d="M60.596 2.94964C63.5889 2.94964 66.0325 4.36249 67.0591 5.41824L65.3385 7.68499C64.4999 6.89318 62.6491 5.77533 60.5669 5.77533C56.8077 5.77533 54.4509 8.55443 54.4509 12.3582C54.4509 16.1621 56.6775 18.9412 60.6103 18.9412C62.8805 18.9412 64.8468 17.6525 65.7144 16.752L67.3483 19.0965C66.3217 20.2609 63.7479 21.7668 60.596 21.7668C55.0581 21.7668 51.6313 17.7767 51.6313 12.3582C51.6457 6.93976 55.1593 2.94964 60.596 2.94964Z" fill="#003790"/>
<path d="M77.701 2.94964C82.834 2.94964 86.5644 6.93976 86.5644 12.3582C86.5644 17.7923 82.834 21.7668 77.701 21.7668C72.568 21.7668 68.8377 17.7767 68.8377 12.3582C68.8377 6.93976 72.568 2.94964 77.701 2.94964ZM77.701 18.9412C81.1712 18.9412 83.745 16.131 83.745 12.3582C83.745 8.56996 81.1857 5.77533 77.701 5.77533C74.2308 5.77533 71.6571 8.58548 71.6571 12.3582C71.6571 16.1465 74.2308 18.9412 77.701 18.9412Z" fill="#003790"/>
<path d="M104.175 16.1465C104.175 18.8014 102.599 21.3631 98.493 21.3631H89.5573V3.35324H97.9726C101.37 3.35324 103.337 5.61999 103.337 8.16623C103.337 9.61012 102.715 10.9143 101.226 11.97C102.73 12.5134 104.175 13.6779 104.175 16.1465ZM92.3189 6.19444V10.9764L97.64 10.9453C99.534 10.9453 100.517 9.81195 100.517 8.47674C100.517 7.23468 99.6787 6.19444 98.0014 6.19444H92.3189ZM98.6666 18.5374C100.604 18.5374 101.356 17.373 101.356 16.1154C101.356 14.7491 100.474 13.6468 98.7243 13.6468H92.3335V18.5374H98.6666Z" fill="#003790"/>
<path d="M115.193 12.0787L122.625 21.3631H118.953L112.75 13.4916H109.569V21.3631H106.807V3.35324H109.569V10.7901H112.75L118.808 3.35324H122.481L115.193 12.0787Z" fill="#003790"/>
<path d="M131.127 2.94964C136.26 2.94964 139.991 6.93976 139.991 12.3582C139.991 17.7923 136.26 21.7668 131.127 21.7668C125.994 21.7668 122.264 17.7767 122.264 12.3582C122.264 6.93976 125.994 2.94964 131.127 2.94964ZM131.127 18.9412C134.597 18.9412 137.171 16.131 137.171 12.3582C137.171 8.56996 134.612 5.77533 131.127 5.77533C127.643 5.77533 125.083 8.58548 125.083 12.3582C125.083 16.1465 127.643 18.9412 131.127 18.9412Z" fill="#003790"/>
<path d="M158.527 3.35324H161.187V21.3631H158.426V7.97992L152.918 15.8825H151.24L145.731 7.97992V21.3631H142.969V3.35324H145.63L152.079 12.5911L158.527 3.35324Z" fill="#003790"/>
<path d="M173.81 10.7124C177.497 10.7124 179.507 13.0258 179.507 16.0067C179.507 18.9877 177.497 21.3631 173.998 21.3631H164.889V3.35324H177.945V6.17892H167.65V10.7124H173.81ZM173.882 18.5374C175.805 18.5374 176.658 17.404 176.658 16.0378C176.658 14.7026 175.791 13.5381 173.882 13.5381H167.65V18.522H173.882V18.5374Z" fill="#003790"/>
<path d="M194.82 21.3631L192.997 16.8606H185.074L183.252 21.3631H180.231L187.518 3.35324H190.554L197.841 21.3631H194.82ZM186.144 14.1592H191.913L189.036 6.98627L186.144 14.1592Z" fill="#003790"/>
<path d="M212.33 3.35324H215.091V21.3631H212.33V13.6468H202.628V21.3631H199.865V3.35324H202.628V10.8211H212.33V3.35324Z" fill="#003790"/>
<path d="M227.193 12.0787L234.625 21.3631H230.952L224.749 13.4916H221.568V21.3631H218.807V3.35324H221.568V10.7901H224.749L230.807 3.35324H234.48L227.193 12.0787Z" fill="#003790"/>
<path d="M2.45605 24.5C2.45605 36.6567 11.6376 46.5 22.9445 46.5C23.2192 46.5 23.4939 46.5 23.7687 46.4844V38.1471H22.9445C15.9319 38.1471 10.235 32.0455 10.235 24.5C10.235 16.97 15.9174 10.8529 22.9445 10.8529H23.7687V2.51553C23.4939 2.5 23.2192 2.5 22.9445 2.5C11.6376 2.5 2.45605 12.3433 2.45605 24.5Z" fill="#FC5055"/>
<path d="M27.0509 2.93429V14.3768H22.959C17.7537 14.3768 13.5317 18.9103 13.5317 24.4995C13.5317 30.0888 17.7537 34.6224 22.959 34.6224H27.0509V46.0649C36.406 44.031 43.4475 35.1502 43.4475 24.4995C43.4475 13.8489 36.406 4.96816 27.0509 2.93429Z" fill="#003790"/>
<path d="M60.0464 28.1954C63.025 28.1954 65.2951 29.5305 66.2493 30.5552L64.6299 32.6512C63.8057 31.8749 62.1286 30.8657 59.9885 30.8657C56.5762 30.8657 54.3062 33.5051 54.3062 37.1071C54.3062 40.7245 56.4895 43.3485 59.9885 43.3485C62.3744 43.3485 64.1528 42.1841 64.9914 41.299L66.5096 43.4726C65.5554 44.5906 63.1696 46.0344 60.0319 46.0344C54.9135 46.0344 51.6168 42.2461 51.6168 37.1071C51.6168 31.9681 55.0291 28.1954 60.0464 28.1954Z" fill="#FC5055"/>
<path d="M81.7495 31.2696H76.0671V45.662H73.45V31.2696H67.7386V28.5835H81.7351V31.2696H81.7495Z" fill="#FC5055"/>
<path d="M97.828 33.971C97.828 37.0296 95.9195 39.4206 91.9142 39.4206H86.6945V45.662H84.0774V28.5835H91.7407C95.9195 28.5835 97.828 30.9279 97.828 33.971ZM91.813 36.7345C94.3144 36.7345 95.1096 35.4925 95.1096 34.0021C95.1096 32.5116 94.3144 31.2696 91.813 31.2696H86.6945V36.7345H91.813Z" fill="#FC5055"/>
<path d="M111.333 45.662L109.612 41.3924H102.093L100.373 45.662H97.5098L104.421 28.5835H107.313L114.225 45.662H111.333ZM103.106 38.8306H108.585L105.853 32.0303L103.106 38.8306Z" fill="#FC5055"/>
<path d="M131.344 45.662H128.163L123.204 39.0013L118.201 45.662H115.049L121.497 36.9985L115.266 28.5835H118.403L123.175 34.9337L127.946 28.5835H131.098L124.866 36.952L131.344 45.662Z" fill="#FC5055"/>
<path d="M140.28 28.1954C145.138 28.1954 148.68 31.9836 148.68 37.1227C148.68 42.2617 145.138 46.0499 140.28 46.0499C135.421 46.0499 131.865 42.2617 131.865 37.1227C131.865 31.9836 135.421 28.1954 140.28 28.1954ZM140.28 43.3639C143.576 43.3639 146.005 40.7091 146.005 37.1227C146.005 33.5362 143.576 30.8813 140.28 30.8813C136.983 30.8813 134.554 33.5362 134.554 37.1227C134.554 40.7091 136.983 43.3639 140.28 43.3639Z" fill="#FC5055"/>
<path d="M165.727 40.7091C165.727 43.2244 164.224 45.662 160.348 45.662H151.876V28.5835H159.858C163.082 28.5835 164.947 30.7262 164.947 33.1482C164.947 34.5144 164.355 35.7565 162.952 36.7656C164.368 37.2625 165.727 38.3649 165.727 40.7091ZM154.479 35.803L159.611 35.772C161.39 35.772 162.243 34.7008 162.243 33.4276C162.243 32.2632 161.405 31.254 159.771 31.254H154.479V35.803ZM160.493 42.9759C162.329 42.9759 163.039 41.8582 163.039 40.6626C163.039 39.374 162.329 38.3493 160.61 38.3493H154.479V42.9915H160.493V42.9759Z" fill="#FC5055"/>
<path d="M180.52 45.662L178.799 41.3924H171.281L169.56 45.662H166.697L173.608 28.5835H176.5L183.411 45.662H180.52ZM172.292 38.8306H177.773L175.039 32.0303L172.292 38.8306Z" fill="#FC5055"/>
<path d="M197.465 28.5835H200.083V45.662H197.465V38.225H188.255V45.662H185.637V28.5835H188.255V35.5391H197.465V28.5835Z" fill="#FC5055"/>
<path d="M215.872 28.5835H218.286V45.662H215.668V32.8686L206.328 45.662H203.942V28.5835H206.56V41.3148L215.872 28.5835Z" fill="#FC5055"/>
<path d="M224.749 42.9759H234.407V45.662H222.133V28.5835H234.177V31.2696H224.749V35.7099H233.425V38.3958H224.749V42.9759Z" fill="#FC5055"/>
</svg>
