<svg width="113" height="49" viewBox="0 0 113 49" fill="none" xmlns="http://www.w3.org/2000/svg">
<path d="M54.4511 13.576L55.6867 14.038C55.4977 14.8506 55.1852 15.4495 54.7418 15.843C54.2985 16.2365 53.7461 16.4332 53.0702 16.4332C52.2343 16.4332 51.5438 16.0996 51.006 15.4238C50.4681 14.748 50.1992 13.8326 50.1992 12.6607C50.1992 11.4288 50.4681 10.4621 51.0133 9.78632C51.5584 9.10195 52.2707 8.75977 53.1501 8.75977C53.9205 8.75977 54.5456 9.02496 55.0326 9.5639C55.316 9.88042 55.5341 10.3338 55.6794 10.9326L54.422 11.2834C54.3494 10.8984 54.1895 10.599 53.9569 10.368C53.7243 10.1456 53.4336 10.0344 53.092 10.0344C52.6268 10.0344 52.2416 10.2312 51.9508 10.6247C51.6601 11.0182 51.5148 11.6598 51.5148 12.5409C51.5148 13.4819 51.6601 14.1492 51.9436 14.5427C52.227 14.9447 52.605 15.1415 53.0629 15.1415C53.3972 15.1415 53.6952 15.0132 53.9351 14.7651C54.1749 14.5085 54.3566 14.1149 54.4584 13.5674" fill="#003F34"/>
<path d="M58.8635 16.3036V10.1357H56.9883V8.88672H62.0033V10.1357H60.1354V16.3036H58.8635Z" fill="#003F34"/>
<path d="M63.7036 16.3036V8.88672H65.7459C66.5236 8.88672 67.0251 8.92094 67.2577 8.99793C67.6211 9.10914 67.9191 9.34867 68.1662 9.72507C68.4133 10.1015 68.5296 10.5805 68.5296 11.1708C68.5296 11.6242 68.457 12.0091 68.3189 12.3171C68.1808 12.6251 67.9991 12.8732 67.781 13.0443C67.563 13.2239 67.3449 13.3437 67.1196 13.395C66.8143 13.4634 66.3783 13.4976 65.7968 13.4976H64.9682V16.295H63.6963L63.7036 16.3036ZM64.9755 10.1357V12.2401H65.6732C66.1747 12.2401 66.5091 12.2059 66.6762 12.1204C66.8434 12.0348 66.9742 11.9236 67.076 11.7525C67.1705 11.59 67.2214 11.3932 67.2214 11.1794C67.2214 10.9056 67.156 10.6832 67.0179 10.5121C66.8798 10.3324 66.7126 10.2298 66.5018 10.1785C66.3492 10.1442 66.0439 10.1271 65.586 10.1271H64.9682L64.9755 10.1357Z" fill="#003F34"/>
<path d="M75.3769 16.3082H73.9887L73.4363 14.6229H70.9143L70.3909 16.3082H69.0391L71.4957 8.88281H72.8403L75.3697 16.3082H75.3769ZM73.0293 13.374L72.1571 10.6194L71.3067 13.374H73.0293Z" fill="#003F34"/>
<path d="M76.2939 16.3036L78.4453 12.4283L76.4975 8.88672H77.9802L79.2448 11.2649L80.4877 8.88672H81.9631L80.0007 12.4882L82.1521 16.3036H80.6185L79.223 13.7372L77.8203 16.3036H76.2939Z" fill="#003F34"/>
<path d="M83.2051 12.6436C83.2051 11.8907 83.2996 11.2492 83.4958 10.7359C83.6412 10.3595 83.8374 10.0173 84.0845 9.71788C84.3316 9.41847 84.6078 9.19605 84.8986 9.05062C85.291 8.85387 85.7417 8.75977 86.2577 8.75977C87.188 8.75977 87.9294 9.10195 88.4891 9.77776C89.0487 10.4536 89.3249 11.4031 89.3249 12.6093C89.3249 13.8155 89.0487 14.748 88.4963 15.4238C87.9439 16.0996 87.2026 16.4418 86.2795 16.4418C85.3565 16.4418 84.5933 16.1082 84.0409 15.4324C83.4885 14.7565 83.2123 13.8326 83.2123 12.6521M84.5279 12.6008C84.5279 13.4391 84.6951 14.0807 85.0221 14.5085C85.3492 14.9447 85.7708 15.1586 86.2795 15.1586C86.7883 15.1586 87.2026 14.9447 87.5296 14.5085C87.8567 14.0807 88.0166 13.4306 88.0166 12.5751C88.0166 11.7197 87.8567 11.0866 87.5442 10.6674C87.2244 10.2483 86.8101 10.043 86.2795 10.043C85.7489 10.043 85.3347 10.2568 85.0076 10.676C84.6878 11.0952 84.5279 11.7368 84.5279 12.5922" fill="#003F34"/>
<path d="M91.2002 8.88281H93.7223C94.2238 8.88281 94.5944 8.90848 94.8416 8.9598C95.0887 9.01113 95.3067 9.11379 95.4957 9.26777C95.6919 9.42175 95.8518 9.62706 95.9827 9.89225C96.1135 10.1489 96.1789 10.4397 96.1789 10.7563C96.1789 11.107 96.099 11.4235 95.9391 11.7144C95.7792 12.0052 95.5611 12.2191 95.2922 12.3645C95.6774 12.4929 95.9754 12.7238 96.1789 13.0403C96.3897 13.3569 96.4914 13.7333 96.4914 14.161C96.4914 14.5032 96.426 14.8283 96.2879 15.1448C96.1571 15.4613 95.9754 15.7179 95.7428 15.9061C95.5102 16.0943 95.2268 16.2141 94.8924 16.2569C94.6817 16.2825 94.1656 16.2996 93.3588 16.3082H91.2147V8.88281H91.2002ZM92.4721 10.1147V11.8341H93.308C93.8022 11.8341 94.1147 11.8256 94.231 11.8085C94.4491 11.7828 94.6235 11.6887 94.7471 11.5433C94.8706 11.3979 94.936 11.2011 94.936 10.9616C94.936 10.7221 94.8852 10.5424 94.7761 10.4055C94.6671 10.2601 94.5072 10.1746 94.2964 10.1489C94.1729 10.1318 93.8095 10.1232 93.2062 10.1232H92.4721V10.1147ZM92.4721 13.066V15.0507H93.6496C94.1075 15.0507 94.3982 15.0336 94.5218 15.0079C94.7107 14.9651 94.8634 14.871 94.9869 14.7085C95.1032 14.5545 95.1686 14.3406 95.1686 14.0755C95.1686 13.853 95.125 13.6648 95.0305 13.5108C94.9361 13.3569 94.8052 13.2457 94.6308 13.1687C94.4563 13.1002 94.0784 13.066 93.5042 13.066H92.4794H92.4721Z" fill="#003F34"/>
<path d="M103.687 16.3082H102.298L101.746 14.6229H99.2238L98.7005 16.3082H97.3486L99.8053 8.88281H101.15L103.679 16.3082H103.687ZM101.339 13.374L100.467 10.6194L99.6163 13.374H101.339Z" fill="#003F34"/>
<path d="M109.021 16.3057V13.209H108.759C108.359 13.209 108.076 13.2774 107.909 13.4228C107.742 13.5683 107.458 13.9874 107.066 14.6975L106.143 16.3143H104.616L105.387 14.8686C105.692 14.2954 105.932 13.8933 106.113 13.6624C106.295 13.4314 106.52 13.2261 106.797 13.0464C106.208 12.9352 105.786 12.6957 105.525 12.3279C105.263 11.9515 105.132 11.5066 105.132 10.9848C105.132 10.5314 105.227 10.1293 105.423 9.77858C105.619 9.42785 105.874 9.19687 106.186 9.07711C106.506 8.95734 106.978 8.89746 107.611 8.89746H110.293V16.3057H109.021ZM109.021 10.1379H108.025C107.516 10.1379 107.189 10.155 107.029 10.1807C106.869 10.2063 106.731 10.3004 106.615 10.4544C106.499 10.6084 106.441 10.8137 106.441 11.0618C106.441 11.3099 106.499 11.5323 106.608 11.6777C106.717 11.8317 106.862 11.9258 107.029 11.9686C107.204 12.0028 107.545 12.0284 108.076 12.0284H109.021V10.1464V10.1379Z" fill="#003F34"/>
<path d="M50.4395 31.3543H51.7114V34.5109C51.9948 34.4767 52.1838 34.3912 52.2856 34.2543C52.3873 34.1174 52.54 33.7325 52.7507 33.0994C53.0124 32.2953 53.2813 31.7991 53.5502 31.6024C53.8119 31.4056 54.2407 31.3115 54.8294 31.3115C54.8585 31.3115 54.9167 31.3115 55.0184 31.3115V32.4236H54.8367C54.5751 32.4236 54.3861 32.4578 54.2625 32.5348C54.139 32.6118 54.0445 32.723 53.9718 32.8856C53.8991 33.0396 53.7901 33.3561 53.6375 33.8437C53.5575 34.1003 53.4776 34.3142 53.3831 34.4853C53.2959 34.6564 53.136 34.8189 52.9034 34.9729C53.1868 35.067 53.4194 35.2552 53.6084 35.546C53.7974 35.8369 53.9936 36.239 54.2189 36.7608L55.0766 38.7968H53.5793L52.8234 36.8806C52.8234 36.8806 52.7871 36.8036 52.7507 36.718C52.7362 36.6924 52.6853 36.5726 52.5908 36.3673C52.4237 35.9994 52.2928 35.777 52.1911 35.6829C52.0893 35.5888 51.9294 35.546 51.7114 35.5375V38.7882H50.4395V31.3628V31.3543Z" fill="#003F34"/>
<path d="M56.9453 35.1123C56.9453 34.3595 57.0398 33.7265 57.236 33.2046C57.3814 32.8282 57.5776 32.486 57.8248 32.1866C58.0719 31.8872 58.3481 31.6648 58.6388 31.5194C59.0313 31.3226 59.4819 31.2285 59.998 31.2285C60.9283 31.2285 61.6696 31.5707 62.2293 32.2465C62.7889 32.9223 63.0651 33.8719 63.0651 35.0781C63.0651 36.2843 62.7889 37.2167 62.2366 37.8925C61.6842 38.5684 60.9428 38.9105 60.0198 38.9105C59.0967 38.9105 58.3335 38.5769 57.7812 37.9011C57.2288 37.2253 56.9526 36.3014 56.9526 35.1209M58.2681 35.0695C58.2681 35.9079 58.4353 36.5495 58.7624 36.9858C59.0894 37.422 59.511 37.6359 60.0198 37.6359C60.5285 37.6359 60.9428 37.422 61.2699 36.9943C61.597 36.5666 61.7569 35.9164 61.7569 35.0524C61.7569 34.1884 61.597 33.5639 61.2844 33.1447C60.9646 32.7256 60.5503 32.5203 60.0198 32.5203C59.4892 32.5203 59.0749 32.7341 58.7478 33.1533C58.4208 33.5725 58.2681 34.2141 58.2681 35.0695Z" fill="#003F34"/>
<path d="M65.4492 38.7799V31.3545H67.3535L68.5019 36.4188L69.6357 31.3545H71.54V38.7799H70.3625V32.9371L69.1051 38.7799H67.8841L66.6339 32.9371V38.7799H65.4492Z" fill="#003F34"/>
<path d="M74.2363 31.3545H79.2514V38.7799H77.9794V32.6035H75.5083V38.7799H74.2363V31.3545Z" fill="#003F34"/>
<path d="M87.6455 38.7799H86.2573L85.7049 37.0946H83.1828L82.6595 38.7799H81.3076L83.7643 31.3545H85.1089L87.6382 38.7799H87.6455ZM85.2979 35.8457L84.4257 33.0911L83.5753 35.8457H85.2979Z" fill="#003F34"/>
<path d="M89.7402 38.7799V31.3545H91.0122V34.2802H93.5052V31.3545H94.7771V38.7799H93.5052V35.5291H91.0122V38.7799H89.7402Z" fill="#003F34"/>
<path d="M97.5225 31.3545H98.7144V36.299L101.266 31.3545H102.538V38.7799H101.346V33.9294L98.7944 38.7799H97.5225V31.3545Z" fill="#003F34"/>
<path d="M109.021 38.7791V35.6824H108.759C108.359 35.6824 108.076 35.7508 107.909 35.8962C107.742 36.0417 107.458 36.4608 107.066 37.1709L106.143 38.7877H104.616L105.387 37.342C105.692 36.7688 105.932 36.3667 106.113 36.1358C106.295 35.9048 106.52 35.6995 106.797 35.5113C106.208 35.4001 105.786 35.1605 105.525 34.7927C105.263 34.4163 105.132 33.9715 105.132 33.4496C105.132 32.9962 105.227 32.5942 105.423 32.2434C105.619 31.8927 105.874 31.6617 106.186 31.542C106.506 31.4222 106.978 31.3623 107.611 31.3623H110.293V38.7877H109.021V38.7791ZM109.021 32.6113H108.025C107.516 32.6113 107.189 32.6284 107.029 32.6541C106.869 32.6797 106.731 32.7738 106.615 32.9278C106.499 33.0818 106.441 33.2871 106.441 33.5352C106.441 33.7833 106.499 34.0057 106.608 34.1597C106.717 34.3136 106.862 34.4077 107.029 34.442C107.204 34.4762 107.545 34.5018 108.076 34.5018H109.021V32.6198V32.6113Z" fill="#003F34"/>
<path d="M4.01777 2.84375H1.69922V46.917H4.01777V2.84375Z" fill="url(#paint0_linear_266_80)"/>
<path d="M9.96504 2.84375H7.64648V46.917H9.96504V2.84375Z" fill="url(#paint1_linear_266_80)"/>
<path d="M15.9123 2.84375H13.5938V46.917H15.9123V2.84375Z" fill="url(#paint2_linear_266_80)"/>
<path d="M21.8596 2.84375H19.541V46.917H21.8596V2.84375Z" fill="url(#paint3_linear_266_80)"/>
<path d="M38.8527 2.84375H36.5342V46.917H38.8527V2.84375Z" fill="url(#paint4_linear_266_80)"/>
<path d="M32.9055 2.84375H30.5869V46.917H32.9055V2.84375Z" fill="url(#paint5_linear_266_80)"/>
<path d="M27.8068 2.84375H25.4883V46.917H27.8068V2.84375Z" fill="url(#paint6_linear_266_80)"/>
<path fill-rule="evenodd" clip-rule="evenodd" d="M7.47733 21.4287V28.4093H5.51492V23.3706H3.66153V28.4093H1.75V21.4287H7.47733ZM14.1859 28.4093H12.2743L14.3894 21.4287H16.3518L18.4668 28.4093H16.5553L16.3518 27.5025H14.3894L14.1859 28.4093ZM15.9884 26.0396L15.3706 23.4904L14.7528 26.0396H15.9884ZM25.0664 28.4093H23.1548V21.4287H25.9967C26.818 21.4287 27.4939 21.6084 27.9009 22.0361C28.3152 22.4638 28.5187 23.0113 28.5187 23.7983C28.5187 24.5854 28.3661 25.1329 27.9518 25.5606C27.5375 26.0482 26.9197 26.2278 26.0476 26.2278H25.0664V28.4093ZM25.0664 24.5854H25.8949C26.1493 24.5854 26.3092 24.5255 26.4618 24.4057C26.6145 24.2859 26.6654 24.0977 26.6654 23.7983C26.6654 23.4989 26.5636 23.3107 26.3019 23.191C26.1493 23.0712 25.9385 23.0712 25.6333 23.0712H25.0664V24.5854ZM35.2782 25.1329L37.2915 21.4287H39.094V28.4093H37.2406V24.765L35.2273 28.4093H33.3666V21.4287H35.2273L35.2782 25.1329Z" fill="#003F34"/>
<defs>
<linearGradient id="paint0_linear_266_80" x1="2.10275" y1="2.67026" x2="2.10275" y2="46.7435" gradientUnits="userSpaceOnUse">
<stop stop-color="#003F34"/>
<stop offset="0.270833" stop-color="#003F34" stop-opacity="0.5"/>
<stop offset="0.427083" stop-color="white" stop-opacity="0"/>
<stop offset="0.59375" stop-color="white" stop-opacity="0"/>
<stop offset="0.755208" stop-color="#003F34" stop-opacity="0.5"/>
<stop offset="1" stop-color="#003F34"/>
</linearGradient>
<linearGradient id="paint1_linear_266_80" x1="8.05001" y1="2.67026" x2="8.05001" y2="46.7435" gradientUnits="userSpaceOnUse">
<stop stop-color="#003F34"/>
<stop offset="0.270833" stop-color="#003F34" stop-opacity="0.5"/>
<stop offset="0.427083" stop-color="white" stop-opacity="0"/>
<stop offset="0.59375" stop-color="white" stop-opacity="0"/>
<stop offset="0.755208" stop-color="#003F34" stop-opacity="0.5"/>
<stop offset="1" stop-color="#003F34"/>
</linearGradient>
<linearGradient id="paint2_linear_266_80" x1="13.9973" y1="2.67026" x2="13.9973" y2="46.7435" gradientUnits="userSpaceOnUse">
<stop stop-color="#003F34"/>
<stop offset="0.270833" stop-color="#003F34" stop-opacity="0.5"/>
<stop offset="0.427083" stop-color="white" stop-opacity="0"/>
<stop offset="0.59375" stop-color="white" stop-opacity="0"/>
<stop offset="0.755208" stop-color="#003F34" stop-opacity="0.5"/>
<stop offset="1" stop-color="#003F34"/>
</linearGradient>
<linearGradient id="paint3_linear_266_80" x1="19.9445" y1="2.67026" x2="19.9445" y2="46.7435" gradientUnits="userSpaceOnUse">
<stop stop-color="#003F34"/>
<stop offset="0.270833" stop-color="#003F34" stop-opacity="0.5"/>
<stop offset="0.427083" stop-color="white" stop-opacity="0"/>
<stop offset="0.59375" stop-color="white" stop-opacity="0"/>
<stop offset="0.755208" stop-color="#003F34" stop-opacity="0.5"/>
<stop offset="1" stop-color="#003F34"/>
</linearGradient>
<linearGradient id="paint4_linear_266_80" x1="36.9377" y1="2.67026" x2="36.9377" y2="46.7435" gradientUnits="userSpaceOnUse">
<stop stop-color="#003F34"/>
<stop offset="0.270833" stop-color="#003F34" stop-opacity="0.5"/>
<stop offset="0.427083" stop-color="white" stop-opacity="0"/>
<stop offset="0.59375" stop-color="white" stop-opacity="0"/>
<stop offset="0.755208" stop-color="#003F34" stop-opacity="0.5"/>
<stop offset="1" stop-color="#003F34"/>
</linearGradient>
<linearGradient id="paint5_linear_266_80" x1="30.9904" y1="2.67026" x2="30.9904" y2="46.7435" gradientUnits="userSpaceOnUse">
<stop stop-color="#003F34"/>
<stop offset="0.270833" stop-color="#003F34" stop-opacity="0.5"/>
<stop offset="0.427083" stop-color="white" stop-opacity="0"/>
<stop offset="0.59375" stop-color="white" stop-opacity="0"/>
<stop offset="0.755208" stop-color="#003F34" stop-opacity="0.5"/>
<stop offset="1" stop-color="#003F34"/>
</linearGradient>
<linearGradient id="paint6_linear_266_80" x1="25.8918" y1="2.67026" x2="25.8918" y2="46.7435" gradientUnits="userSpaceOnUse">
<stop stop-color="#003F34"/>
<stop offset="0.270833" stop-color="#003F34" stop-opacity="0.5"/>
<stop offset="0.427083" stop-color="white" stop-opacity="0"/>
<stop offset="0.59375" stop-color="white" stop-opacity="0"/>
<stop offset="0.755208" stop-color="#003F34" stop-opacity="0.5"/>
<stop offset="1" stop-color="#003F34"/>
</linearGradient>
</defs>
</svg>
