<svg width="217" height="49" viewBox="0 0 217 49" fill="none" xmlns="http://www.w3.org/2000/svg">
<path d="M24.5465 31.0736C22.8448 31.1077 21.1843 30.5457 19.8499 29.484C18.5155 28.4223 17.5903 26.927 17.233 25.2547V25.2031C17.1112 24.4447 17.0464 23.6782 17.0391 22.91V15.9675H22.025V22.91C22.0294 23.3898 22.0675 23.8688 22.1391 24.3432C22.3113 24.8417 22.6337 25.2739 23.0616 25.5798C23.4894 25.8856 24.0015 26.05 24.5265 26.05C25.0516 26.05 25.5636 25.8856 25.9915 25.5798C26.4193 25.2739 26.7418 24.8417 26.914 24.3432C26.9916 23.8634 27.0355 23.3788 27.0452 22.8928V15.9561H32.0539V22.8985C32.0469 23.6665 31.984 24.4329 31.8657 25.1917V25.249C31.5104 26.9238 30.5851 28.4218 29.2491 29.4849C27.9132 30.5481 26.2502 31.1099 24.5465 31.0736Z" fill="#034991"/>
<path d="M24.5282 38.6054C21.1388 38.606 17.8425 37.4904 15.1439 35.4294C12.447 33.398 10.5904 30.4382 9.92981 27.1168V27.0652C9.66104 25.3583 9.51803 23.6338 9.50195 21.9057V9.22462H14.4936V21.9286C14.5103 23.3589 14.6285 24.7862 14.8473 26.1996C15.6574 30.4075 19.8104 33.572 24.5111 33.572C29.2118 33.572 33.3591 30.4075 34.1692 26.2053C34.3906 24.7903 34.5088 23.3609 34.5229 21.9286V2.5H39.5317V21.9286C39.5154 23.6567 39.3724 25.3812 39.1038 27.0882V27.1398C38.4461 30.4594 36.5938 33.419 33.9011 35.4524C31.2039 37.505 27.9115 38.6126 24.5282 38.6054Z" fill="#034991"/>
<path d="M24.5337 46.1556C19.4413 46.1587 14.4881 44.4853 10.4316 41.3916C6.41676 38.3635 3.65271 33.9551 2.66745 29.0087V28.9571C2.24862 26.3212 2.02551 23.6576 2 20.9884V2.5H7.00876V20.9884C7.02755 23.3668 7.21821 25.7407 7.57923 28.0914C9.00541 35.5441 16.2789 41.1222 24.5223 41.1222C32.7656 41.1222 40.0277 35.5212 41.4539 28.0914C41.8103 25.7383 42.0009 23.3628 42.0244 20.9827V9.22462H47.0331V20.9884C47.0077 23.6555 46.7866 26.317 46.3714 28.9513V29.0087C45.3851 33.9547 42.6213 38.3627 38.6073 41.3916C34.5598 44.4817 29.6167 46.1549 24.5337 46.1556ZM63.788 40.3024C64.2128 40.0695 64.6903 39.951 65.1742 39.9584C65.5537 39.9524 65.93 40.0287 66.2775 40.182C66.625 40.3354 66.9355 40.5622 67.188 40.847L68.1178 39.9756C67.767 39.5667 67.3253 39.2466 66.8286 39.0411C66.2866 38.815 65.7039 38.7037 65.1172 38.7144C64.3991 38.703 63.6901 38.8767 63.0578 39.2189C62.4588 39.5385 61.9578 40.0161 61.6087 40.6005C61.2583 41.2105 61.0737 41.9025 61.0737 42.607C61.0737 43.3114 61.2583 44.0034 61.6087 44.6135C61.9518 45.2 62.4493 45.6801 63.0463 46.0008C63.6804 46.3379 64.3885 46.5094 65.1057 46.4996C65.6918 46.5078 66.2735 46.3986 66.8172 46.1785C67.3166 45.9722 67.7603 45.65 68.1121 45.2383L67.2108 44.3784C66.9594 44.6649 66.6492 44.8931 66.3015 45.0475C65.9539 45.2019 65.5771 45.2788 65.197 45.2727C64.7132 45.2801 64.2356 45.1616 63.8108 44.9288C63.4114 44.7098 63.0798 44.3845 62.8524 43.9886C62.6277 43.5672 62.5101 43.0965 62.5101 42.6184C62.5101 42.1403 62.6277 41.6697 62.8524 41.2483C63.0728 40.8533 63.3962 40.5262 63.788 40.3024ZM71.3125 40.0272H73.7998V46.3849H75.186V40.0272H77.679V38.8405H71.3125V40.0272ZM86.4814 39.1615C85.9392 38.9365 85.3564 38.8272 84.77 38.8405H81.678V46.3849H83.0756V44.2064H84.7871C85.3737 44.2227 85.9571 44.1132 86.4985 43.8854C86.9541 43.693 87.3417 43.3675 87.6109 42.9509C87.8658 42.5168 88.0003 42.0218 88.0003 41.5177C88.0003 41.0136 87.8658 40.5187 87.6109 40.0845C87.3344 39.6705 86.9411 39.3491 86.4814 39.1615ZM86.0992 42.6356C85.6956 42.9222 85.2059 43.0599 84.7129 43.0255H83.0814V40.0272H84.7129C85.2052 39.9911 85.6948 40.1268 86.0992 40.4113C86.249 40.5548 86.3682 40.7273 86.4497 40.9185C86.5312 41.1097 86.5732 41.3155 86.5732 41.5235C86.5732 41.7314 86.5312 41.9372 86.4497 42.1284C86.3682 42.3196 86.249 42.4921 86.0992 42.6356ZM94.3596 38.829L90.971 46.3734H92.4143L93.1559 44.6536H96.921L97.6741 46.3734H99.1345L95.7116 38.829H94.3596ZM93.6294 43.5299L95.0385 40.2278L96.4589 43.5299H93.6294ZM109.152 38.8405H107.52L105.746 41.3629L103.972 38.8405H102.358L104.908 42.5152L102.187 46.3849H103.795L105.746 43.6389L107.703 46.3849H109.357L106.625 42.4636L109.152 38.8405ZM118.713 39.2361C118.07 38.9059 117.359 38.7338 116.637 38.7338C115.915 38.7338 115.203 38.9059 114.56 39.2361C113.958 39.5546 113.457 40.0349 113.111 40.6234C112.764 41.2282 112.581 41.9143 112.581 42.6127C112.581 43.3111 112.764 43.9972 113.111 44.602C113.458 45.1907 113.959 45.6725 114.56 45.9951C115.203 46.3252 115.915 46.4973 116.637 46.4973C117.359 46.4973 118.07 46.3252 118.713 45.9951C119.314 45.6748 119.815 45.1949 120.162 44.6077C120.513 43.9977 120.697 43.3057 120.697 42.6012C120.697 41.8968 120.513 41.2048 120.162 40.5947C119.813 40.0164 119.311 39.5463 118.713 39.2361ZM118.936 43.9771C118.717 44.3751 118.39 44.7029 117.994 44.923C117.577 45.1498 117.111 45.2686 116.637 45.2686C116.162 45.2686 115.696 45.1498 115.279 44.923C114.88 44.7077 114.55 44.3839 114.326 43.9886C114.098 43.5704 113.978 43.1011 113.978 42.6242C113.978 42.1472 114.098 41.678 114.326 41.2598C114.545 40.8618 114.871 40.534 115.267 40.3138C115.684 40.087 116.151 39.9683 116.625 39.9683C117.099 39.9683 117.566 40.087 117.983 40.3138C118.379 40.534 118.705 40.8618 118.924 41.2598C119.152 41.678 119.272 42.1472 119.272 42.6242C119.272 43.1011 119.152 43.5704 118.924 43.9886L118.936 43.9771ZM129.729 42.4636C130.06 42.3279 130.345 42.0989 130.55 41.8044C130.745 41.4983 130.844 41.1411 130.836 40.7782C130.847 40.4983 130.787 40.2201 130.662 39.9696C130.538 39.719 130.352 39.5042 130.123 39.345C129.531 38.9749 128.839 38.7986 128.143 38.8405H124.777V46.3849H128.348C129.099 46.4267 129.842 46.2258 130.471 45.8116C130.863 45.4908 131.119 45.0309 131.185 44.5266C131.25 44.0222 131.121 43.5117 130.824 43.1C130.536 42.7761 130.152 42.5531 129.729 42.4636ZM126.158 39.9183H128.018C128.382 39.894 128.745 39.9907 129.05 40.1934C129.168 40.2895 129.262 40.4123 129.323 40.5519C129.385 40.6914 129.412 40.8437 129.404 40.996C129.413 41.1477 129.386 41.2994 129.324 41.4382C129.263 41.577 129.169 41.6987 129.05 41.7929C128.743 41.991 128.381 42.0854 128.018 42.0623H126.146L126.158 39.9183ZM128.308 45.3071H126.158V43.0885H128.308C129.295 43.0885 129.792 43.4554 129.792 44.1892C129.792 44.923 129.29 45.3071 128.303 45.3071H128.308ZM137.716 38.829L134.293 46.3849H135.73L136.478 44.6651H140.237L140.99 46.3849H142.456L139.033 38.8405L137.716 38.829ZM136.98 43.5299L138.389 40.2278L139.809 43.5299H136.98ZM151.664 41.9534H147.767V38.8405H146.37V46.3849H147.767V43.1516H151.664V46.3849H153.061V38.8405H151.664V41.9534ZM159.508 44.2007V38.8405H158.133V46.3849H159.428L163.472 41.0419V46.3849H164.853V38.8405H163.552L159.508 44.2007ZM171.316 40.0157V41.9764H174.956V43.1287H171.316V45.2097H174.979V46.3849H169.919V38.8405H174.979V40.0157H171.316ZM87.0975 10.3139C85.2905 9.32064 83.2582 8.81499 81.1988 8.84625C79.3845 8.83248 77.5899 9.22411 75.9447 9.99282C74.378 10.7068 73.0076 11.7928 71.9514 13.1574C70.9056 14.5248 70.1978 16.1222 69.8863 17.8182H66.9769V9.21889H61.9681V31.0553H66.9769V22.1637H69.8293C70.0913 23.9044 70.7759 25.5535 71.8225 26.9653C72.8692 28.3771 74.2458 29.5081 75.8307 30.2584C77.5053 31.0418 79.3347 31.4338 81.1817 31.405C83.2411 31.4363 85.2734 30.9306 87.0804 29.9374C88.7936 29.0026 90.2199 27.6149 91.2049 25.9244C92.1813 24.1533 92.6936 22.1618 92.6936 20.1371C92.6936 18.1123 92.1813 16.1209 91.2049 14.3498C90.2278 12.6531 88.8074 11.2574 87.0975 10.3139ZM86.7723 23.786C86.2541 24.8047 85.464 25.6582 84.4904 26.2512C83.4958 26.8223 82.37 27.1227 81.2245 27.1227C80.0789 27.1227 78.9532 26.8223 77.9585 26.2512C76.9849 25.6582 76.1948 24.8047 75.6766 23.786C75.125 22.6495 74.8383 21.4016 74.8383 20.1371C74.8383 18.8726 75.125 17.6247 75.6766 16.4881C76.1948 15.4695 76.9849 14.616 77.9585 14.023C78.9532 13.4519 80.0789 13.1515 81.2245 13.1515C82.37 13.1515 83.4958 13.4519 84.4904 14.023C85.464 14.616 86.2541 15.4695 86.7723 16.4881C87.3239 17.6247 87.6106 18.8726 87.6106 20.1371C87.6106 21.4016 87.3239 22.6495 86.7723 23.786ZM102.962 13.3351H113.328L113.356 9.21889H97.9878V31.0553H102.997L102.962 13.3351ZM128.257 31.4279C130.38 31.4617 132.478 30.9569 134.355 29.9603C136.11 29.0337 137.583 27.647 138.617 25.9473C139.639 24.1914 140.177 22.194 140.177 20.16C140.177 18.126 139.639 16.1286 138.617 14.3727C137.583 12.673 136.11 11.2863 134.355 10.3597C132.463 9.39482 130.371 8.89197 128.249 8.89197C126.126 8.89197 124.034 9.39482 122.142 10.3597C120.383 11.2804 118.909 12.6684 117.88 14.3727C116.871 16.1328 116.34 18.1286 116.34 20.16C116.34 22.1914 116.871 24.1872 117.88 25.9473C118.909 27.6516 120.383 29.0397 122.142 29.9603C124.026 30.9569 126.128 31.4616 128.257 31.4279ZM122.313 16.5168C122.879 15.4771 123.725 14.6188 124.754 14.0402C125.825 13.4572 127.023 13.1518 128.24 13.1518C129.457 13.1518 130.655 13.4572 131.726 14.0402C132.752 14.6232 133.597 15.4804 134.167 16.5168C134.748 17.6343 135.051 18.8763 135.051 20.1371C135.051 21.3978 134.748 22.6399 134.167 23.7574C133.597 24.7938 132.752 25.651 131.726 26.234C130.655 26.817 129.457 27.1224 128.24 27.1224C127.023 27.1224 125.825 26.817 124.754 26.234C123.725 25.6554 122.879 24.7971 122.313 23.7574C121.728 22.6411 121.423 21.3986 121.423 20.1371C121.423 18.8756 121.728 17.6331 122.313 16.5168ZM163.022 21.3381C163.772 20.0662 164.168 18.6147 164.168 17.1359C164.168 15.6572 163.772 14.2057 163.022 12.9338C162.22 11.7076 161.077 10.7448 159.736 10.1648C158.148 9.48698 156.435 9.15671 154.71 9.19596H145.286V31.0324H150.323V25.0358H154.71C156.433 25.0746 158.145 24.7504 159.736 24.0842C161.078 23.5159 162.221 22.5602 163.022 21.3381ZM157.887 19.9336C156.884 20.6551 155.662 21.0036 154.43 20.9196H150.323V13.3351H154.43C155.662 13.2511 156.884 13.5996 157.887 14.3211C158.288 14.6678 158.602 15.1028 158.807 15.5922C159.012 16.0815 159.101 16.6118 159.068 17.1417C159.093 17.663 159 18.1832 158.796 18.663C158.591 19.1427 158.28 19.5694 157.887 19.9106V19.9336ZM190.096 31.0553V9.21889H185.367L174.973 23.4421V9.21889H169.964V31.0553H174.728L185.116 16.8608V31.0553H190.096ZM205.288 9.21889C203.576 9.17794 201.876 9.51452 200.308 10.2049C198.966 10.8018 197.83 11.7854 197.045 13.0312C196.285 14.3615 195.887 15.8696 195.892 17.4035C195.897 18.9374 196.305 20.4428 197.073 21.7681C197.895 23.0105 199.081 23.9645 200.468 24.4969L195.904 31.0782H201.226L205.083 25.2766H209.686V31.0782H214.667V9.21889H205.288ZM209.704 21.2579H205.288C204.128 21.3434 202.979 20.9758 202.082 20.2317C201.705 19.8468 201.414 19.3865 201.226 18.8808C201.038 18.375 200.959 17.8352 200.992 17.2965C200.955 16.7494 201.037 16.2008 201.235 15.6895C201.432 15.1782 201.739 14.7169 202.133 14.3383C203.069 13.6103 204.239 13.2533 205.419 13.3351H209.709L209.704 21.2579Z" fill="#034991"/>
</svg>
